<svg width="366" height="229" viewBox="0 0 366 229" fill="none" xmlns="http://www.w3.org/2000/svg">
<path d="M4 0.75H362C363.795 0.75 365.25 2.20507 365.25 4V91.2275C365.25 92.6158 364.336 93.8842 362.983 94.541C355.591 98.1321 350.492 105.719 350.492 114.5C350.492 123.281 355.591 130.868 362.983 134.459C364.336 135.116 365.25 136.384 365.25 137.772V225C365.25 226.795 363.795 228.25 362 228.25H4C2.20507 228.25 0.75 226.795 0.75 225V137.772C0.7501 136.384 1.66438 135.116 3.0166 134.459C10.4092 130.868 15.5078 123.281 15.5078 114.5C15.5078 105.719 10.4092 98.1321 3.0166 94.541C1.66438 93.8842 0.7501 92.6158 0.75 91.2275V4C0.75 2.20508 2.20508 0.750005 4 0.75Z" fill="white" fill-opacity="0.7" stroke="#FADC6D" stroke-width="1.5" stroke-linejoin="round"/>
<path d="M63.6021 51.4545V66H61.8976L53.9714 54.5795H53.8294V66H52.068V51.4545H53.7725L61.7271 62.9034H61.8691V51.4545H63.6021ZM73.3311 66.2273C72.3463 66.2273 71.4822 65.9929 70.7388 65.5241C70.0002 65.0554 69.4225 64.3996 69.0059 63.5568C68.5939 62.714 68.388 61.7292 68.388 60.6023C68.388 59.4659 68.5939 58.474 69.0059 57.6264C69.4225 56.7789 70.0002 56.1207 70.7388 55.652C71.4822 55.1832 72.3463 54.9489 73.3311 54.9489C74.316 54.9489 75.1777 55.1832 75.9164 55.652C76.6597 56.1207 77.2374 56.7789 77.6493 57.6264C78.066 58.474 78.2743 59.4659 78.2743 60.6023C78.2743 61.7292 78.066 62.714 77.6493 63.5568C77.2374 64.3996 76.6597 65.0554 75.9164 65.5241C75.1777 65.9929 74.316 66.2273 73.3311 66.2273ZM73.3311 64.7216C74.0792 64.7216 74.6948 64.5298 75.1777 64.1463C75.6607 63.7628 76.0182 63.2585 76.2502 62.6335C76.4822 62.0085 76.5982 61.3314 76.5982 60.6023C76.5982 59.8731 76.4822 59.1937 76.2502 58.5639C76.0182 57.9342 75.6607 57.4252 75.1777 57.0369C74.6948 56.6487 74.0792 56.4545 73.3311 56.4545C72.583 56.4545 71.9675 56.6487 71.4846 57.0369C71.0016 57.4252 70.6441 57.9342 70.4121 58.5639C70.1801 59.1937 70.0641 59.8731 70.0641 60.6023C70.0641 61.3314 70.1801 62.0085 70.4121 62.6335C70.6441 63.2585 71.0016 63.7628 71.4846 64.1463C71.9675 64.5298 72.583 64.7216 73.3311 64.7216ZM90.4579 66V55.0909H92.0772V56.7955H92.2193C92.4466 56.2131 92.8135 55.7609 93.3201 55.4389C93.8268 55.1122 94.4352 54.9489 95.1454 54.9489C95.8651 54.9489 96.4641 55.1122 96.9423 55.4389C97.4252 55.7609 97.8017 56.2131 98.0716 56.7955H98.1852C98.4645 56.232 98.8836 55.7846 99.4423 55.4531C100.001 55.117 100.671 54.9489 101.452 54.9489C102.428 54.9489 103.225 55.2543 103.846 55.8651C104.466 56.4711 104.776 57.4157 104.776 58.6989V66H103.1V58.6989C103.1 57.8939 102.88 57.3187 102.439 56.973C101.999 56.6274 101.481 56.4545 100.884 56.4545C100.117 56.4545 99.5228 56.6866 99.1014 57.1506C98.68 57.6098 98.4693 58.1922 98.4693 58.8977V66H96.7647V58.5284C96.7647 57.9081 96.5635 57.4086 96.161 57.0298C95.7586 56.6463 95.2401 56.4545 94.6056 56.4545C94.17 56.4545 93.7628 56.5705 93.3841 56.8026C93.01 57.0346 92.707 57.3565 92.475 57.7685C92.2477 58.1757 92.1341 58.6468 92.1341 59.1818V66H90.4579ZM114.273 66.2273C113.288 66.2273 112.424 65.9929 111.68 65.5241C110.942 65.0554 110.364 64.3996 109.947 63.5568C109.535 62.714 109.329 61.7292 109.329 60.6023C109.329 59.4659 109.535 58.474 109.947 57.6264C110.364 56.7789 110.942 56.1207 111.68 55.652C112.424 55.1832 113.288 54.9489 114.273 54.9489C115.257 54.9489 116.119 55.1832 116.858 55.652C117.601 56.1207 118.179 56.7789 118.591 57.6264C119.007 58.474 119.216 59.4659 119.216 60.6023C119.216 61.7292 119.007 62.714 118.591 63.5568C118.179 64.3996 117.601 65.0554 116.858 65.5241C116.119 65.9929 115.257 66.2273 114.273 66.2273ZM114.273 64.7216C115.021 64.7216 115.636 64.5298 116.119 64.1463C116.602 63.7628 116.96 63.2585 117.192 62.6335C117.424 62.0085 117.54 61.3314 117.54 60.6023C117.54 59.8731 117.424 59.1937 117.192 58.5639C116.96 57.9342 116.602 57.4252 116.119 57.0369C115.636 56.6487 115.021 56.4545 114.273 56.4545C113.524 56.4545 112.909 56.6487 112.426 57.0369C111.943 57.4252 111.586 57.9342 111.354 58.5639C111.122 59.1937 111.006 59.8731 111.006 60.6023C111.006 61.3314 111.122 62.0085 111.354 62.6335C111.586 63.2585 111.943 63.7628 112.426 64.1463C112.909 64.5298 113.524 64.7216 114.273 64.7216ZM123.774 66V55.0909H125.394V56.7386H125.507C125.706 56.1989 126.066 55.7609 126.587 55.4247C127.108 55.0885 127.695 54.9205 128.348 54.9205C128.471 54.9205 128.625 54.9228 128.81 54.9276C128.994 54.9323 129.134 54.9394 129.229 54.9489V56.6534C129.172 56.6392 129.042 56.6179 128.838 56.5895C128.639 56.5563 128.429 56.5398 128.206 56.5398C127.676 56.5398 127.202 56.651 126.786 56.8736C126.374 57.0914 126.047 57.3944 125.806 57.7827C125.569 58.1662 125.45 58.6042 125.45 59.0966V66H123.774ZM137.458 66.2273C136.406 66.2273 135.5 65.9953 134.737 65.5312C133.98 65.0625 133.395 64.4091 132.983 63.571C132.576 62.7282 132.372 61.7481 132.372 60.6307C132.372 59.5133 132.576 58.5284 132.983 57.6761C133.395 56.8191 133.968 56.1515 134.702 55.6733C135.441 55.1903 136.302 54.9489 137.287 54.9489C137.855 54.9489 138.416 55.0436 138.97 55.233C139.524 55.4223 140.029 55.7301 140.483 56.1562C140.938 56.5777 141.3 57.1364 141.57 57.8324C141.84 58.5284 141.975 59.3854 141.975 60.4034V61.1136H133.566V59.6648H140.27C140.27 59.0492 140.147 58.5 139.901 58.017C139.659 57.5341 139.314 57.1529 138.864 56.8736C138.419 56.5942 137.893 56.4545 137.287 56.4545C136.619 56.4545 136.042 56.6203 135.554 56.9517C135.071 57.2784 134.7 57.7045 134.439 58.2301C134.179 58.7557 134.048 59.3191 134.048 59.9205V60.8864C134.048 61.7102 134.191 62.4086 134.475 62.9815C134.763 63.5497 135.164 63.983 135.675 64.2812C136.186 64.5748 136.78 64.7216 137.458 64.7216C137.898 64.7216 138.296 64.66 138.651 64.5369C139.011 64.4091 139.321 64.2197 139.581 63.9688C139.842 63.7131 140.043 63.3958 140.185 63.017L141.804 63.4716C141.634 64.0208 141.347 64.5038 140.945 64.9205C140.542 65.3324 140.045 65.6544 139.453 65.8864C138.861 66.1136 138.196 66.2273 137.458 66.2273ZM158.553 70.3182C157.743 70.3182 157.047 70.214 156.465 70.0057C155.882 69.8021 155.397 69.5322 155.009 69.196C154.625 68.8646 154.32 68.5095 154.093 68.1307L155.428 67.1932C155.579 67.392 155.771 67.6193 156.003 67.875C156.235 68.1354 156.552 68.3603 156.955 68.5497C157.362 68.7438 157.895 68.8409 158.553 68.8409C159.433 68.8409 160.16 68.6278 160.733 68.2017C161.306 67.7756 161.593 67.108 161.593 66.1989V63.983H161.45C161.327 64.1818 161.152 64.428 160.925 64.7216C160.702 65.0104 160.38 65.2685 159.959 65.4957C159.542 65.7183 158.979 65.8295 158.269 65.8295C157.388 65.8295 156.597 65.6212 155.896 65.2045C155.2 64.7879 154.649 64.1818 154.242 63.3864C153.839 62.5909 153.638 61.625 153.638 60.4886C153.638 59.3712 153.834 58.3982 154.227 57.5696C154.62 56.7363 155.167 56.0923 155.868 55.6378C156.569 55.1785 157.378 54.9489 158.297 54.9489C159.007 54.9489 159.571 55.0672 159.987 55.304C160.409 55.536 160.731 55.8011 160.953 56.0994C161.181 56.393 161.356 56.6345 161.479 56.8239H161.649V55.0909H163.269V66.3125C163.269 67.25 163.056 68.0123 162.629 68.5994C162.208 69.1913 161.64 69.6245 160.925 69.8991C160.215 70.1785 159.424 70.3182 158.553 70.3182ZM158.496 64.3239C159.168 64.3239 159.736 64.17 160.2 63.8622C160.664 63.5545 161.017 63.1117 161.259 62.5341C161.5 61.9564 161.621 61.2652 161.621 60.4602C161.621 59.6742 161.503 58.9806 161.266 58.3793C161.029 57.7779 160.679 57.3068 160.215 56.9659C159.751 56.625 159.178 56.4545 158.496 56.4545C157.786 56.4545 157.194 56.6345 156.72 56.9943C156.252 57.3542 155.899 57.8371 155.662 58.4432C155.43 59.0492 155.314 59.7216 155.314 60.4602C155.314 61.2178 155.432 61.8878 155.669 62.4702C155.911 63.0478 156.266 63.5024 156.735 63.8338C157.208 64.1605 157.795 64.3239 158.496 64.3239ZM175.212 61.5398V55.0909H176.888V66H175.212V64.1534H175.098C174.843 64.7074 174.445 65.1785 173.905 65.5668C173.365 65.9503 172.683 66.142 171.86 66.142C171.178 66.142 170.572 65.9929 170.041 65.6946C169.511 65.3916 169.094 64.937 168.791 64.331C168.488 63.7202 168.337 62.9508 168.337 62.0227V55.0909H170.013V61.9091C170.013 62.7045 170.235 63.339 170.681 63.8125C171.13 64.286 171.703 64.5227 172.399 64.5227C172.816 64.5227 173.24 64.4162 173.671 64.2031C174.106 63.9901 174.471 63.6634 174.764 63.223C175.063 62.7827 175.212 62.2216 175.212 61.5398ZM186.532 66.2273C185.481 66.2273 184.574 65.9953 183.812 65.5312C183.054 65.0625 182.469 64.4091 182.057 63.571C181.65 62.7282 181.447 61.7481 181.447 60.6307C181.447 59.5133 181.65 58.5284 182.057 57.6761C182.469 56.8191 183.042 56.1515 183.776 55.6733C184.515 55.1903 185.376 54.9489 186.361 54.9489C186.93 54.9489 187.491 55.0436 188.045 55.233C188.599 55.4223 189.103 55.7301 189.557 56.1562C190.012 56.5777 190.374 57.1364 190.644 57.8324C190.914 58.5284 191.049 59.3854 191.049 60.4034V61.1136H182.64V59.6648H189.344C189.344 59.0492 189.221 58.5 188.975 58.017C188.733 57.5341 188.388 57.1529 187.938 56.8736C187.493 56.5942 186.967 56.4545 186.361 56.4545C185.694 56.4545 185.116 56.6203 184.628 56.9517C184.145 57.2784 183.774 57.7045 183.513 58.2301C183.253 58.7557 183.123 59.3191 183.123 59.9205V60.8864C183.123 61.7102 183.265 62.4086 183.549 62.9815C183.838 63.5497 184.238 63.983 184.749 64.2812C185.26 64.5748 185.855 64.7216 186.532 64.7216C186.972 64.7216 187.37 64.66 187.725 64.5369C188.085 64.4091 188.395 64.2197 188.655 63.9688C188.916 63.7131 189.117 63.3958 189.259 63.017L190.878 63.4716C190.708 64.0208 190.421 64.5038 190.019 64.9205C189.617 65.3324 189.119 65.6544 188.528 65.8864C187.936 66.1136 187.27 66.2273 186.532 66.2273ZM203.326 57.5341L201.82 57.9602C201.725 57.7093 201.586 57.4654 201.401 57.2287C201.221 56.9872 200.975 56.7884 200.662 56.6321C200.35 56.4759 199.95 56.3977 199.462 56.3977C198.795 56.3977 198.238 56.5516 197.793 56.8594C197.353 57.1624 197.133 57.5483 197.133 58.017C197.133 58.4337 197.284 58.7628 197.587 59.0043C197.89 59.2457 198.364 59.447 199.008 59.608L200.627 60.0057C201.602 60.2424 202.329 60.6046 202.807 61.0923C203.286 61.5753 203.525 62.1979 203.525 62.9602C203.525 63.5852 203.345 64.1439 202.985 64.6364C202.63 65.1288 202.133 65.517 201.493 65.8011C200.854 66.0852 200.111 66.2273 199.263 66.2273C198.151 66.2273 197.23 65.9858 196.501 65.5028C195.771 65.0199 195.31 64.3144 195.116 63.3864L196.706 62.9886C196.858 63.5758 197.144 64.0161 197.566 64.3097C197.992 64.6032 198.548 64.75 199.235 64.75C200.016 64.75 200.636 64.5843 201.096 64.2528C201.56 63.9167 201.792 63.5142 201.792 63.0455C201.792 62.6667 201.659 62.3494 201.394 62.0938C201.129 61.8333 200.722 61.6392 200.172 61.5114L198.354 61.0852C197.355 60.8485 196.621 60.4815 196.153 59.9844C195.689 59.4825 195.456 58.8551 195.456 58.1023C195.456 57.4867 195.629 56.9422 195.975 56.4688C196.325 55.9953 196.801 55.6236 197.403 55.3537C198.009 55.0838 198.695 54.9489 199.462 54.9489C200.542 54.9489 201.389 55.1856 202.005 55.6591C202.625 56.1326 203.065 56.7576 203.326 57.5341ZM215.775 57.5341L214.269 57.9602C214.175 57.7093 214.035 57.4654 213.85 57.2287C213.67 56.9872 213.424 56.7884 213.112 56.6321C212.799 56.4759 212.399 56.3977 211.911 56.3977C211.244 56.3977 210.687 56.5516 210.242 56.8594C209.802 57.1624 209.582 57.5483 209.582 58.017C209.582 58.4337 209.733 58.7628 210.036 59.0043C210.339 59.2457 210.813 59.447 211.457 59.608L213.076 60.0057C214.052 60.2424 214.778 60.6046 215.257 61.0923C215.735 61.5753 215.974 62.1979 215.974 62.9602C215.974 63.5852 215.794 64.1439 215.434 64.6364C215.079 65.1288 214.582 65.517 213.943 65.8011C213.303 66.0852 212.56 66.2273 211.713 66.2273C210.6 66.2273 209.679 65.9858 208.95 65.5028C208.221 65.0199 207.759 64.3144 207.565 63.3864L209.156 62.9886C209.307 63.5758 209.594 64.0161 210.015 64.3097C210.441 64.6032 210.998 64.75 211.684 64.75C212.465 64.75 213.086 64.5843 213.545 64.2528C214.009 63.9167 214.241 63.5142 214.241 63.0455C214.241 62.6667 214.108 62.3494 213.843 62.0938C213.578 61.8333 213.171 61.6392 212.622 61.5114L210.803 61.0852C209.804 60.8485 209.07 60.4815 208.602 59.9844C208.138 59.4825 207.906 58.8551 207.906 58.1023C207.906 57.4867 208.079 56.9422 208.424 56.4688C208.775 55.9953 209.25 55.6236 209.852 55.3537C210.458 55.0838 211.144 54.9489 211.911 54.9489C212.991 54.9489 213.838 55.1856 214.454 55.6591C215.074 56.1326 215.515 56.7576 215.775 57.5341ZM220.497 66V55.0909H222.173V66H220.497ZM221.349 53.2727C221.023 53.2727 220.741 53.1615 220.504 52.9389C220.272 52.7164 220.156 52.4489 220.156 52.1364C220.156 51.8239 220.272 51.5563 220.504 51.3338C220.741 51.1113 221.023 51 221.349 51C221.676 51 221.955 51.1113 222.187 51.3338C222.424 51.5563 222.542 51.8239 222.542 52.1364C222.542 52.4489 222.424 52.7164 222.187 52.9389C221.955 53.1615 221.676 53.2727 221.349 53.2727ZM228.919 59.4375V66H227.243V55.0909H228.862V56.7955H229.004C229.26 56.2415 229.648 55.7964 230.169 55.4602C230.69 55.1193 231.362 54.9489 232.186 54.9489C232.925 54.9489 233.571 55.1004 234.125 55.4034C234.679 55.7017 235.11 56.1562 235.418 56.767C235.726 57.3731 235.879 58.1402 235.879 59.0682V66H234.203V59.1818C234.203 58.3248 233.981 57.6572 233.536 57.179C233.091 56.696 232.48 56.4545 231.703 56.4545C231.168 56.4545 230.69 56.5705 230.269 56.8026C229.852 57.0346 229.523 57.3731 229.281 57.8182C229.04 58.2633 228.919 58.803 228.919 59.4375ZM245.346 70.3182C244.536 70.3182 243.84 70.214 243.258 70.0057C242.675 69.8021 242.19 69.5322 241.802 69.196C241.418 68.8646 241.113 68.5095 240.885 68.1307L242.221 67.1932C242.372 67.392 242.564 67.6193 242.796 67.875C243.028 68.1354 243.345 68.3603 243.748 68.5497C244.155 68.7438 244.688 68.8409 245.346 68.8409C246.226 68.8409 246.953 68.6278 247.526 68.2017C248.099 67.7756 248.385 67.108 248.385 66.1989V63.983H248.243C248.12 64.1818 247.945 64.428 247.718 64.7216C247.495 65.0104 247.173 65.2685 246.752 65.4957C246.335 65.7183 245.772 65.8295 245.062 65.8295C244.181 65.8295 243.39 65.6212 242.689 65.2045C241.993 64.7879 241.442 64.1818 241.035 63.3864C240.632 62.5909 240.431 61.625 240.431 60.4886C240.431 59.3712 240.627 58.3982 241.02 57.5696C241.413 56.7363 241.96 56.0923 242.661 55.6378C243.362 55.1785 244.171 54.9489 245.09 54.9489C245.8 54.9489 246.364 55.0672 246.78 55.304C247.202 55.536 247.524 55.8011 247.746 56.0994C247.974 56.393 248.149 56.6345 248.272 56.8239H248.442V55.0909H250.062V66.3125C250.062 67.25 249.849 68.0123 249.422 68.5994C249.001 69.1913 248.433 69.6245 247.718 69.8991C247.008 70.1785 246.217 70.3182 245.346 70.3182ZM245.289 64.3239C245.961 64.3239 246.529 64.17 246.993 63.8622C247.457 63.5545 247.81 63.1117 248.052 62.5341C248.293 61.9564 248.414 61.2652 248.414 60.4602C248.414 59.6742 248.296 58.9806 248.059 58.3793C247.822 57.7779 247.472 57.3068 247.008 56.9659C246.544 56.625 245.971 56.4545 245.289 56.4545C244.579 56.4545 243.987 56.6345 243.513 56.9943C243.045 57.3542 242.692 57.8371 242.455 58.4432C242.223 59.0492 242.107 59.7216 242.107 60.4602C242.107 61.2178 242.225 61.8878 242.462 62.4702C242.704 63.0478 243.059 63.5024 243.528 63.8338C244.001 64.1605 244.588 64.3239 245.289 64.3239ZM262.755 66V55.0909H264.431V66H262.755ZM263.607 53.2727C263.28 53.2727 262.999 53.1615 262.762 52.9389C262.53 52.7164 262.414 52.4489 262.414 52.1364C262.414 51.8239 262.53 51.5563 262.762 51.3338C262.999 51.1113 263.28 51 263.607 51C263.934 51 264.213 51.1113 264.445 51.3338C264.682 51.5563 264.8 51.8239 264.8 52.1364C264.8 52.4489 264.682 52.7164 264.445 52.9389C264.213 53.1615 263.934 53.2727 263.607 53.2727ZM274.359 55.0909V56.5114H268.478V55.0909H274.359ZM270.24 66V53.5852C270.24 52.9602 270.386 52.4394 270.68 52.0227C270.973 51.6061 271.355 51.2936 271.823 51.0852C272.292 50.8769 272.787 50.7727 273.308 50.7727C273.72 50.7727 274.056 50.8059 274.316 50.8722C274.577 50.9384 274.771 51 274.899 51.0568L274.416 52.5057C274.33 52.4773 274.212 52.4418 274.061 52.3991C273.914 52.3565 273.72 52.3352 273.478 52.3352C272.924 52.3352 272.524 52.4749 272.278 52.7543C272.036 53.0336 271.916 53.4432 271.916 53.983V66H270.24ZM286.333 66V55.0909H288.009V66H286.333ZM287.185 53.2727C286.858 53.2727 286.577 53.1615 286.34 52.9389C286.108 52.7164 285.992 52.4489 285.992 52.1364C285.992 51.8239 286.108 51.5563 286.34 51.3338C286.577 51.1113 286.858 51 287.185 51C287.512 51 287.791 51.1113 288.023 51.3338C288.26 51.5563 288.378 51.8239 288.378 52.1364C288.378 52.4489 288.26 52.7164 288.023 52.9389C287.791 53.1615 287.512 53.2727 287.185 53.2727ZM297.823 55.0909V56.5114H292.17V55.0909H297.823ZM293.818 52.4773H295.494V62.875C295.494 63.3485 295.562 63.7036 295.7 63.9403C295.842 64.1723 296.022 64.3286 296.24 64.4091C296.462 64.4848 296.696 64.5227 296.943 64.5227C297.127 64.5227 297.279 64.5133 297.397 64.4943C297.516 64.4706 297.61 64.4517 297.681 64.4375L298.022 65.9432C297.909 65.9858 297.75 66.0284 297.546 66.071C297.343 66.1184 297.085 66.142 296.772 66.142C296.299 66.142 295.835 66.0402 295.38 65.8366C294.93 65.633 294.556 65.3229 294.258 64.9062C293.964 64.4896 293.818 63.964 293.818 63.3295V52.4773ZM303.794 51.4545V56.4545H302.231V51.4545H303.794ZM316.506 57.5341L315 57.9602C314.905 57.7093 314.765 57.4654 314.581 57.2287C314.401 56.9872 314.155 56.7884 313.842 56.6321C313.53 56.4759 313.13 56.3977 312.642 56.3977C311.974 56.3977 311.418 56.5516 310.973 56.8594C310.532 57.1624 310.312 57.5483 310.312 58.017C310.312 58.4337 310.464 58.7628 310.767 59.0043C311.07 59.2457 311.543 59.447 312.187 59.608L313.807 60.0057C314.782 60.2424 315.509 60.6046 315.987 61.0923C316.465 61.5753 316.704 62.1979 316.704 62.9602C316.704 63.5852 316.524 64.1439 316.165 64.6364C315.809 65.1288 315.312 65.517 314.673 65.8011C314.034 66.0852 313.291 66.2273 312.443 66.2273C311.33 66.2273 310.409 65.9858 309.68 65.5028C308.951 65.0199 308.489 64.3144 308.295 63.3864L309.886 62.9886C310.038 63.5758 310.324 64.0161 310.746 64.3097C311.172 64.6032 311.728 64.75 312.415 64.75C313.196 64.75 313.816 64.5843 314.275 64.2528C314.739 63.9167 314.971 63.5142 314.971 63.0455C314.971 62.6667 314.839 62.3494 314.574 62.0938C314.309 61.8333 313.901 61.6392 313.352 61.5114L311.534 61.0852C310.535 60.8485 309.801 60.4815 309.332 59.9844C308.868 59.4825 308.636 58.8551 308.636 58.1023C308.636 57.4867 308.809 56.9422 309.155 56.4688C309.505 55.9953 309.981 55.6236 310.582 55.3537C311.188 55.0838 311.875 54.9489 312.642 54.9489C313.721 54.9489 314.569 55.1856 315.184 55.6591C315.805 56.1326 316.245 56.7576 316.506 57.5341ZM41.7548 94V83.0909H43.3741V84.7386H43.4877C43.6866 84.1989 44.0465 83.7609 44.5673 83.4247C45.0881 83.0885 45.6752 82.9205 46.3287 82.9205C46.4518 82.9205 46.6056 82.9228 46.7903 82.9276C46.975 82.9323 47.1146 82.9394 47.2093 82.9489V84.6534C47.1525 84.6392 47.0223 84.6179 46.8187 84.5895C46.6199 84.5563 46.4092 84.5398 46.1866 84.5398C45.6563 84.5398 45.1828 84.651 44.7662 84.8736C44.3542 85.0914 44.0275 85.3944 43.786 85.7827C43.5493 86.1662 43.4309 86.6042 43.4309 87.0966V94H41.7548ZM51.1962 94V83.0909H52.8723V94H51.1962ZM52.0485 81.2727C51.7218 81.2727 51.44 81.1615 51.2033 80.9389C50.9713 80.7164 50.8553 80.4489 50.8553 80.1364C50.8553 79.8239 50.9713 79.5563 51.2033 79.3338C51.44 79.1113 51.7218 79 52.0485 79C52.3752 79 52.6545 79.1113 52.8865 79.3338C53.1233 79.5563 53.2417 79.8239 53.2417 80.1364C53.2417 80.4489 53.1233 80.7164 52.8865 80.9389C52.6545 81.1615 52.3752 81.2727 52.0485 81.2727ZM62.3457 98.3182C61.536 98.3182 60.84 98.214 60.2576 98.0057C59.6752 97.8021 59.1899 97.5322 58.8017 97.196C58.4181 96.8646 58.1127 96.5095 57.8855 96.1307L59.2207 95.1932C59.3722 95.392 59.564 95.6193 59.796 95.875C60.028 96.1354 60.3452 96.3603 60.7477 96.5497C61.1549 96.7438 61.6876 96.8409 62.3457 96.8409C63.2264 96.8409 63.9532 96.6278 64.5261 96.2017C65.099 95.7756 65.3855 95.108 65.3855 94.1989V91.983H65.2434C65.1203 92.1818 64.9451 92.428 64.7179 92.7216C64.4953 93.0104 64.1734 93.2685 63.752 93.4957C63.3353 93.7183 62.7718 93.8295 62.0616 93.8295C61.1809 93.8295 60.3902 93.6212 59.6895 93.2045C58.9934 92.7879 58.4418 92.1818 58.0346 91.3864C57.6322 90.5909 57.4309 89.625 57.4309 88.4886C57.4309 87.3712 57.6274 86.3982 58.0204 85.5696C58.4134 84.7363 58.9603 84.0923 59.661 83.6378C60.3618 83.1785 61.1715 82.9489 62.09 82.9489C62.8002 82.9489 63.3637 83.0672 63.7804 83.304C64.2018 83.536 64.5237 83.8011 64.7463 84.0994C64.9735 84.393 65.1487 84.6345 65.2718 84.8239H65.4423V83.0909H67.0616V94.3125C67.0616 95.25 66.8485 96.0123 66.4224 96.5994C66.001 97.1913 65.4328 97.6245 64.7179 97.8991C64.0076 98.1785 63.2169 98.3182 62.3457 98.3182ZM62.2889 92.3239C62.9612 92.3239 63.5294 92.17 63.9934 91.8622C64.4574 91.5545 64.8102 91.1117 65.0517 90.5341C65.2931 89.9564 65.4139 89.2652 65.4139 88.4602C65.4139 87.6742 65.2955 86.9806 65.0588 86.3793C64.822 85.7779 64.4717 85.3068 64.0076 84.9659C63.5436 84.625 62.9707 84.4545 62.2889 84.4545C61.5787 84.4545 60.9868 84.6345 60.5133 84.9943C60.0446 85.3542 59.6918 85.8371 59.4551 86.4432C59.2231 87.0492 59.1071 87.7216 59.1071 88.4602C59.1071 89.2178 59.2254 89.8878 59.4622 90.4702C59.7037 91.0478 60.0588 91.5024 60.5275 91.8338C61.001 92.1605 61.5881 92.3239 62.2889 92.3239ZM73.8059 87.4375V94H72.1298V79.4545H73.8059V84.7955H73.948C74.2037 84.232 74.5872 83.7846 75.0985 83.4531C75.6146 83.117 76.3012 82.9489 77.1582 82.9489C77.9016 82.9489 78.5526 83.098 79.1113 83.3963C79.67 83.6899 80.1033 84.142 80.411 84.7528C80.7235 85.3589 80.8798 86.1307 80.8798 87.0682V94H79.2037V87.1818C79.2037 86.3153 78.9788 85.6454 78.5289 85.1719C78.0839 84.6937 77.466 84.4545 76.6752 84.4545C76.126 84.4545 75.6336 84.5705 75.198 84.8026C74.7671 85.0346 74.4262 85.3731 74.1752 85.8182C73.929 86.2633 73.8059 86.803 73.8059 87.4375ZM90.6905 83.0909V84.5114H85.0371V83.0909H90.6905ZM86.6848 80.4773H88.361V90.875C88.361 91.3485 88.4296 91.7036 88.5669 91.9403C88.709 92.1723 88.8889 92.3286 89.1067 92.4091C89.3292 92.4848 89.5636 92.5227 89.8098 92.5227C89.9945 92.5227 90.146 92.5133 90.2644 92.4943C90.3828 92.4706 90.4775 92.4517 90.5485 92.4375L90.8894 93.9432C90.7757 93.9858 90.6171 94.0284 90.4135 94.071C90.2099 94.1184 89.9519 94.142 89.6394 94.142C89.1659 94.142 88.7019 94.0402 88.2473 93.8366C87.7975 93.633 87.4235 93.3229 87.1252 92.9062C86.8316 92.4896 86.6848 91.964 86.6848 91.3295V80.4773ZM96.4334 94.1136C96.083 94.1136 95.7824 93.9882 95.5314 93.7372C95.2805 93.4863 95.155 93.1856 95.155 92.8352C95.155 92.4848 95.2805 92.1842 95.5314 91.9332C95.7824 91.6823 96.083 91.5568 96.4334 91.5568C96.7838 91.5568 97.0845 91.6823 97.3354 91.9332C97.5864 92.1842 97.7118 92.4848 97.7118 92.8352C97.7118 93.0672 97.6526 93.2803 97.5343 93.4744C97.4206 93.6686 97.2667 93.8248 97.0726 93.9432C96.8832 94.0568 96.6702 94.1136 96.4334 94.1136ZM113.214 94L109.237 79.4545H111.026L114.066 91.3011H114.208L117.305 79.4545H119.294L122.39 91.3011H122.532L125.572 79.4545H127.362L123.384 94H121.566L118.356 82.4091H118.242L115.032 94H113.214ZM134.745 94.2273C133.76 94.2273 132.896 93.9929 132.153 93.5241C131.414 93.0554 130.837 92.3996 130.42 91.5568C130.008 90.714 129.802 89.7292 129.802 88.6023C129.802 87.4659 130.008 86.474 130.42 85.6264C130.837 84.7789 131.414 84.1207 132.153 83.652C132.896 83.1832 133.76 82.9489 134.745 82.9489C135.73 82.9489 136.592 83.1832 137.33 83.652C138.074 84.1207 138.651 84.7789 139.063 85.6264C139.48 86.474 139.688 87.4659 139.688 88.6023C139.688 89.7292 139.48 90.714 139.063 91.5568C138.651 92.3996 138.074 93.0554 137.33 93.5241C136.592 93.9929 135.73 94.2273 134.745 94.2273ZM134.745 92.7216C135.493 92.7216 136.109 92.5298 136.592 92.1463C137.075 91.7628 137.432 91.2585 137.664 90.6335C137.896 90.0085 138.012 89.3314 138.012 88.6023C138.012 87.8731 137.896 87.1937 137.664 86.5639C137.432 85.9342 137.075 85.4252 136.592 85.0369C136.109 84.6487 135.493 84.4545 134.745 84.4545C133.997 84.4545 133.382 84.6487 132.899 85.0369C132.416 85.4252 132.058 85.9342 131.826 86.5639C131.594 87.1937 131.478 87.8731 131.478 88.6023C131.478 89.3314 131.594 90.0085 131.826 90.6335C132.058 91.2585 132.416 91.7628 132.899 92.1463C133.382 92.5298 133.997 92.7216 134.745 92.7216ZM145.923 87.4375V94H144.247V83.0909H145.866V84.7955H146.008C146.264 84.2415 146.652 83.7964 147.173 83.4602C147.694 83.1193 148.366 82.9489 149.19 82.9489C149.929 82.9489 150.575 83.1004 151.129 83.4034C151.683 83.7017 152.114 84.1562 152.422 84.767C152.729 85.3731 152.883 86.1402 152.883 87.0682V94H151.207V87.1818C151.207 86.3248 150.985 85.6572 150.54 85.179C150.095 84.696 149.484 84.4545 148.707 84.4545C148.172 84.4545 147.694 84.5705 147.273 84.8026C146.856 85.0346 146.527 85.3731 146.285 85.8182C146.044 86.2633 145.923 86.803 145.923 87.4375ZM162.066 94.2273C161.156 94.2273 160.354 93.9976 159.658 93.5384C158.962 93.0743 158.417 92.4209 158.024 91.5781C157.631 90.7306 157.435 89.7292 157.435 88.5739C157.435 87.428 157.631 86.4337 158.024 85.5909C158.417 84.7481 158.964 84.0971 159.665 83.6378C160.366 83.1785 161.175 82.9489 162.094 82.9489C162.804 82.9489 163.365 83.0672 163.777 83.304C164.194 83.536 164.511 83.8011 164.729 84.0994C164.951 84.393 165.124 84.6345 165.247 84.8239H165.389V79.4545H167.066V94H165.446V92.3239H165.247C165.124 92.5227 164.949 92.7737 164.722 93.0767C164.494 93.375 164.17 93.6425 163.749 93.8793C163.327 94.1113 162.766 94.2273 162.066 94.2273ZM162.293 92.7216C162.965 92.7216 163.533 92.5464 163.997 92.196C164.461 91.8409 164.814 91.3509 165.056 90.7259C165.297 90.0961 165.418 89.3693 165.418 88.5455C165.418 87.7311 165.299 87.0185 165.063 86.4077C164.826 85.7921 164.476 85.3139 164.012 84.973C163.548 84.6274 162.975 84.4545 162.293 84.4545C161.583 84.4545 160.991 84.6368 160.517 85.0014C160.048 85.3613 159.696 85.8513 159.459 86.4716C159.227 87.0871 159.111 87.7784 159.111 88.5455C159.111 89.322 159.229 90.0275 159.466 90.6619C159.708 91.2917 160.063 91.7936 160.531 92.1676C161.005 92.5369 161.592 92.7216 162.293 92.7216ZM176.942 94.2273C175.891 94.2273 174.984 93.9953 174.222 93.5312C173.464 93.0625 172.879 92.4091 172.468 91.571C172.06 90.7282 171.857 89.7481 171.857 88.6307C171.857 87.5133 172.06 86.5284 172.468 85.6761C172.879 84.8191 173.452 84.1515 174.186 83.6733C174.925 83.1903 175.787 82.9489 176.771 82.9489C177.34 82.9489 177.901 83.0436 178.455 83.233C179.009 83.4223 179.513 83.7301 179.968 84.1562C180.422 84.5777 180.784 85.1364 181.054 85.8324C181.324 86.5284 181.459 87.3854 181.459 88.4034V89.1136H173.05V87.6648H179.754C179.754 87.0492 179.631 86.5 179.385 86.017C179.144 85.5341 178.798 85.1529 178.348 84.8736C177.903 84.5942 177.378 84.4545 176.771 84.4545C176.104 84.4545 175.526 84.6203 175.039 84.9517C174.556 85.2784 174.184 85.7045 173.923 86.2301C173.663 86.7557 173.533 87.3191 173.533 87.9205V88.8864C173.533 89.7102 173.675 90.4086 173.959 90.9815C174.248 91.5497 174.648 91.983 175.159 92.2812C175.671 92.5748 176.265 92.7216 176.942 92.7216C177.382 92.7216 177.78 92.66 178.135 92.5369C178.495 92.4091 178.805 92.2197 179.066 91.9688C179.326 91.7131 179.527 91.3958 179.669 91.017L181.289 91.4716C181.118 92.0208 180.832 92.5038 180.429 92.9205C180.027 93.3324 179.53 93.6544 178.938 93.8864C178.346 94.1136 177.681 94.2273 176.942 94.2273ZM186.009 94V83.0909H187.628V84.7386H187.742C187.941 84.1989 188.3 83.7609 188.821 83.4247C189.342 83.0885 189.929 82.9205 190.583 82.9205C190.706 82.9205 190.86 82.9228 191.044 82.9276C191.229 82.9323 191.369 82.9394 191.463 82.9489V84.6534C191.406 84.6392 191.276 84.6179 191.073 84.5895C190.874 84.5563 190.663 84.5398 190.441 84.5398C189.91 84.5398 189.437 84.651 189.02 84.8736C188.608 85.0914 188.281 85.3944 188.04 85.7827C187.803 86.1662 187.685 86.6042 187.685 87.0966V94H186.009ZM195.45 94V83.0909H197.126V94H195.45ZM196.302 81.2727C195.976 81.2727 195.694 81.1615 195.457 80.9389C195.225 80.7164 195.109 80.4489 195.109 80.1364C195.109 79.8239 195.225 79.5563 195.457 79.3338C195.694 79.1113 195.976 79 196.302 79C196.629 79 196.908 79.1113 197.14 79.3338C197.377 79.5563 197.496 79.8239 197.496 80.1364C197.496 80.4489 197.377 80.7164 197.14 80.9389C196.908 81.1615 196.629 81.2727 196.302 81.2727ZM205.406 94.2557C204.715 94.2557 204.088 94.1255 203.524 93.8651C202.961 93.5999 202.513 93.2188 202.182 92.7216C201.851 92.2197 201.685 91.6136 201.685 90.9034C201.685 90.2784 201.808 89.7718 202.054 89.3835C202.3 88.9905 202.629 88.6828 203.041 88.4602C203.453 88.2377 203.908 88.072 204.405 87.9631C204.907 87.8494 205.411 87.7595 205.918 87.6932C206.581 87.608 207.118 87.544 207.53 87.5014C207.947 87.4541 208.25 87.3759 208.439 87.267C208.633 87.1581 208.73 86.9687 208.73 86.6989V86.642C208.73 85.9413 208.539 85.3968 208.155 85.0085C207.776 84.6203 207.201 84.4261 206.429 84.4261C205.629 84.4261 205.002 84.6013 204.547 84.9517C204.093 85.3021 203.773 85.6761 203.588 86.0739L201.997 85.5057C202.281 84.8428 202.66 84.3267 203.134 83.9574C203.612 83.5833 204.133 83.3229 204.696 83.1761C205.264 83.0246 205.823 82.9489 206.372 82.9489C206.723 82.9489 207.125 82.9915 207.58 83.0767C208.039 83.1572 208.482 83.3253 208.908 83.581C209.339 83.8366 209.696 84.2225 209.98 84.7386C210.264 85.2547 210.406 85.946 210.406 86.8125V94H208.73V92.5227H208.645C208.531 92.7595 208.342 93.0128 208.077 93.2827C207.812 93.5526 207.459 93.7822 207.019 93.9716C206.578 94.161 206.041 94.2557 205.406 94.2557ZM205.662 92.75C206.325 92.75 206.884 92.6198 207.338 92.3594C207.798 92.099 208.143 91.7628 208.375 91.3509C208.612 90.9389 208.73 90.5057 208.73 90.0511V88.517C208.659 88.6023 208.503 88.6804 208.262 88.7514C208.025 88.8177 207.75 88.8769 207.438 88.929C207.13 88.9763 206.829 89.0189 206.536 89.0568C206.247 89.09 206.012 89.1184 205.833 89.142C205.397 89.1989 204.99 89.2912 204.611 89.419C204.237 89.5421 203.934 89.7292 203.702 89.9801C203.475 90.2263 203.361 90.5625 203.361 90.9886C203.361 91.571 203.576 92.0114 204.007 92.3097C204.443 92.6032 204.994 92.75 205.662 92.75ZM224.767 79.4545V94H223.091V79.4545H224.767ZM229.837 94V83.0909H231.513V94H229.837ZM230.689 81.2727C230.362 81.2727 230.081 81.1615 229.844 80.9389C229.612 80.7164 229.496 80.4489 229.496 80.1364C229.496 79.8239 229.612 79.5563 229.844 79.3338C230.081 79.1113 230.362 79 230.689 79C231.016 79 231.295 79.1113 231.527 79.3338C231.764 79.5563 231.882 79.8239 231.882 80.1364C231.882 80.4489 231.764 80.7164 231.527 80.9389C231.295 81.1615 231.016 81.2727 230.689 81.2727ZM244.31 85.5341L242.805 85.9602C242.71 85.7093 242.57 85.4654 242.385 85.2287C242.206 84.9872 241.959 84.7884 241.647 84.6321C241.334 84.4759 240.934 84.3977 240.447 84.3977C239.779 84.3977 239.223 84.5516 238.778 84.8594C238.337 85.1624 238.117 85.5483 238.117 86.017C238.117 86.4337 238.269 86.7628 238.572 87.0043C238.875 87.2457 239.348 87.447 239.992 87.608L241.611 88.0057C242.587 88.2424 243.314 88.6046 243.792 89.0923C244.27 89.5753 244.509 90.1979 244.509 90.9602C244.509 91.5852 244.329 92.1439 243.969 92.6364C243.614 93.1288 243.117 93.517 242.478 93.8011C241.839 94.0852 241.095 94.2273 240.248 94.2273C239.135 94.2273 238.214 93.9858 237.485 93.5028C236.756 93.0199 236.294 92.3144 236.1 91.3864L237.691 90.9886C237.842 91.5758 238.129 92.0161 238.55 92.3097C238.976 92.6032 239.533 92.75 240.219 92.75C241.001 92.75 241.621 92.5843 242.08 92.2528C242.544 91.9167 242.776 91.5142 242.776 91.0455C242.776 90.6667 242.644 90.3494 242.378 90.0938C242.113 89.8333 241.706 89.6392 241.157 89.5114L239.339 89.0852C238.34 88.8485 237.606 88.4815 237.137 87.9844C236.673 87.4825 236.441 86.8551 236.441 86.1023C236.441 85.4867 236.614 84.9422 236.959 84.4688C237.31 83.9953 237.786 83.6236 238.387 83.3537C238.993 83.0838 239.68 82.9489 240.447 82.9489C241.526 82.9489 242.374 83.1856 242.989 83.6591C243.609 84.1326 244.05 84.7576 244.31 85.5341ZM253.776 83.0909V84.5114H248.123V83.0909H253.776ZM249.771 80.4773H251.447V90.875C251.447 91.3485 251.516 91.7036 251.653 91.9403C251.795 92.1723 251.975 92.3286 252.193 92.4091C252.415 92.4848 252.65 92.5227 252.896 92.5227C253.08 92.5227 253.232 92.5133 253.35 92.4943C253.469 92.4706 253.563 92.4517 253.634 92.4375L253.975 93.9432C253.862 93.9858 253.703 94.0284 253.499 94.071C253.296 94.1184 253.038 94.142 252.725 94.142C252.252 94.142 251.788 94.0402 251.333 93.8366C250.883 93.633 250.509 93.3229 250.211 92.9062C249.918 92.4896 249.771 91.964 249.771 91.3295V80.4773ZM262.754 94.2273C261.703 94.2273 260.797 93.9953 260.034 93.5312C259.277 93.0625 258.692 92.4091 258.28 91.571C257.873 90.7282 257.669 89.7481 257.669 88.6307C257.669 87.5133 257.873 86.5284 258.28 85.6761C258.692 84.8191 259.265 84.1515 259.999 83.6733C260.737 83.1903 261.599 82.9489 262.584 82.9489C263.152 82.9489 263.713 83.0436 264.267 83.233C264.821 83.4223 265.325 83.7301 265.78 84.1562C266.235 84.5777 266.597 85.1364 266.867 85.8324C267.137 86.5284 267.271 87.3854 267.271 88.4034V89.1136H258.862V87.6648H265.567C265.567 87.0492 265.444 86.5 265.198 86.017C264.956 85.5341 264.61 85.1529 264.161 84.8736C263.716 84.5942 263.19 84.4545 262.584 84.4545C261.916 84.4545 261.339 84.6203 260.851 84.9517C260.368 85.2784 259.996 85.7045 259.736 86.2301C259.476 86.7557 259.345 87.3191 259.345 87.9205V88.8864C259.345 89.7102 259.487 90.4086 259.771 90.9815C260.06 91.5497 260.46 91.983 260.972 92.2812C261.483 92.5748 262.077 92.7216 262.754 92.7216C263.195 92.7216 263.593 92.66 263.948 92.5369C264.307 92.4091 264.618 92.2197 264.878 91.9688C265.138 91.7131 265.34 91.3958 265.482 91.017L267.101 91.4716C266.931 92.0208 266.644 92.5038 266.242 92.9205C265.839 93.3324 265.342 93.6544 264.75 93.8864C264.158 94.1136 263.493 94.2273 262.754 94.2273ZM273.497 87.4375V94H271.821V83.0909H273.441V84.7955H273.583C273.838 84.2415 274.227 83.7964 274.747 83.4602C275.268 83.1193 275.941 82.9489 276.764 82.9489C277.503 82.9489 278.149 83.1004 278.703 83.4034C279.257 83.7017 279.688 84.1562 279.996 84.767C280.304 85.3731 280.458 86.1402 280.458 87.0682V94H278.781V87.1818C278.781 86.3248 278.559 85.6572 278.114 85.179C277.669 84.696 277.058 84.4545 276.281 84.4545C275.746 84.4545 275.268 84.5705 274.847 84.8026C274.43 85.0346 274.101 85.3731 273.86 85.8182C273.618 86.2633 273.497 86.803 273.497 87.4375ZM293.248 85.5341L291.742 85.9602C291.647 85.7093 291.508 85.4654 291.323 85.2287C291.143 84.9872 290.897 84.7884 290.584 84.6321C290.272 84.4759 289.872 84.3977 289.384 84.3977C288.716 84.3977 288.16 84.5516 287.715 84.8594C287.275 85.1624 287.055 85.5483 287.055 86.017C287.055 86.4337 287.206 86.7628 287.509 87.0043C287.812 87.2457 288.286 87.447 288.93 87.608L290.549 88.0057C291.524 88.2424 292.251 88.6046 292.729 89.0923C293.207 89.5753 293.447 90.1979 293.447 90.9602C293.447 91.5852 293.267 92.1439 292.907 92.6364C292.552 93.1288 292.055 93.517 291.415 93.8011C290.776 94.0852 290.033 94.2273 289.185 94.2273C288.073 94.2273 287.152 93.9858 286.422 93.5028C285.693 93.0199 285.232 92.3144 285.037 91.3864L286.628 90.9886C286.78 91.5758 287.066 92.0161 287.488 92.3097C287.914 92.6032 288.47 92.75 289.157 92.75C289.938 92.75 290.558 92.5843 291.018 92.2528C291.482 91.9167 291.714 91.5142 291.714 91.0455C291.714 90.6667 291.581 90.3494 291.316 90.0938C291.051 89.8333 290.644 89.6392 290.094 89.5114L288.276 89.0852C287.277 88.8485 286.543 88.4815 286.074 87.9844C285.61 87.4825 285.378 86.8551 285.378 86.1023C285.378 85.4867 285.551 84.9422 285.897 84.4688C286.247 83.9953 286.723 83.6236 287.324 83.3537C287.93 83.0838 288.617 82.9489 289.384 82.9489C290.464 82.9489 291.311 83.1856 291.927 83.6591C292.547 84.1326 292.987 84.7576 293.248 85.5341ZM308.805 94.2557C308.114 94.2557 307.486 94.1255 306.923 93.8651C306.359 93.5999 305.912 93.2188 305.58 92.7216C305.249 92.2197 305.083 91.6136 305.083 90.9034C305.083 90.2784 305.206 89.7718 305.453 89.3835C305.699 88.9905 306.028 88.6828 306.44 88.4602C306.852 88.2377 307.306 88.072 307.803 87.9631C308.305 87.8494 308.81 87.7595 309.316 87.6932C309.979 87.608 310.517 87.544 310.928 87.5014C311.345 87.4541 311.648 87.3759 311.838 87.267C312.032 87.1581 312.129 86.9687 312.129 86.6989V86.642C312.129 85.9413 311.937 85.3968 311.553 85.0085C311.175 84.6203 310.599 84.4261 309.828 84.4261C309.027 84.4261 308.4 84.6013 307.945 84.9517C307.491 85.3021 307.171 85.6761 306.987 86.0739L305.396 85.5057C305.68 84.8428 306.059 84.3267 306.532 83.9574C307.01 83.5833 307.531 83.3229 308.095 83.1761C308.663 83.0246 309.222 82.9489 309.771 82.9489C310.121 82.9489 310.524 82.9915 310.978 83.0767C311.437 83.1572 311.88 83.3253 312.306 83.581C312.737 83.8366 313.095 84.2225 313.379 84.7386C313.663 85.2547 313.805 85.946 313.805 86.8125V94H312.129V92.5227H312.044C311.93 92.7595 311.74 93.0128 311.475 93.2827C311.21 93.5526 310.857 93.7822 310.417 93.9716C309.977 94.161 309.439 94.2557 308.805 94.2557ZM309.061 92.75C309.723 92.75 310.282 92.6198 310.737 92.3594C311.196 92.099 311.542 91.7628 311.774 91.3509C312.01 90.9389 312.129 90.5057 312.129 90.0511V88.517C312.058 88.6023 311.901 88.6804 311.66 88.7514C311.423 88.8177 311.149 88.8769 310.836 88.929C310.528 88.9763 310.228 89.0189 309.934 89.0568C309.645 89.09 309.411 89.1184 309.231 89.142C308.795 89.1989 308.388 89.2912 308.009 89.419C307.635 89.5421 307.332 89.7292 307.1 89.9801C306.873 90.2263 306.759 90.5625 306.759 90.9886C306.759 91.571 306.975 92.0114 307.406 92.3097C307.841 92.6032 308.393 92.75 309.061 92.75ZM326.591 85.5341L325.086 85.9602C324.991 85.7093 324.851 85.4654 324.667 85.2287C324.487 84.9872 324.241 84.7884 323.928 84.6321C323.616 84.4759 323.215 84.3977 322.728 84.3977C322.06 84.3977 321.504 84.5516 321.059 84.8594C320.618 85.1624 320.398 85.5483 320.398 86.017C320.398 86.4337 320.55 86.7628 320.853 87.0043C321.156 87.2457 321.629 87.447 322.273 87.608L323.893 88.0057C324.868 88.2424 325.595 88.6046 326.073 89.0923C326.551 89.5753 326.79 90.1979 326.79 90.9602C326.79 91.5852 326.61 92.1439 326.251 92.6364C325.895 93.1288 325.398 93.517 324.759 93.8011C324.12 94.0852 323.376 94.2273 322.529 94.2273C321.416 94.2273 320.495 93.9858 319.766 93.5028C319.037 93.0199 318.575 92.3144 318.381 91.3864L319.972 90.9886C320.124 91.5758 320.41 92.0161 320.831 92.3097C321.258 92.6032 321.814 92.75 322.501 92.75C323.282 92.75 323.902 92.5843 324.361 92.2528C324.825 91.9167 325.057 91.5142 325.057 91.0455C325.057 90.6667 324.925 90.3494 324.66 90.0938C324.394 89.8333 323.987 89.6392 323.438 89.5114L321.62 89.0852C320.621 88.8485 319.887 88.4815 319.418 87.9844C318.954 87.4825 318.722 86.8551 318.722 86.1023C318.722 85.4867 318.895 84.9422 319.241 84.4688C319.591 83.9953 320.067 83.6236 320.668 83.3537C321.274 83.0838 321.961 82.9489 322.728 82.9489C323.807 82.9489 324.655 83.1856 325.27 83.6591C325.891 84.1326 326.331 84.7576 326.591 85.5341ZM35.9444 111.091V112.511H30.291V111.091H35.9444ZM31.9387 108.477H33.6149V118.875C33.6149 119.348 33.6835 119.704 33.8208 119.94C33.9629 120.172 34.1428 120.329 34.3606 120.409C34.5832 120.485 34.8175 120.523 35.0637 120.523C35.2484 120.523 35.3999 120.513 35.5183 120.494C35.6367 120.471 35.7314 120.452 35.8024 120.438L36.1433 121.943C36.0297 121.986 35.871 122.028 35.6674 122.071C35.4638 122.118 35.2058 122.142 34.8933 122.142C34.4198 122.142 33.9558 122.04 33.5012 121.837C33.0514 121.633 32.6774 121.323 32.3791 120.906C32.0855 120.49 31.9387 119.964 31.9387 119.33V108.477ZM42.3762 115.438V122H40.7001V107.455H42.3762V112.795H42.5183C42.774 112.232 43.1575 111.785 43.6689 111.453C44.185 111.117 44.8715 110.949 45.7285 110.949C46.4719 110.949 47.1229 111.098 47.6816 111.396C48.2404 111.69 48.6736 112.142 48.9814 112.753C49.2939 113.359 49.4501 114.131 49.4501 115.068V122H47.774V115.182C47.774 114.315 47.5491 113.645 47.0993 113.172C46.6542 112.694 46.0363 112.455 45.2456 112.455C44.6963 112.455 44.2039 112.571 43.7683 112.803C43.3374 113.035 42.9965 113.373 42.7456 113.818C42.4993 114.263 42.3762 114.803 42.3762 115.438ZM59.0904 122.227C58.0392 122.227 57.1325 121.995 56.3702 121.531C55.6126 121.062 55.0279 120.409 54.6159 119.571C54.2087 118.728 54.0051 117.748 54.0051 116.631C54.0051 115.513 54.2087 114.528 54.6159 113.676C55.0279 112.819 55.6008 112.152 56.3347 111.673C57.0733 111.19 57.9351 110.949 58.9199 110.949C59.4881 110.949 60.0492 111.044 60.6032 111.233C61.1571 111.422 61.6614 111.73 62.1159 112.156C62.5705 112.578 62.9327 113.136 63.2026 113.832C63.4725 114.528 63.6074 115.385 63.6074 116.403V117.114H55.1983V115.665H61.9029C61.9029 115.049 61.7798 114.5 61.5336 114.017C61.2921 113.534 60.9464 113.153 60.4966 112.874C60.0516 112.594 59.526 112.455 58.9199 112.455C58.2523 112.455 57.6747 112.62 57.187 112.952C56.704 113.278 56.3323 113.705 56.0719 114.23C55.8115 114.756 55.6813 115.319 55.6813 115.92V116.886C55.6813 117.71 55.8233 118.409 56.1074 118.982C56.3962 119.55 56.7963 119.983 57.3077 120.281C57.8191 120.575 58.4133 120.722 59.0904 120.722C59.5307 120.722 59.9284 120.66 60.2836 120.537C60.6434 120.409 60.9535 120.22 61.214 119.969C61.4744 119.713 61.6756 119.396 61.8176 119.017L63.437 119.472C63.2665 120.021 62.9801 120.504 62.5776 120.92C62.1751 121.332 61.678 121.654 61.0861 121.886C60.4943 122.114 59.829 122.227 59.0904 122.227ZM68.9047 126.091C68.6206 126.091 68.3672 126.067 68.1447 126.02C67.9222 125.977 67.7683 125.935 67.6831 125.892L68.1092 124.415C68.5164 124.519 68.8762 124.557 69.1887 124.528C69.5012 124.5 69.7782 124.36 70.0197 124.109C70.2659 123.863 70.4908 123.463 70.6944 122.909L71.0069 122.057L66.9728 111.091H68.791L71.8024 119.784H71.916L74.9274 111.091H76.7456L72.1149 123.591C71.9065 124.154 71.6485 124.621 71.3407 124.99C71.033 125.364 70.6755 125.641 70.2683 125.821C69.8658 126.001 69.4113 126.091 68.9047 126.091ZM88.5829 126.091V111.091H90.2022V112.824H90.4011C90.5242 112.634 90.6947 112.393 90.9125 112.099C91.135 111.801 91.4522 111.536 91.8642 111.304C92.2808 111.067 92.8443 110.949 93.5545 110.949C94.4731 110.949 95.2827 111.179 95.9835 111.638C96.6842 112.097 97.2311 112.748 97.6241 113.591C98.0171 114.434 98.2136 115.428 98.2136 116.574C98.2136 117.729 98.0171 118.731 97.6241 119.578C97.2311 120.421 96.6866 121.074 95.9906 121.538C95.2946 121.998 94.492 122.227 93.5829 122.227C92.8822 122.227 92.3211 122.111 91.8997 121.879C91.4783 121.643 91.1539 121.375 90.9267 121.077C90.6994 120.774 90.5242 120.523 90.4011 120.324H90.2591V126.091H88.5829ZM90.2306 116.545C90.2306 117.369 90.3514 118.096 90.5929 118.726C90.8343 119.351 91.1871 119.841 91.6511 120.196C92.1151 120.546 92.6833 120.722 93.3556 120.722C94.0564 120.722 94.6412 120.537 95.1099 120.168C95.5834 119.794 95.9385 119.292 96.1752 118.662C96.4167 118.027 96.5375 117.322 96.5375 116.545C96.5375 115.778 96.4191 115.087 96.1824 114.472C95.9503 113.851 95.5976 113.361 95.1241 113.001C94.6554 112.637 94.0659 112.455 93.3556 112.455C92.6738 112.455 92.1009 112.627 91.6369 112.973C91.1729 113.314 90.8225 113.792 90.5858 114.408C90.349 115.018 90.2306 115.731 90.2306 116.545ZM104.447 107.455V122H102.77V107.455H104.447ZM112.727 122.256C112.035 122.256 111.408 122.125 110.845 121.865C110.281 121.6 109.834 121.219 109.502 120.722C109.171 120.22 109.005 119.614 109.005 118.903C109.005 118.278 109.128 117.772 109.374 117.384C109.621 116.991 109.95 116.683 110.362 116.46C110.774 116.238 111.228 116.072 111.725 115.963C112.227 115.849 112.731 115.759 113.238 115.693C113.901 115.608 114.438 115.544 114.85 115.501C115.267 115.454 115.57 115.376 115.759 115.267C115.954 115.158 116.051 114.969 116.051 114.699V114.642C116.051 113.941 115.859 113.397 115.475 113.009C115.097 112.62 114.521 112.426 113.749 112.426C112.949 112.426 112.322 112.601 111.867 112.952C111.413 113.302 111.093 113.676 110.909 114.074L109.318 113.506C109.602 112.843 109.981 112.327 110.454 111.957C110.932 111.583 111.453 111.323 112.017 111.176C112.585 111.025 113.143 110.949 113.693 110.949C114.043 110.949 114.445 110.991 114.9 111.077C115.359 111.157 115.802 111.325 116.228 111.581C116.659 111.837 117.017 112.223 117.301 112.739C117.585 113.255 117.727 113.946 117.727 114.812V122H116.051V120.523H115.965C115.852 120.759 115.662 121.013 115.397 121.283C115.132 121.553 114.779 121.782 114.339 121.972C113.899 122.161 113.361 122.256 112.727 122.256ZM112.982 120.75C113.645 120.75 114.204 120.62 114.659 120.359C115.118 120.099 115.463 119.763 115.695 119.351C115.932 118.939 116.051 118.506 116.051 118.051V116.517C115.98 116.602 115.823 116.68 115.582 116.751C115.345 116.818 115.07 116.877 114.758 116.929C114.45 116.976 114.15 117.019 113.856 117.057C113.567 117.09 113.333 117.118 113.153 117.142C112.717 117.199 112.31 117.291 111.931 117.419C111.557 117.542 111.254 117.729 111.022 117.98C110.795 118.226 110.681 118.562 110.681 118.989C110.681 119.571 110.897 120.011 111.328 120.31C111.763 120.603 112.315 120.75 112.982 120.75ZM123.475 126.091C123.191 126.091 122.938 126.067 122.715 126.02C122.492 125.977 122.339 125.935 122.253 125.892L122.68 124.415C123.087 124.519 123.447 124.557 123.759 124.528C124.072 124.5 124.349 124.36 124.59 124.109C124.836 123.863 125.061 123.463 125.265 122.909L125.577 122.057L121.543 111.091H123.361L126.373 119.784H126.486L129.498 111.091H131.316L126.685 123.591C126.477 124.154 126.219 124.621 125.911 124.99C125.603 125.364 125.246 125.641 124.839 125.821C124.436 126.001 123.982 126.091 123.475 126.091ZM137.345 120.011L137.231 120.778C137.151 121.318 137.027 121.896 136.862 122.511C136.701 123.127 136.533 123.707 136.357 124.251C136.182 124.796 136.038 125.229 135.924 125.551H134.646C134.707 125.248 134.788 124.848 134.887 124.351C134.987 123.854 135.086 123.297 135.186 122.682C135.29 122.071 135.375 121.446 135.441 120.807L135.526 120.011H137.345ZM150.075 126.091V111.091H151.694V112.824H151.893C152.016 112.634 152.187 112.393 152.405 112.099C152.627 111.801 152.944 111.536 153.356 111.304C153.773 111.067 154.336 110.949 155.047 110.949C155.965 110.949 156.775 111.179 157.476 111.638C158.176 112.097 158.723 112.748 159.116 113.591C159.509 114.434 159.706 115.428 159.706 116.574C159.706 117.729 159.509 118.731 159.116 119.578C158.723 120.421 158.179 121.074 157.483 121.538C156.787 121.998 155.984 122.227 155.075 122.227C154.374 122.227 153.813 122.111 153.392 121.879C152.97 121.643 152.646 121.375 152.419 121.077C152.192 120.774 152.016 120.523 151.893 120.324H151.751V126.091H150.075ZM151.723 116.545C151.723 117.369 151.844 118.096 152.085 118.726C152.327 119.351 152.679 119.841 153.143 120.196C153.607 120.546 154.175 120.722 154.848 120.722C155.549 120.722 156.133 120.537 156.602 120.168C157.076 119.794 157.431 119.292 157.667 118.662C157.909 118.027 158.03 117.322 158.03 116.545C158.03 115.778 157.911 115.087 157.675 114.472C157.443 113.851 157.09 113.361 156.616 113.001C156.148 112.637 155.558 112.455 154.848 112.455C154.166 112.455 153.593 112.627 153.129 112.973C152.665 113.314 152.315 113.792 152.078 114.408C151.841 115.018 151.723 115.731 151.723 116.545ZM164.263 122V111.091H165.882V112.739H165.996C166.194 112.199 166.554 111.761 167.075 111.425C167.596 111.089 168.183 110.92 168.836 110.92C168.96 110.92 169.113 110.923 169.298 110.928C169.483 110.932 169.622 110.939 169.717 110.949V112.653C169.66 112.639 169.53 112.618 169.327 112.589C169.128 112.556 168.917 112.54 168.694 112.54C168.164 112.54 167.691 112.651 167.274 112.874C166.862 113.091 166.535 113.394 166.294 113.783C166.057 114.166 165.939 114.604 165.939 115.097V122H164.263ZM177.804 122.227C176.819 122.227 175.955 121.993 175.211 121.524C174.473 121.055 173.895 120.4 173.479 119.557C173.067 118.714 172.861 117.729 172.861 116.602C172.861 115.466 173.067 114.474 173.479 113.626C173.895 112.779 174.473 112.121 175.211 111.652C175.955 111.183 176.819 110.949 177.804 110.949C178.789 110.949 179.65 111.183 180.389 111.652C181.132 112.121 181.71 112.779 182.122 113.626C182.539 114.474 182.747 115.466 182.747 116.602C182.747 117.729 182.539 118.714 182.122 119.557C181.71 120.4 181.132 121.055 180.389 121.524C179.65 121.993 178.789 122.227 177.804 122.227ZM177.804 120.722C178.552 120.722 179.167 120.53 179.65 120.146C180.133 119.763 180.491 119.259 180.723 118.634C180.955 118.009 181.071 117.331 181.071 116.602C181.071 115.873 180.955 115.194 180.723 114.564C180.491 113.934 180.133 113.425 179.65 113.037C179.167 112.649 178.552 112.455 177.804 112.455C177.056 112.455 176.44 112.649 175.957 113.037C175.474 113.425 175.117 113.934 174.885 114.564C174.653 115.194 174.537 115.873 174.537 116.602C174.537 117.331 174.653 118.009 174.885 118.634C175.117 119.259 175.474 119.763 175.957 120.146C176.44 120.53 177.056 120.722 177.804 120.722ZM195.835 111.091L191.801 122H190.097L186.063 111.091H187.881L190.892 119.784H191.006L194.017 111.091H195.835ZM200.048 122V111.091H201.724V122H200.048ZM200.9 109.273C200.573 109.273 200.292 109.161 200.055 108.939C199.823 108.716 199.707 108.449 199.707 108.136C199.707 107.824 199.823 107.556 200.055 107.334C200.292 107.111 200.573 107 200.9 107C201.227 107 201.506 107.111 201.738 107.334C201.975 107.556 202.093 107.824 202.093 108.136C202.093 108.449 201.975 108.716 201.738 108.939C201.506 109.161 201.227 109.273 200.9 109.273ZM210.913 122.227C210.004 122.227 209.202 121.998 208.506 121.538C207.809 121.074 207.265 120.421 206.872 119.578C206.479 118.731 206.282 117.729 206.282 116.574C206.282 115.428 206.479 114.434 206.872 113.591C207.265 112.748 207.812 112.097 208.513 111.638C209.213 111.179 210.023 110.949 210.942 110.949C211.652 110.949 212.213 111.067 212.625 111.304C213.041 111.536 213.359 111.801 213.577 112.099C213.799 112.393 213.972 112.634 214.095 112.824H214.237V107.455H215.913V122H214.294V120.324H214.095C213.972 120.523 213.797 120.774 213.569 121.077C213.342 121.375 213.018 121.643 212.596 121.879C212.175 122.111 211.614 122.227 210.913 122.227ZM211.14 120.722C211.813 120.722 212.381 120.546 212.845 120.196C213.309 119.841 213.662 119.351 213.903 118.726C214.145 118.096 214.265 117.369 214.265 116.545C214.265 115.731 214.147 115.018 213.91 114.408C213.674 113.792 213.323 113.314 212.859 112.973C212.395 112.627 211.822 112.455 211.14 112.455C210.43 112.455 209.838 112.637 209.365 113.001C208.896 113.361 208.543 113.851 208.307 114.472C208.075 115.087 207.959 115.778 207.959 116.545C207.959 117.322 208.077 118.027 208.314 118.662C208.555 119.292 208.91 119.794 209.379 120.168C209.853 120.537 210.44 120.722 211.14 120.722ZM221.216 122V111.091H222.892V122H221.216ZM222.068 109.273C221.741 109.273 221.46 109.161 221.223 108.939C220.991 108.716 220.875 108.449 220.875 108.136C220.875 107.824 220.991 107.556 221.223 107.334C221.46 107.111 221.741 107 222.068 107C222.395 107 222.674 107.111 222.906 107.334C223.143 107.556 223.261 107.824 223.261 108.136C223.261 108.449 223.143 108.716 222.906 108.939C222.674 109.161 222.395 109.273 222.068 109.273ZM229.638 115.438V122H227.962V111.091H229.581V112.795H229.723C229.979 112.241 230.367 111.796 230.888 111.46C231.409 111.119 232.081 110.949 232.905 110.949C233.644 110.949 234.29 111.1 234.844 111.403C235.398 111.702 235.829 112.156 236.137 112.767C236.444 113.373 236.598 114.14 236.598 115.068V122H234.922V115.182C234.922 114.325 234.7 113.657 234.254 113.179C233.809 112.696 233.199 112.455 232.422 112.455C231.887 112.455 231.409 112.571 230.987 112.803C230.571 113.035 230.242 113.373 230 113.818C229.759 114.263 229.638 114.803 229.638 115.438ZM246.064 126.318C245.255 126.318 244.559 126.214 243.976 126.006C243.394 125.802 242.909 125.532 242.52 125.196C242.137 124.865 241.831 124.509 241.604 124.131L242.939 123.193C243.091 123.392 243.283 123.619 243.515 123.875C243.747 124.135 244.064 124.36 244.466 124.55C244.874 124.744 245.406 124.841 246.064 124.841C246.945 124.841 247.672 124.628 248.245 124.202C248.818 123.776 249.104 123.108 249.104 122.199V119.983H248.962C248.839 120.182 248.664 120.428 248.437 120.722C248.214 121.01 247.892 121.268 247.471 121.496C247.054 121.718 246.491 121.83 245.78 121.83C244.9 121.83 244.109 121.621 243.408 121.205C242.712 120.788 242.161 120.182 241.753 119.386C241.351 118.591 241.15 117.625 241.15 116.489C241.15 115.371 241.346 114.398 241.739 113.57C242.132 112.736 242.679 112.092 243.38 111.638C244.081 111.179 244.89 110.949 245.809 110.949C246.519 110.949 247.082 111.067 247.499 111.304C247.921 111.536 248.242 111.801 248.465 112.099C248.692 112.393 248.867 112.634 248.991 112.824H249.161V111.091H250.78V122.312C250.78 123.25 250.567 124.012 250.141 124.599C249.72 125.191 249.152 125.625 248.437 125.899C247.726 126.179 246.936 126.318 246.064 126.318ZM246.008 120.324C246.68 120.324 247.248 120.17 247.712 119.862C248.176 119.554 248.529 119.112 248.77 118.534C249.012 117.956 249.133 117.265 249.133 116.46C249.133 115.674 249.014 114.981 248.778 114.379C248.541 113.778 248.19 113.307 247.726 112.966C247.262 112.625 246.689 112.455 246.008 112.455C245.297 112.455 244.706 112.634 244.232 112.994C243.763 113.354 243.411 113.837 243.174 114.443C242.942 115.049 242.826 115.722 242.826 116.46C242.826 117.218 242.944 117.888 243.181 118.47C243.422 119.048 243.778 119.502 244.246 119.834C244.72 120.161 245.307 120.324 246.008 120.324ZM263.474 122V111.091H265.15V122H263.474ZM264.326 109.273C263.999 109.273 263.717 109.161 263.481 108.939C263.249 108.716 263.133 108.449 263.133 108.136C263.133 107.824 263.249 107.556 263.481 107.334C263.717 107.111 263.999 107 264.326 107C264.653 107 264.932 107.111 265.164 107.334C265.401 107.556 265.519 107.824 265.519 108.136C265.519 108.449 265.401 108.716 265.164 108.939C264.932 109.161 264.653 109.273 264.326 109.273ZM271.896 115.438V122H270.22V111.091H271.839V112.795H271.981C272.237 112.241 272.625 111.796 273.146 111.46C273.667 111.119 274.339 110.949 275.163 110.949C275.901 110.949 276.548 111.1 277.102 111.403C277.656 111.702 278.087 112.156 278.394 112.767C278.702 113.373 278.856 114.14 278.856 115.068V122H277.18V115.182C277.18 114.325 276.957 113.657 276.512 113.179C276.067 112.696 275.456 112.455 274.68 112.455C274.145 112.455 273.667 112.571 273.245 112.803C272.829 113.035 272.499 113.373 272.258 113.818C272.017 114.263 271.896 114.803 271.896 115.438ZM291.646 113.534L290.14 113.96C290.046 113.709 289.906 113.465 289.721 113.229C289.541 112.987 289.295 112.788 288.983 112.632C288.67 112.476 288.27 112.398 287.782 112.398C287.115 112.398 286.559 112.552 286.113 112.859C285.673 113.162 285.453 113.548 285.453 114.017C285.453 114.434 285.604 114.763 285.907 115.004C286.211 115.246 286.684 115.447 287.328 115.608L288.947 116.006C289.923 116.242 290.649 116.605 291.128 117.092C291.606 117.575 291.845 118.198 291.845 118.96C291.845 119.585 291.665 120.144 291.305 120.636C290.95 121.129 290.453 121.517 289.814 121.801C289.175 122.085 288.431 122.227 287.584 122.227C286.471 122.227 285.55 121.986 284.821 121.503C284.092 121.02 283.63 120.314 283.436 119.386L285.027 118.989C285.178 119.576 285.465 120.016 285.886 120.31C286.312 120.603 286.869 120.75 287.555 120.75C288.336 120.75 288.957 120.584 289.416 120.253C289.88 119.917 290.112 119.514 290.112 119.045C290.112 118.667 289.979 118.349 289.714 118.094C289.449 117.833 289.042 117.639 288.493 117.511L286.675 117.085C285.675 116.848 284.942 116.482 284.473 115.984C284.009 115.482 283.777 114.855 283.777 114.102C283.777 113.487 283.95 112.942 284.295 112.469C284.646 111.995 285.122 111.624 285.723 111.354C286.329 111.084 287.015 110.949 287.782 110.949C288.862 110.949 289.71 111.186 290.325 111.659C290.945 112.133 291.386 112.758 291.646 113.534ZM301.112 111.091V112.511H295.459V111.091H301.112ZM297.107 108.477H298.783V118.875C298.783 119.348 298.852 119.704 298.989 119.94C299.131 120.172 299.311 120.329 299.529 120.409C299.751 120.485 299.985 120.523 300.232 120.523C300.416 120.523 300.568 120.513 300.686 120.494C300.805 120.471 300.899 120.452 300.97 120.438L301.311 121.943C301.198 121.986 301.039 122.028 300.835 122.071C300.632 122.118 300.374 122.142 300.061 122.142C299.588 122.142 299.124 122.04 298.669 121.837C298.219 121.633 297.845 121.323 297.547 120.906C297.253 120.49 297.107 119.964 297.107 119.33V108.477ZM308.844 122.256C308.153 122.256 307.525 122.125 306.962 121.865C306.398 121.6 305.951 121.219 305.619 120.722C305.288 120.22 305.122 119.614 305.122 118.903C305.122 118.278 305.245 117.772 305.492 117.384C305.738 116.991 306.067 116.683 306.479 116.46C306.891 116.238 307.345 116.072 307.843 115.963C308.344 115.849 308.849 115.759 309.355 115.693C310.018 115.608 310.556 115.544 310.968 115.501C311.384 115.454 311.687 115.376 311.877 115.267C312.071 115.158 312.168 114.969 312.168 114.699V114.642C312.168 113.941 311.976 113.397 311.593 113.009C311.214 112.62 310.638 112.426 309.867 112.426C309.066 112.426 308.439 112.601 307.985 112.952C307.53 113.302 307.21 113.676 307.026 114.074L305.435 113.506C305.719 112.843 306.098 112.327 306.571 111.957C307.049 111.583 307.57 111.323 308.134 111.176C308.702 111.025 309.261 110.949 309.81 110.949C310.16 110.949 310.563 110.991 311.017 111.077C311.477 111.157 311.919 111.325 312.345 111.581C312.776 111.837 313.134 112.223 313.418 112.739C313.702 113.255 313.844 113.946 313.844 114.812V122H312.168V120.523H312.083C311.969 120.759 311.78 121.013 311.514 121.283C311.249 121.553 310.896 121.782 310.456 121.972C310.016 122.161 309.478 122.256 308.844 122.256ZM309.1 120.75C309.762 120.75 310.321 120.62 310.776 120.359C311.235 120.099 311.581 119.763 311.813 119.351C312.049 118.939 312.168 118.506 312.168 118.051V116.517C312.097 116.602 311.941 116.68 311.699 116.751C311.462 116.818 311.188 116.877 310.875 116.929C310.567 116.976 310.267 117.019 309.973 117.057C309.684 117.09 309.45 117.118 309.27 117.142C308.834 117.199 308.427 117.291 308.048 117.419C307.674 117.542 307.371 117.729 307.139 117.98C306.912 118.226 306.798 118.562 306.798 118.989C306.798 119.571 307.014 120.011 307.445 120.31C307.88 120.603 308.432 120.75 309.1 120.75ZM320.579 115.438V122H318.903V111.091H320.523V112.795H320.665C320.92 112.241 321.309 111.796 321.829 111.46C322.35 111.119 323.023 110.949 323.846 110.949C324.585 110.949 325.231 111.1 325.785 111.403C326.339 111.702 326.77 112.156 327.078 112.767C327.386 113.373 327.54 114.14 327.54 115.068V122H325.863V115.182C325.863 114.325 325.641 113.657 325.196 113.179C324.751 112.696 324.14 112.455 323.363 112.455C322.828 112.455 322.35 112.571 321.929 112.803C321.512 113.035 321.183 113.373 320.942 113.818C320.7 114.263 320.579 114.803 320.579 115.438ZM337.347 111.091V112.511H331.693V111.091H337.347ZM333.341 108.477H335.017V118.875C335.017 119.348 335.086 119.704 335.223 119.94C335.365 120.172 335.545 120.329 335.763 120.409C335.985 120.485 336.22 120.523 336.466 120.523C336.651 120.523 336.802 120.513 336.921 120.494C337.039 120.471 337.134 120.452 337.205 120.438L337.546 121.943C337.432 121.986 337.273 122.028 337.07 122.071C336.866 122.118 336.608 122.142 336.296 122.142C335.822 122.142 335.358 122.04 334.904 121.837C334.454 121.633 334.08 121.323 333.781 120.906C333.488 120.49 333.341 119.964 333.341 119.33V108.477ZM75.5312 154.318C74.7216 154.318 74.0256 154.214 73.4432 154.006C72.8608 153.802 72.3755 153.532 71.9872 153.196C71.6037 152.865 71.2983 152.509 71.071 152.131L72.4062 151.193C72.5578 151.392 72.7495 151.619 72.9815 151.875C73.2135 152.135 73.5308 152.36 73.9332 152.55C74.3404 152.744 74.8731 152.841 75.5312 152.841C76.4119 152.841 77.1387 152.628 77.7116 152.202C78.2846 151.776 78.571 151.108 78.571 150.199V147.983H78.429C78.3059 148.182 78.1307 148.428 77.9034 148.722C77.6809 149.01 77.3589 149.268 76.9375 149.496C76.5208 149.718 75.9574 149.83 75.2472 149.83C74.3665 149.83 73.5758 149.621 72.875 149.205C72.179 148.788 71.6274 148.182 71.2202 147.386C70.8177 146.591 70.6165 145.625 70.6165 144.489C70.6165 143.371 70.813 142.398 71.206 141.57C71.599 140.736 72.1458 140.092 72.8466 139.638C73.5473 139.179 74.357 138.949 75.2756 138.949C75.9858 138.949 76.5492 139.067 76.9659 139.304C77.3873 139.536 77.7093 139.801 77.9318 140.099C78.1591 140.393 78.3343 140.634 78.4574 140.824H78.6278V139.091H80.2472V150.312C80.2472 151.25 80.0341 152.012 79.608 152.599C79.1866 153.191 78.6184 153.625 77.9034 153.899C77.1932 154.179 76.4025 154.318 75.5312 154.318ZM75.4744 148.324C76.1468 148.324 76.715 148.17 77.179 147.862C77.643 147.554 77.9957 147.112 78.2372 146.534C78.4787 145.956 78.5994 145.265 78.5994 144.46C78.5994 143.674 78.4811 142.981 78.2443 142.379C78.0076 141.778 77.6572 141.307 77.1932 140.966C76.7292 140.625 76.1563 140.455 75.4744 140.455C74.7642 140.455 74.1723 140.634 73.6989 140.994C73.2301 141.354 72.8774 141.837 72.6406 142.443C72.4086 143.049 72.2926 143.722 72.2926 144.46C72.2926 145.218 72.411 145.888 72.6477 146.47C72.8892 147.048 73.2443 147.502 73.7131 147.834C74.1866 148.161 74.7737 148.324 75.4744 148.324ZM92.1903 145.54V139.091H93.8665V150H92.1903V148.153H92.0767C91.821 148.707 91.4233 149.179 90.8835 149.567C90.3438 149.95 89.6619 150.142 88.8381 150.142C88.1562 150.142 87.5502 149.993 87.0199 149.695C86.4896 149.392 86.0729 148.937 85.7699 148.331C85.4669 147.72 85.3153 146.951 85.3153 146.023V139.091H86.9915V145.909C86.9915 146.705 87.214 147.339 87.6591 147.812C88.1089 148.286 88.6818 148.523 89.3778 148.523C89.7945 148.523 90.2183 148.416 90.6491 148.203C91.0848 147.99 91.4493 147.663 91.7429 147.223C92.0412 146.783 92.1903 146.222 92.1903 145.54ZM98.9364 150V139.091H100.613V150H98.9364ZM99.7887 137.273C99.462 137.273 99.1803 137.161 98.9435 136.939C98.7115 136.716 98.5955 136.449 98.5955 136.136C98.5955 135.824 98.7115 135.556 98.9435 135.334C99.1803 135.111 99.462 135 99.7887 135C100.115 135 100.395 135.111 100.627 135.334C100.864 135.556 100.982 135.824 100.982 136.136C100.982 136.449 100.864 136.716 100.627 136.939C100.395 137.161 100.115 137.273 99.7887 137.273ZM109.802 150.227C108.893 150.227 108.09 149.998 107.394 149.538C106.698 149.074 106.154 148.421 105.761 147.578C105.368 146.731 105.171 145.729 105.171 144.574C105.171 143.428 105.368 142.434 105.761 141.591C106.154 140.748 106.701 140.097 107.401 139.638C108.102 139.179 108.912 138.949 109.83 138.949C110.54 138.949 111.102 139.067 111.513 139.304C111.93 139.536 112.247 139.801 112.465 140.099C112.688 140.393 112.861 140.634 112.984 140.824H113.126V135.455H114.802V150H113.183V148.324H112.984C112.861 148.523 112.685 148.774 112.458 149.077C112.231 149.375 111.906 149.643 111.485 149.879C111.064 150.111 110.503 150.227 109.802 150.227ZM110.029 148.722C110.701 148.722 111.27 148.546 111.734 148.196C112.198 147.841 112.55 147.351 112.792 146.726C113.033 146.096 113.154 145.369 113.154 144.545C113.154 143.731 113.036 143.018 112.799 142.408C112.562 141.792 112.212 141.314 111.748 140.973C111.284 140.627 110.711 140.455 110.029 140.455C109.319 140.455 108.727 140.637 108.254 141.001C107.785 141.361 107.432 141.851 107.195 142.472C106.963 143.087 106.847 143.778 106.847 144.545C106.847 145.322 106.966 146.027 107.202 146.662C107.444 147.292 107.799 147.794 108.268 148.168C108.741 148.537 109.328 148.722 110.029 148.722ZM123.315 150.256C122.623 150.256 121.996 150.125 121.433 149.865C120.869 149.6 120.422 149.219 120.09 148.722C119.759 148.22 119.593 147.614 119.593 146.903C119.593 146.278 119.716 145.772 119.962 145.384C120.209 144.991 120.538 144.683 120.95 144.46C121.362 144.238 121.816 144.072 122.313 143.963C122.815 143.849 123.319 143.759 123.826 143.693C124.489 143.608 125.026 143.544 125.438 143.501C125.855 143.454 126.158 143.376 126.347 143.267C126.541 143.158 126.638 142.969 126.638 142.699V142.642C126.638 141.941 126.447 141.397 126.063 141.009C125.684 140.62 125.109 140.426 124.337 140.426C123.537 140.426 122.91 140.601 122.455 140.952C122.001 141.302 121.681 141.676 121.496 142.074L119.906 141.506C120.19 140.843 120.568 140.327 121.042 139.957C121.52 139.583 122.041 139.323 122.604 139.176C123.173 139.025 123.731 138.949 124.281 138.949C124.631 138.949 125.033 138.991 125.488 139.077C125.947 139.157 126.39 139.325 126.816 139.581C127.247 139.837 127.604 140.223 127.888 140.739C128.173 141.255 128.315 141.946 128.315 142.812V150H126.638V148.523H126.553C126.44 148.759 126.25 149.013 125.985 149.283C125.72 149.553 125.367 149.782 124.927 149.972C124.487 150.161 123.949 150.256 123.315 150.256ZM123.57 148.75C124.233 148.75 124.792 148.62 125.246 148.359C125.706 148.099 126.051 147.763 126.283 147.351C126.52 146.939 126.638 146.506 126.638 146.051V144.517C126.567 144.602 126.411 144.68 126.17 144.751C125.933 144.818 125.658 144.877 125.346 144.929C125.038 144.976 124.737 145.019 124.444 145.057C124.155 145.09 123.921 145.118 123.741 145.142C123.305 145.199 122.898 145.291 122.519 145.419C122.145 145.542 121.842 145.729 121.61 145.98C121.383 146.226 121.269 146.562 121.269 146.989C121.269 147.571 121.485 148.011 121.915 148.31C122.351 148.603 122.903 148.75 123.57 148.75ZM135.05 143.438V150H133.374V139.091H134.993V140.795H135.135C135.391 140.241 135.779 139.796 136.3 139.46C136.821 139.119 137.493 138.949 138.317 138.949C139.056 138.949 139.702 139.1 140.256 139.403C140.81 139.702 141.241 140.156 141.549 140.767C141.856 141.373 142.01 142.14 142.01 143.068V150H140.334V143.182C140.334 142.325 140.112 141.657 139.667 141.179C139.221 140.696 138.611 140.455 137.834 140.455C137.299 140.455 136.821 140.571 136.4 140.803C135.983 141.035 135.654 141.373 135.412 141.818C135.171 142.263 135.05 142.803 135.05 143.438ZM151.505 150.227C150.482 150.227 149.602 149.986 148.863 149.503C148.124 149.02 147.556 148.355 147.158 147.507C146.761 146.66 146.562 145.691 146.562 144.602C146.562 143.494 146.765 142.517 147.173 141.669C147.585 140.817 148.157 140.152 148.891 139.673C149.63 139.19 150.492 138.949 151.477 138.949C152.244 138.949 152.935 139.091 153.55 139.375C154.166 139.659 154.67 140.057 155.063 140.568C155.456 141.08 155.7 141.676 155.795 142.358H154.119C153.991 141.861 153.707 141.42 153.266 141.037C152.831 140.649 152.244 140.455 151.505 140.455C150.852 140.455 150.279 140.625 149.786 140.966C149.299 141.302 148.917 141.778 148.643 142.393C148.373 143.004 148.238 143.722 148.238 144.545C148.238 145.388 148.371 146.122 148.636 146.747C148.906 147.372 149.284 147.857 149.772 148.203C150.264 148.549 150.842 148.722 151.505 148.722C151.941 148.722 152.336 148.646 152.691 148.494C153.046 148.343 153.347 148.125 153.593 147.841C153.839 147.557 154.014 147.216 154.119 146.818H155.795C155.7 147.462 155.466 148.042 155.092 148.558C154.722 149.07 154.232 149.477 153.621 149.78C153.015 150.078 152.31 150.227 151.505 150.227ZM164.819 150.227C163.768 150.227 162.861 149.995 162.099 149.531C161.341 149.062 160.756 148.409 160.344 147.571C159.937 146.728 159.734 145.748 159.734 144.631C159.734 143.513 159.937 142.528 160.344 141.676C160.756 140.819 161.329 140.152 162.063 139.673C162.802 139.19 163.664 138.949 164.648 138.949C165.217 138.949 165.778 139.044 166.332 139.233C166.886 139.422 167.39 139.73 167.844 140.156C168.299 140.578 168.661 141.136 168.931 141.832C169.201 142.528 169.336 143.385 169.336 144.403V145.114H160.927V143.665H167.631C167.631 143.049 167.508 142.5 167.262 142.017C167.021 141.534 166.675 141.153 166.225 140.874C165.78 140.594 165.254 140.455 164.648 140.455C163.981 140.455 163.403 140.62 162.915 140.952C162.433 141.278 162.061 141.705 161.8 142.23C161.54 142.756 161.41 143.319 161.41 143.92V144.886C161.41 145.71 161.552 146.409 161.836 146.982C162.125 147.55 162.525 147.983 163.036 148.281C163.548 148.575 164.142 148.722 164.819 148.722C165.259 148.722 165.657 148.66 166.012 148.537C166.372 148.409 166.682 148.22 166.942 147.969C167.203 147.713 167.404 147.396 167.546 147.017L169.165 147.472C168.995 148.021 168.709 148.504 168.306 148.92C167.904 149.332 167.406 149.654 166.815 149.886C166.223 150.114 165.558 150.227 164.819 150.227ZM184.721 150.256C184.03 150.256 183.402 150.125 182.839 149.865C182.275 149.6 181.828 149.219 181.496 148.722C181.165 148.22 180.999 147.614 180.999 146.903C180.999 146.278 181.122 145.772 181.369 145.384C181.615 144.991 181.944 144.683 182.356 144.46C182.768 144.238 183.222 144.072 183.719 143.963C184.221 143.849 184.726 143.759 185.232 143.693C185.895 143.608 186.433 143.544 186.844 143.501C187.261 143.454 187.564 143.376 187.754 143.267C187.948 143.158 188.045 142.969 188.045 142.699V142.642C188.045 141.941 187.853 141.397 187.469 141.009C187.091 140.62 186.515 140.426 185.744 140.426C184.943 140.426 184.316 140.601 183.862 140.952C183.407 141.302 183.087 141.676 182.903 142.074L181.312 141.506C181.596 140.843 181.975 140.327 182.448 139.957C182.926 139.583 183.447 139.323 184.011 139.176C184.579 139.025 185.138 138.949 185.687 138.949C186.037 138.949 186.44 138.991 186.894 139.077C187.353 139.157 187.796 139.325 188.222 139.581C188.653 139.837 189.011 140.223 189.295 140.739C189.579 141.255 189.721 141.946 189.721 142.812V150H188.045V148.523H187.96C187.846 148.759 187.656 149.013 187.391 149.283C187.126 149.553 186.773 149.782 186.333 149.972C185.893 150.161 185.355 150.256 184.721 150.256ZM184.977 148.75C185.639 148.75 186.198 148.62 186.653 148.359C187.112 148.099 187.458 147.763 187.69 147.351C187.926 146.939 188.045 146.506 188.045 146.051V144.517C187.974 144.602 187.817 144.68 187.576 144.751C187.339 144.818 187.065 144.877 186.752 144.929C186.444 144.976 186.144 145.019 185.85 145.057C185.561 145.09 185.327 145.118 185.147 145.142C184.711 145.199 184.304 145.291 183.925 145.419C183.551 145.542 183.248 145.729 183.016 145.98C182.789 146.226 182.675 146.562 182.675 146.989C182.675 147.571 182.891 148.011 183.322 148.31C183.757 148.603 184.309 148.75 184.977 148.75ZM196.456 143.438V150H194.78V139.091H196.4V140.795H196.542C196.797 140.241 197.185 139.796 197.706 139.46C198.227 139.119 198.9 138.949 199.723 138.949C200.462 138.949 201.108 139.1 201.662 139.403C202.216 139.702 202.647 140.156 202.955 140.767C203.263 141.373 203.417 142.14 203.417 143.068V150H201.74V143.182C201.74 142.325 201.518 141.657 201.073 141.179C200.628 140.696 200.017 140.455 199.24 140.455C198.705 140.455 198.227 140.571 197.806 140.803C197.389 141.035 197.06 141.373 196.819 141.818C196.577 142.263 196.456 142.803 196.456 143.438ZM212.599 150.227C211.69 150.227 210.887 149.998 210.191 149.538C209.495 149.074 208.951 148.421 208.558 147.578C208.165 146.731 207.968 145.729 207.968 144.574C207.968 143.428 208.165 142.434 208.558 141.591C208.951 140.748 209.497 140.097 210.198 139.638C210.899 139.179 211.709 138.949 212.627 138.949C213.337 138.949 213.898 139.067 214.31 139.304C214.727 139.536 215.044 139.801 215.262 140.099C215.485 140.393 215.657 140.634 215.781 140.824H215.923V135.455H217.599V150H215.979V148.324H215.781C215.657 148.523 215.482 148.774 215.255 149.077C215.028 149.375 214.703 149.643 214.282 149.879C213.861 150.111 213.299 150.227 212.599 150.227ZM212.826 148.722C213.498 148.722 214.067 148.546 214.531 148.196C214.995 147.841 215.347 147.351 215.589 146.726C215.83 146.096 215.951 145.369 215.951 144.545C215.951 143.731 215.833 143.018 215.596 142.408C215.359 141.792 215.009 141.314 214.545 140.973C214.081 140.627 213.508 140.455 212.826 140.455C212.116 140.455 211.524 140.637 211.05 141.001C210.582 141.361 210.229 141.851 209.992 142.472C209.76 143.087 209.644 143.778 209.644 144.545C209.644 145.322 209.763 146.027 209.999 146.662C210.241 147.292 210.596 147.794 211.065 148.168C211.538 148.537 212.125 148.722 212.826 148.722ZM234.93 154.318C234.12 154.318 233.424 154.214 232.842 154.006C232.259 153.802 231.774 153.532 231.386 153.196C231.002 152.865 230.697 152.509 230.469 152.131L231.805 151.193C231.956 151.392 232.148 151.619 232.38 151.875C232.612 152.135 232.929 152.36 233.332 152.55C233.739 152.744 234.272 152.841 234.93 152.841C235.81 152.841 236.537 152.628 237.11 152.202C237.683 151.776 237.969 151.108 237.969 150.199V147.983H237.827C237.704 148.182 237.529 148.428 237.302 148.722C237.079 149.01 236.757 149.268 236.336 149.496C235.919 149.718 235.356 149.83 234.646 149.83C233.765 149.83 232.974 149.621 232.273 149.205C231.577 148.788 231.026 148.182 230.619 147.386C230.216 146.591 230.015 145.625 230.015 144.489C230.015 143.371 230.211 142.398 230.604 141.57C230.997 140.736 231.544 140.092 232.245 139.638C232.946 139.179 233.755 138.949 234.674 138.949C235.384 138.949 235.948 139.067 236.364 139.304C236.786 139.536 237.108 139.801 237.33 140.099C237.558 140.393 237.733 140.634 237.856 140.824H238.026V139.091H239.646V150.312C239.646 151.25 239.433 152.012 239.006 152.599C238.585 153.191 238.017 153.625 237.302 153.899C236.592 154.179 235.801 154.318 234.93 154.318ZM234.873 148.324C235.545 148.324 236.113 148.17 236.577 147.862C237.041 147.554 237.394 147.112 237.636 146.534C237.877 145.956 237.998 145.265 237.998 144.46C237.998 143.674 237.879 142.981 237.643 142.379C237.406 141.778 237.056 141.307 236.592 140.966C236.128 140.625 235.555 140.455 234.873 140.455C234.163 140.455 233.571 140.634 233.097 140.994C232.629 141.354 232.276 141.837 232.039 142.443C231.807 143.049 231.691 143.722 231.691 144.46C231.691 145.218 231.809 145.888 232.046 146.47C232.288 147.048 232.643 147.502 233.112 147.834C233.585 148.161 234.172 148.324 234.873 148.324ZM249.288 150.227C248.237 150.227 247.33 149.995 246.567 149.531C245.81 149.062 245.225 148.409 244.813 147.571C244.406 146.728 244.202 145.748 244.202 144.631C244.202 143.513 244.406 142.528 244.813 141.676C245.225 140.819 245.798 140.152 246.532 139.673C247.271 139.19 248.132 138.949 249.117 138.949C249.685 138.949 250.246 139.044 250.8 139.233C251.354 139.422 251.859 139.73 252.313 140.156C252.768 140.578 253.13 141.136 253.4 141.832C253.67 142.528 253.805 143.385 253.805 144.403V145.114H245.396V143.665H252.1C252.1 143.049 251.977 142.5 251.731 142.017C251.489 141.534 251.144 141.153 250.694 140.874C250.249 140.594 249.723 140.455 249.117 140.455C248.45 140.455 247.872 140.62 247.384 140.952C246.901 141.278 246.53 141.705 246.269 142.23C246.009 142.756 245.879 143.319 245.879 143.92V144.886C245.879 145.71 246.021 146.409 246.305 146.982C246.594 147.55 246.994 147.983 247.505 148.281C248.016 148.575 248.611 148.722 249.288 148.722C249.728 148.722 250.126 148.66 250.481 148.537C250.841 148.409 251.151 148.22 251.411 147.969C251.672 147.713 251.873 147.396 252.015 147.017L253.634 147.472C253.464 148.021 253.177 148.504 252.775 148.92C252.372 149.332 251.875 149.654 251.283 149.886C250.692 150.114 250.026 150.227 249.288 150.227ZM260.031 143.438V150H258.354V139.091H259.974V140.795H260.116C260.371 140.241 260.76 139.796 261.281 139.46C261.801 139.119 262.474 138.949 263.298 138.949C264.036 138.949 264.683 139.1 265.237 139.403C265.79 139.702 266.221 140.156 266.529 140.767C266.837 141.373 266.991 142.14 266.991 143.068V150H265.315V143.182C265.315 142.325 265.092 141.657 264.647 141.179C264.202 140.696 263.591 140.455 262.815 140.455C262.28 140.455 261.801 140.571 261.38 140.803C260.963 141.035 260.634 141.373 260.393 141.818C260.151 142.263 260.031 142.803 260.031 143.438ZM276.798 139.091V140.511H271.145V139.091H276.798ZM272.792 136.477H274.468V146.875C274.468 147.348 274.537 147.704 274.674 147.94C274.816 148.172 274.996 148.329 275.214 148.409C275.437 148.485 275.671 148.523 275.917 148.523C276.102 148.523 276.253 148.513 276.372 148.494C276.49 148.471 276.585 148.452 276.656 148.438L276.997 149.943C276.883 149.986 276.725 150.028 276.521 150.071C276.317 150.118 276.059 150.142 275.747 150.142C275.273 150.142 274.809 150.04 274.355 149.837C273.905 149.633 273.531 149.323 273.233 148.906C272.939 148.49 272.792 147.964 272.792 147.33V136.477ZM283.23 135.455V150H281.554V135.455H283.23ZM292.874 150.227C291.822 150.227 290.916 149.995 290.153 149.531C289.396 149.062 288.811 148.409 288.399 147.571C287.992 146.728 287.788 145.748 287.788 144.631C287.788 143.513 287.992 142.528 288.399 141.676C288.811 140.819 289.384 140.152 290.118 139.673C290.857 139.19 291.718 138.949 292.703 138.949C293.271 138.949 293.832 139.044 294.386 139.233C294.94 139.422 295.445 139.73 295.899 140.156C296.354 140.578 296.716 141.136 296.986 141.832C297.256 142.528 297.391 143.385 297.391 144.403V145.114H288.982V143.665H295.686C295.686 143.049 295.563 142.5 295.317 142.017C295.075 141.534 294.73 141.153 294.28 140.874C293.835 140.594 293.309 140.455 292.703 140.455C292.036 140.455 291.458 140.62 290.97 140.952C290.487 141.278 290.116 141.705 289.855 142.23C289.595 142.756 289.464 143.319 289.464 143.92V144.886C289.464 145.71 289.607 146.409 289.891 146.982C290.179 147.55 290.58 147.983 291.091 148.281C291.602 148.575 292.196 148.722 292.874 148.722C293.314 148.722 293.712 148.66 294.067 148.537C294.427 148.409 294.737 148.22 294.997 147.969C295.258 147.713 295.459 147.396 295.601 147.017L297.22 147.472C297.05 148.021 296.763 148.504 296.361 148.92C295.958 149.332 295.461 149.654 294.869 149.886C294.277 150.114 293.612 150.227 292.874 150.227ZM123.931 178.227C122.908 178.227 122.027 177.986 121.289 177.503C120.55 177.02 119.982 176.355 119.584 175.507C119.186 174.66 118.988 173.691 118.988 172.602C118.988 171.494 119.191 170.517 119.598 169.669C120.01 168.817 120.583 168.152 121.317 167.673C122.056 167.19 122.917 166.949 123.902 166.949C124.669 166.949 125.361 167.091 125.976 167.375C126.592 167.659 127.096 168.057 127.489 168.568C127.882 169.08 128.126 169.676 128.221 170.358H126.544C126.417 169.861 126.132 169.42 125.692 169.037C125.257 168.649 124.669 168.455 123.931 168.455C123.277 168.455 122.704 168.625 122.212 168.966C121.724 169.302 121.343 169.778 121.069 170.393C120.799 171.004 120.664 171.722 120.664 172.545C120.664 173.388 120.796 174.122 121.061 174.747C121.331 175.372 121.71 175.857 122.198 176.203C122.69 176.549 123.268 176.722 123.931 176.722C124.366 176.722 124.762 176.646 125.117 176.494C125.472 176.343 125.773 176.125 126.019 175.841C126.265 175.557 126.44 175.216 126.544 174.818H128.221C128.126 175.462 127.891 176.042 127.517 176.558C127.148 177.07 126.658 177.477 126.047 177.78C125.441 178.078 124.736 178.227 123.931 178.227ZM137.103 178.227C136.118 178.227 135.254 177.993 134.51 177.524C133.772 177.055 133.194 176.4 132.777 175.557C132.365 174.714 132.159 173.729 132.159 172.602C132.159 171.466 132.365 170.474 132.777 169.626C133.194 168.779 133.772 168.121 134.51 167.652C135.254 167.183 136.118 166.949 137.103 166.949C138.087 166.949 138.949 167.183 139.688 167.652C140.431 168.121 141.009 168.779 141.421 169.626C141.837 170.474 142.046 171.466 142.046 172.602C142.046 173.729 141.837 174.714 141.421 175.557C141.009 176.4 140.431 177.055 139.688 177.524C138.949 177.993 138.087 178.227 137.103 178.227ZM137.103 176.722C137.851 176.722 138.466 176.53 138.949 176.146C139.432 175.763 139.79 175.259 140.022 174.634C140.254 174.009 140.37 173.331 140.37 172.602C140.37 171.873 140.254 171.194 140.022 170.564C139.79 169.934 139.432 169.425 138.949 169.037C138.466 168.649 137.851 168.455 137.103 168.455C136.355 168.455 135.739 168.649 135.256 169.037C134.773 169.425 134.416 169.934 134.184 170.564C133.952 171.194 133.836 171.873 133.836 172.602C133.836 173.331 133.952 174.009 134.184 174.634C134.416 175.259 134.773 175.763 135.256 176.146C135.739 176.53 136.355 176.722 137.103 176.722ZM146.604 178V167.091H148.224V168.739H148.337C148.536 168.199 148.896 167.761 149.417 167.425C149.938 167.089 150.525 166.92 151.178 166.92C151.301 166.92 151.455 166.923 151.64 166.928C151.825 166.932 151.964 166.939 152.059 166.949V168.653C152.002 168.639 151.872 168.618 151.668 168.589C151.469 168.556 151.259 168.54 151.036 168.54C150.506 168.54 150.032 168.651 149.616 168.874C149.204 169.091 148.877 169.394 148.636 169.783C148.399 170.166 148.281 170.604 148.281 171.097V178H146.604ZM156.046 178V167.091H157.665V168.739H157.779C157.978 168.199 158.337 167.761 158.858 167.425C159.379 167.089 159.966 166.92 160.62 166.92C160.743 166.92 160.897 166.923 161.081 166.928C161.266 166.932 161.406 166.939 161.5 166.949V168.653C161.444 168.639 161.313 168.618 161.11 168.589C160.911 168.556 160.7 168.54 160.478 168.54C159.947 168.54 159.474 168.651 159.057 168.874C158.645 169.091 158.319 169.394 158.077 169.783C157.84 170.166 157.722 170.604 157.722 171.097V178H156.046ZM169.729 178.227C168.678 178.227 167.771 177.995 167.009 177.531C166.251 177.062 165.667 176.409 165.255 175.571C164.847 174.728 164.644 173.748 164.644 172.631C164.644 171.513 164.847 170.528 165.255 169.676C165.667 168.819 166.239 168.152 166.973 167.673C167.712 167.19 168.574 166.949 169.559 166.949C170.127 166.949 170.688 167.044 171.242 167.233C171.796 167.422 172.3 167.73 172.755 168.156C173.209 168.578 173.571 169.136 173.841 169.832C174.111 170.528 174.246 171.385 174.246 172.403V173.114H165.837V171.665H172.542C172.542 171.049 172.418 170.5 172.172 170.017C171.931 169.534 171.585 169.153 171.135 168.874C170.69 168.594 170.165 168.455 169.559 168.455C168.891 168.455 168.313 168.62 167.826 168.952C167.343 169.278 166.971 169.705 166.711 170.23C166.45 170.756 166.32 171.319 166.32 171.92V172.886C166.32 173.71 166.462 174.409 166.746 174.982C167.035 175.55 167.435 175.983 167.946 176.281C168.458 176.575 169.052 176.722 169.729 176.722C170.169 176.722 170.567 176.66 170.922 176.537C171.282 176.409 171.592 176.22 171.853 175.969C172.113 175.713 172.314 175.396 172.456 175.017L174.076 175.472C173.905 176.021 173.619 176.504 173.216 176.92C172.814 177.332 172.317 177.654 171.725 177.886C171.133 178.114 170.468 178.227 169.729 178.227ZM183.228 178.227C182.205 178.227 181.324 177.986 180.586 177.503C179.847 177.02 179.279 176.355 178.881 175.507C178.483 174.66 178.284 173.691 178.284 172.602C178.284 171.494 178.488 170.517 178.895 169.669C179.307 168.817 179.88 168.152 180.614 167.673C181.353 167.19 182.214 166.949 183.199 166.949C183.966 166.949 184.658 167.091 185.273 167.375C185.889 167.659 186.393 168.057 186.786 168.568C187.179 169.08 187.423 169.676 187.517 170.358H185.841C185.713 169.861 185.429 169.42 184.989 169.037C184.553 168.649 183.966 168.455 183.228 168.455C182.574 168.455 182.001 168.625 181.509 168.966C181.021 169.302 180.64 169.778 180.365 170.393C180.096 171.004 179.961 171.722 179.961 172.545C179.961 173.388 180.093 174.122 180.358 174.747C180.628 175.372 181.007 175.857 181.495 176.203C181.987 176.549 182.565 176.722 183.228 176.722C183.663 176.722 184.059 176.646 184.414 176.494C184.769 176.343 185.069 176.125 185.316 175.841C185.562 175.557 185.737 175.216 185.841 174.818H187.517C187.423 175.462 187.188 176.042 186.814 176.558C186.445 177.07 185.955 177.477 185.344 177.78C184.738 178.078 184.033 178.227 183.228 178.227ZM196.712 167.091V168.511H191.059V167.091H196.712ZM192.706 164.477H194.382V174.875C194.382 175.348 194.451 175.704 194.588 175.94C194.73 176.172 194.91 176.329 195.128 176.409C195.351 176.485 195.585 176.523 195.831 176.523C196.016 176.523 196.167 176.513 196.286 176.494C196.404 176.471 196.499 176.452 196.57 176.438L196.911 177.943C196.797 177.986 196.639 178.028 196.435 178.071C196.231 178.118 195.973 178.142 195.661 178.142C195.187 178.142 194.723 178.04 194.269 177.837C193.819 177.633 193.445 177.323 193.147 176.906C192.853 176.49 192.706 175.964 192.706 175.33V164.477ZM201.233 178V167.091H202.909V178H201.233ZM202.086 165.273C201.759 165.273 201.477 165.161 201.24 164.939C201.008 164.716 200.892 164.449 200.892 164.136C200.892 163.824 201.008 163.556 201.24 163.334C201.477 163.111 201.759 163 202.086 163C202.412 163 202.692 163.111 202.924 163.334C203.16 163.556 203.279 163.824 203.279 164.136C203.279 164.449 203.16 164.716 202.924 164.939C202.692 165.161 202.412 165.273 202.086 165.273ZM212.411 178.227C211.426 178.227 210.562 177.993 209.819 177.524C209.08 177.055 208.503 176.4 208.086 175.557C207.674 174.714 207.468 173.729 207.468 172.602C207.468 171.466 207.674 170.474 208.086 169.626C208.503 168.779 209.08 168.121 209.819 167.652C210.562 167.183 211.426 166.949 212.411 166.949C213.396 166.949 214.258 167.183 214.996 167.652C215.74 168.121 216.317 168.779 216.729 169.626C217.146 170.474 217.354 171.466 217.354 172.602C217.354 173.729 217.146 174.714 216.729 175.557C216.317 176.4 215.74 177.055 214.996 177.524C214.258 177.993 213.396 178.227 212.411 178.227ZM212.411 176.722C213.159 176.722 213.775 176.53 214.258 176.146C214.741 175.763 215.098 175.259 215.33 174.634C215.562 174.009 215.678 173.331 215.678 172.602C215.678 171.873 215.562 171.194 215.33 170.564C215.098 169.934 214.741 169.425 214.258 169.037C213.775 168.649 213.159 168.455 212.411 168.455C211.663 168.455 211.048 168.649 210.565 169.037C210.082 169.425 209.724 169.934 209.492 170.564C209.26 171.194 209.144 171.873 209.144 172.602C209.144 173.331 209.26 174.009 209.492 174.634C209.724 175.259 210.082 175.763 210.565 176.146C211.048 176.53 211.663 176.722 212.411 176.722ZM223.589 171.438V178H221.913V167.091H223.532V168.795H223.674C223.93 168.241 224.318 167.796 224.839 167.46C225.36 167.119 226.032 166.949 226.856 166.949C227.595 166.949 228.241 167.1 228.795 167.403C229.349 167.702 229.78 168.156 230.088 168.767C230.395 169.373 230.549 170.14 230.549 171.068V178H228.873V171.182C228.873 170.325 228.651 169.657 228.206 169.179C227.761 168.696 227.15 168.455 226.373 168.455C225.838 168.455 225.36 168.571 224.939 168.803C224.522 169.035 224.193 169.373 223.951 169.818C223.71 170.263 223.589 170.803 223.589 171.438ZM243.339 169.534L241.834 169.96C241.739 169.709 241.599 169.465 241.415 169.229C241.235 168.987 240.989 168.788 240.676 168.632C240.364 168.476 239.964 168.398 239.476 168.398C238.808 168.398 238.252 168.552 237.807 168.859C237.366 169.162 237.146 169.548 237.146 170.017C237.146 170.434 237.298 170.763 237.601 171.004C237.904 171.246 238.377 171.447 239.021 171.608L240.641 172.006C241.616 172.242 242.343 172.605 242.821 173.092C243.299 173.575 243.538 174.198 243.538 174.96C243.538 175.585 243.358 176.144 242.999 176.636C242.643 177.129 242.146 177.517 241.507 177.801C240.868 178.085 240.125 178.227 239.277 178.227C238.164 178.227 237.243 177.986 236.514 177.503C235.785 177.02 235.323 176.314 235.129 175.386L236.72 174.989C236.872 175.576 237.158 176.016 237.58 176.31C238.006 176.603 238.562 176.75 239.249 176.75C240.03 176.75 240.65 176.584 241.109 176.253C241.573 175.917 241.805 175.514 241.805 175.045C241.805 174.667 241.673 174.349 241.408 174.094C241.143 173.833 240.735 173.639 240.186 173.511L238.368 173.085C237.369 172.848 236.635 172.482 236.166 171.984C235.702 171.482 235.47 170.855 235.47 170.102C235.47 169.487 235.643 168.942 235.989 168.469C236.339 167.995 236.815 167.624 237.416 167.354C238.022 167.084 238.709 166.949 239.476 166.949C240.555 166.949 241.403 167.186 242.018 167.659C242.639 168.133 243.079 168.758 243.339 169.534ZM249.283 178.114C248.933 178.114 248.632 177.988 248.381 177.737C248.13 177.486 248.005 177.186 248.005 176.835C248.005 176.485 248.13 176.184 248.381 175.933C248.632 175.682 248.933 175.557 249.283 175.557C249.633 175.557 249.934 175.682 250.185 175.933C250.436 176.184 250.561 176.485 250.561 176.835C250.561 177.067 250.502 177.28 250.384 177.474C250.27 177.669 250.116 177.825 249.922 177.943C249.733 178.057 249.52 178.114 249.283 178.114Z" fill="#701D02"/>
</svg>
