<svg width="366" height="229" viewBox="0 0 366 229" fill="none" xmlns="http://www.w3.org/2000/svg">
<path d="M4 0.75H362C363.795 0.75 365.25 2.20507 365.25 4V91.2275C365.25 92.6158 364.336 93.8842 362.983 94.541C355.591 98.1321 350.492 105.719 350.492 114.5C350.492 123.281 355.591 130.868 362.983 134.459C364.336 135.116 365.25 136.384 365.25 137.772V225C365.25 226.795 363.795 228.25 362 228.25H4C2.20507 228.25 0.75 226.795 0.75 225V137.772C0.7501 136.384 1.66438 135.116 3.0166 134.459C10.4092 130.868 15.5078 123.281 15.5078 114.5C15.5078 105.719 10.4092 98.1321 3.0166 94.541C1.66438 93.8842 0.7501 92.6158 0.75 91.2275V4C0.75 2.20508 2.20508 0.750005 4 0.75Z" fill="white" fill-opacity="0.7" stroke="#FADC6D" stroke-width="1.5" stroke-linejoin="round"/>
<path d="M25.4718 53.017V51.4545H36.3809V53.017H31.807V66H30.0456V53.017H25.4718ZM39.7392 66V55.0909H41.3585V56.7386H41.4721C41.671 56.1989 42.0308 55.7609 42.5517 55.4247C43.0725 55.0885 43.6596 54.9205 44.313 54.9205C44.4361 54.9205 44.59 54.9228 44.7747 54.9276C44.9593 54.9323 45.099 54.9394 45.1937 54.9489V56.6534C45.1369 56.6392 45.0067 56.6179 44.8031 56.5895C44.6042 56.5563 44.3935 56.5398 44.171 56.5398C43.6407 56.5398 43.1672 56.651 42.7505 56.8736C42.3386 57.0914 42.0119 57.3944 41.7704 57.7827C41.5337 58.1662 41.4153 58.6042 41.4153 59.0966V66H39.7392ZM52.3908 66.2557C51.6995 66.2557 51.0721 66.1255 50.5087 65.8651C49.9453 65.5999 49.4978 65.2188 49.1664 64.7216C48.8349 64.2197 48.6692 63.6136 48.6692 62.9034C48.6692 62.2784 48.7923 61.7718 49.0385 61.3835C49.2847 60.9905 49.6138 60.6828 50.0257 60.4602C50.4377 60.2377 50.8922 60.072 51.3894 59.9631C51.8913 59.8494 52.3955 59.7595 52.9022 59.6932C53.565 59.608 54.1025 59.544 54.5144 59.5014C54.931 59.4541 55.2341 59.3759 55.4235 59.267C55.6176 59.1581 55.7147 58.9687 55.7147 58.6989V58.642C55.7147 57.9413 55.5229 57.3968 55.1394 57.0085C54.7606 56.6203 54.1853 56.4261 53.4135 56.4261C52.6133 56.4261 51.986 56.6013 51.5314 56.9517C51.0769 57.3021 50.7573 57.6761 50.5726 58.0739L48.9817 57.5057C49.2658 56.8428 49.6446 56.3267 50.1181 55.9574C50.5963 55.5833 51.1171 55.3229 51.6806 55.1761C52.2488 55.0246 52.8075 54.9489 53.3567 54.9489C53.7071 54.9489 54.1096 54.9915 54.5641 55.0767C55.0234 55.1572 55.4661 55.3253 55.8922 55.581C56.3231 55.8366 56.6806 56.2225 56.9647 56.7386C57.2488 57.2547 57.3908 57.946 57.3908 58.8125V66H55.7147V64.5227H55.6294C55.5158 64.7595 55.3264 65.0128 55.0613 65.2827C54.7961 65.5526 54.4434 65.7822 54.003 65.9716C53.5627 66.161 53.0253 66.2557 52.3908 66.2557ZM52.6465 64.75C53.3094 64.75 53.8681 64.6198 54.3226 64.3594C54.7819 64.099 55.1275 63.7628 55.3596 63.3509C55.5963 62.9389 55.7147 62.5057 55.7147 62.0511V60.517C55.6436 60.6023 55.4874 60.6804 55.2459 60.7514C55.0092 60.8177 54.7346 60.8769 54.4221 60.929C54.1143 60.9763 53.8136 61.0189 53.5201 61.0568C53.2312 61.09 52.9969 61.1184 52.8169 61.142C52.3813 61.1989 51.9741 61.2912 51.5953 61.419C51.2213 61.5421 50.9183 61.7292 50.6863 61.9801C50.459 62.2263 50.3453 62.5625 50.3453 62.9886C50.3453 63.571 50.5608 64.0114 50.9917 64.3097C51.4273 64.6032 51.9789 64.75 52.6465 64.75ZM64.1262 59.4375V66H62.4501V55.0909H64.0694V56.7955H64.2115C64.4672 56.2415 64.8554 55.7964 65.3762 55.4602C65.8971 55.1193 66.5694 54.9489 67.3933 54.9489C68.1319 54.9489 68.7782 55.1004 69.3322 55.4034C69.8862 55.7017 70.3171 56.1562 70.6248 56.767C70.9326 57.3731 71.0865 58.1402 71.0865 59.0682V66H69.4103V59.1818C69.4103 58.3248 69.1878 57.6572 68.7427 57.179C68.2976 56.696 67.6868 56.4545 66.9103 56.4545C66.3753 56.4545 65.8971 56.5705 65.4757 56.8026C65.059 57.0346 64.7299 57.3731 64.4885 57.8182C64.247 58.2633 64.1262 58.803 64.1262 59.4375ZM83.8766 57.5341L82.3709 57.9602C82.2762 57.7093 82.1365 57.4654 81.9519 57.2287C81.772 56.9872 81.5257 56.7884 81.2132 56.6321C80.9007 56.4759 80.5007 56.3977 80.013 56.3977C79.3453 56.3977 78.789 56.5516 78.3439 56.8594C77.9036 57.1624 77.6834 57.5483 77.6834 58.017C77.6834 58.4337 77.8349 58.7628 78.138 59.0043C78.441 59.2457 78.9145 59.447 79.5584 59.608L81.1777 60.0057C82.1531 60.2424 82.8799 60.6046 83.3581 61.0923C83.8364 61.5753 84.0755 62.1979 84.0755 62.9602C84.0755 63.5852 83.8955 64.1439 83.5357 64.6364C83.1806 65.1288 82.6834 65.517 82.0442 65.8011C81.405 66.0852 80.6616 66.2273 79.8141 66.2273C78.7014 66.2273 77.7805 65.9858 77.0513 65.5028C76.3221 65.0199 75.8605 64.3144 75.6664 63.3864L77.2573 62.9886C77.4088 63.5758 77.6953 64.0161 78.1167 64.3097C78.5428 64.6032 79.0991 64.75 79.7857 64.75C80.5669 64.75 81.1872 64.5843 81.6465 64.2528C82.1105 63.9167 82.3425 63.5142 82.3425 63.0455C82.3425 62.6667 82.2099 62.3494 81.9448 62.0938C81.6796 61.8333 81.2724 61.6392 80.7232 61.5114L78.905 61.0852C77.906 60.8485 77.1721 60.4815 76.7033 59.9844C76.2393 59.4825 76.0073 58.8551 76.0073 58.1023C76.0073 57.4867 76.1801 56.9422 76.5257 56.4688C76.8761 55.9953 77.352 55.6236 77.9533 55.3537C78.5594 55.0838 79.2459 54.9489 80.013 54.9489C81.0925 54.9489 81.94 55.1856 82.5556 55.6591C83.1758 56.1326 83.6162 56.7576 83.8766 57.5341ZM93.4565 55.0909V56.5114H87.5758V55.0909H93.4565ZM89.3372 66V53.5852C89.3372 52.9602 89.484 52.4394 89.7775 52.0227C90.0711 51.6061 90.4522 51.2936 90.921 51.0852C91.3897 50.8769 91.8845 50.7727 92.4054 50.7727C92.8173 50.7727 93.1535 50.8059 93.4139 50.8722C93.6743 50.9384 93.8684 51 93.9963 51.0568L93.5133 52.5057C93.4281 52.4773 93.3097 52.4418 93.1582 52.3991C93.0114 52.3565 92.8173 52.3352 92.5758 52.3352C92.0218 52.3352 91.6217 52.4749 91.3755 52.7543C91.1341 53.0336 91.0133 53.4432 91.0133 53.983V66H89.3372ZM101.788 66.2273C100.803 66.2273 99.9392 65.9929 99.1958 65.5241C98.4572 65.0554 97.8796 64.3996 97.4629 63.5568C97.051 62.714 96.845 61.7292 96.845 60.6023C96.845 59.4659 97.051 58.474 97.4629 57.6264C97.8796 56.7789 98.4572 56.1207 99.1958 55.652C99.9392 55.1832 100.803 54.9489 101.788 54.9489C102.773 54.9489 103.635 55.1832 104.373 55.652C105.117 56.1207 105.694 56.7789 106.106 57.6264C106.523 58.474 106.731 59.4659 106.731 60.6023C106.731 61.7292 106.523 62.714 106.106 63.5568C105.694 64.3996 105.117 65.0554 104.373 65.5241C103.635 65.9929 102.773 66.2273 101.788 66.2273ZM101.788 64.7216C102.536 64.7216 103.152 64.5298 103.635 64.1463C104.118 63.7628 104.475 63.2585 104.707 62.6335C104.939 62.0085 105.055 61.3314 105.055 60.6023C105.055 59.8731 104.939 59.1937 104.707 58.5639C104.475 57.9342 104.118 57.4252 103.635 57.0369C103.152 56.6487 102.536 56.4545 101.788 56.4545C101.04 56.4545 100.425 56.6487 99.9416 57.0369C99.4586 57.4252 99.1011 57.9342 98.8691 58.5639C98.6371 59.1937 98.5211 59.8731 98.5211 60.6023C98.5211 61.3314 98.6371 62.0085 98.8691 62.6335C99.1011 63.2585 99.4586 63.7628 99.9416 64.1463C100.425 64.5298 101.04 64.7216 101.788 64.7216ZM111.29 66V55.0909H112.909V56.7386H113.023C113.222 56.1989 113.582 55.7609 114.102 55.4247C114.623 55.0885 115.21 54.9205 115.864 54.9205C115.987 54.9205 116.141 54.9228 116.325 54.9276C116.51 54.9323 116.65 54.9394 116.744 54.9489V56.6534C116.688 56.6392 116.557 56.6179 116.354 56.5895C116.155 56.5563 115.944 56.5398 115.722 56.5398C115.191 56.5398 114.718 56.651 114.301 56.8736C113.889 57.0914 113.563 57.3944 113.321 57.7827C113.084 58.1662 112.966 58.6042 112.966 59.0966V66H111.29ZM120.731 66V55.0909H122.351V56.7955H122.493C122.72 56.2131 123.087 55.7609 123.594 55.4389C124.1 55.1122 124.709 54.9489 125.419 54.9489C126.139 54.9489 126.738 55.1122 127.216 55.4389C127.699 55.7609 128.075 56.2131 128.345 56.7955H128.459C128.738 56.232 129.157 55.7846 129.716 55.4531C130.274 55.117 130.944 54.9489 131.726 54.9489C132.701 54.9489 133.499 55.2543 134.119 55.8651C134.739 56.4711 135.05 57.4157 135.05 58.6989V66H133.373V58.6989C133.373 57.8939 133.153 57.3187 132.713 56.973C132.273 56.6274 131.754 56.4545 131.157 56.4545C130.39 56.4545 129.796 56.6866 129.375 57.1506C128.953 57.6098 128.743 58.1922 128.743 58.8977V66H127.038V58.5284C127.038 57.9081 126.837 57.4086 126.434 57.0298C126.032 56.6463 125.514 56.4545 124.879 56.4545C124.443 56.4545 124.036 56.5705 123.657 56.8026C123.283 57.0346 122.98 57.3565 122.748 57.7685C122.521 58.1757 122.407 58.6468 122.407 59.1818V66H120.731ZM152.483 55.0909V56.5114H146.83V55.0909H152.483ZM148.478 52.4773H150.154V62.875C150.154 63.3485 150.223 63.7036 150.36 63.9403C150.502 64.1723 150.682 64.3286 150.9 64.4091C151.122 64.4848 151.357 64.5227 151.603 64.5227C151.787 64.5227 151.939 64.5133 152.057 64.4943C152.176 64.4706 152.27 64.4517 152.341 64.4375L152.682 65.9432C152.569 65.9858 152.41 66.0284 152.206 66.071C152.003 66.1184 151.745 66.142 151.432 66.142C150.959 66.142 150.495 66.0402 150.04 65.8366C149.59 65.633 149.216 65.3229 148.918 64.9062C148.625 64.4896 148.478 63.964 148.478 63.3295V52.4773ZM161.461 66.2273C160.41 66.2273 159.504 65.9953 158.741 65.5312C157.984 65.0625 157.399 64.4091 156.987 63.571C156.58 62.7282 156.376 61.7481 156.376 60.6307C156.376 59.5133 156.58 58.5284 156.987 57.6761C157.399 56.8191 157.972 56.1515 158.706 55.6733C159.444 55.1903 160.306 54.9489 161.291 54.9489C161.859 54.9489 162.42 55.0436 162.974 55.233C163.528 55.4223 164.032 55.7301 164.487 56.1562C164.942 56.5777 165.304 57.1364 165.574 57.8324C165.844 58.5284 165.979 59.3854 165.979 60.4034V61.1136H157.569V59.6648H164.274C164.274 59.0492 164.151 58.5 163.905 58.017C163.663 57.5341 163.318 57.1529 162.868 56.8736C162.423 56.5942 161.897 56.4545 161.291 56.4545C160.623 56.4545 160.046 56.6203 159.558 56.9517C159.075 57.2784 158.703 57.7045 158.443 58.2301C158.183 58.7557 158.052 59.3191 158.052 59.9205V60.8864C158.052 61.7102 158.194 62.4086 158.479 62.9815C158.767 63.5497 159.167 63.983 159.679 64.2812C160.19 64.5748 160.784 64.7216 161.461 64.7216C161.902 64.7216 162.3 64.66 162.655 64.5369C163.015 64.4091 163.325 64.2197 163.585 63.9688C163.845 63.7131 164.047 63.3958 164.189 63.017L165.808 63.4716C165.638 64.0208 165.351 64.5038 164.949 64.9205C164.546 65.3324 164.049 65.6544 163.457 65.8864C162.865 66.1136 162.2 66.2273 161.461 66.2273ZM174.648 66.2273C173.738 66.2273 172.936 65.9976 172.24 65.5384C171.544 65.0743 170.999 64.4209 170.606 63.5781C170.213 62.7306 170.017 61.7292 170.017 60.5739C170.017 59.428 170.213 58.4337 170.606 57.5909C170.999 56.7481 171.546 56.0971 172.247 55.6378C172.948 55.1785 173.757 54.9489 174.676 54.9489C175.386 54.9489 175.947 55.0672 176.359 55.304C176.776 55.536 177.093 55.8011 177.311 56.0994C177.533 56.393 177.706 56.6345 177.829 56.8239H177.971V51.4545H179.648V66H178.028V64.3239H177.829C177.706 64.5227 177.531 64.7737 177.304 65.0767C177.077 65.375 176.752 65.6425 176.331 65.8793C175.909 66.1113 175.348 66.2273 174.648 66.2273ZM174.875 64.7216C175.547 64.7216 176.115 64.5464 176.579 64.196C177.043 63.8409 177.396 63.3509 177.638 62.7259C177.879 62.0961 178 61.3693 178 60.5455C178 59.7311 177.881 59.0185 177.645 58.4077C177.408 57.7921 177.058 57.3139 176.594 56.973C176.13 56.6274 175.557 56.4545 174.875 56.4545C174.165 56.4545 173.573 56.6368 173.099 57.0014C172.631 57.3613 172.278 57.8513 172.041 58.4716C171.809 59.0871 171.693 59.7784 171.693 60.5455C171.693 61.322 171.811 62.0275 172.048 62.6619C172.29 63.2917 172.645 63.7936 173.113 64.1676C173.587 64.5369 174.174 64.7216 174.875 64.7216ZM184.95 66V55.0909H186.626V66H184.95ZM185.802 53.2727C185.476 53.2727 185.194 53.1615 184.957 52.9389C184.725 52.7164 184.609 52.4489 184.609 52.1364C184.609 51.8239 184.725 51.5563 184.957 51.3338C185.194 51.1113 185.476 51 185.802 51C186.129 51 186.408 51.1113 186.64 51.3338C186.877 51.5563 186.996 51.8239 186.996 52.1364C186.996 52.4489 186.877 52.7164 186.64 52.9389C186.408 53.1615 186.129 53.2727 185.802 53.2727ZM196.128 66.2273C195.143 66.2273 194.279 65.9929 193.536 65.5241C192.797 65.0554 192.219 64.3996 191.803 63.5568C191.391 62.714 191.185 61.7292 191.185 60.6023C191.185 59.4659 191.391 58.474 191.803 57.6264C192.219 56.7789 192.797 56.1207 193.536 55.652C194.279 55.1832 195.143 54.9489 196.128 54.9489C197.113 54.9489 197.975 55.1832 198.713 55.652C199.457 56.1207 200.034 56.7789 200.446 57.6264C200.863 58.474 201.071 59.4659 201.071 60.6023C201.071 61.7292 200.863 62.714 200.446 63.5568C200.034 64.3996 199.457 65.0554 198.713 65.5241C197.975 65.9929 197.113 66.2273 196.128 66.2273ZM196.128 64.7216C196.876 64.7216 197.492 64.5298 197.975 64.1463C198.458 63.7628 198.815 63.2585 199.047 62.6335C199.279 62.0085 199.395 61.3314 199.395 60.6023C199.395 59.8731 199.279 59.1937 199.047 58.5639C198.815 57.9342 198.458 57.4252 197.975 57.0369C197.492 56.6487 196.876 56.4545 196.128 56.4545C195.38 56.4545 194.764 56.6487 194.281 57.0369C193.798 57.4252 193.441 57.9342 193.209 58.5639C192.977 59.1937 192.861 59.8731 192.861 60.6023C192.861 61.3314 192.977 62.0085 193.209 62.6335C193.441 63.2585 193.798 63.7628 194.281 64.1463C194.764 64.5298 195.38 64.7216 196.128 64.7216ZM212.505 61.5398V55.0909H214.181V66H212.505V64.1534H212.391C212.135 64.7074 211.738 65.1785 211.198 65.5668C210.658 65.9503 209.976 66.142 209.153 66.142C208.471 66.142 207.865 65.9929 207.334 65.6946C206.804 65.3916 206.387 64.937 206.084 64.331C205.781 63.7202 205.63 62.9508 205.63 62.0227V55.0909H207.306V61.9091C207.306 62.7045 207.528 63.339 207.974 63.8125C208.423 64.286 208.996 64.5227 209.692 64.5227C210.109 64.5227 210.533 64.4162 210.964 64.2031C211.399 63.9901 211.764 63.6634 212.057 63.223C212.356 62.7827 212.505 62.2216 212.505 61.5398ZM226.978 57.5341L225.472 57.9602C225.378 57.7093 225.238 57.4654 225.053 57.2287C224.874 56.9872 224.627 56.7884 224.315 56.6321C224.002 56.4759 223.602 56.3977 223.115 56.3977C222.447 56.3977 221.891 56.5516 221.445 56.8594C221.005 57.1624 220.785 57.5483 220.785 58.017C220.785 58.4337 220.936 58.7628 221.24 59.0043C221.543 59.2457 222.016 59.447 222.66 59.608L224.279 60.0057C225.255 60.2424 225.981 60.6046 226.46 61.0923C226.938 61.5753 227.177 62.1979 227.177 62.9602C227.177 63.5852 226.997 64.1439 226.637 64.6364C226.282 65.1288 225.785 65.517 225.146 65.8011C224.507 66.0852 223.763 66.2273 222.916 66.2273C221.803 66.2273 220.882 65.9858 220.153 65.5028C219.424 65.0199 218.962 64.3144 218.768 63.3864L220.359 62.9886C220.51 63.5758 220.797 64.0161 221.218 64.3097C221.644 64.6032 222.201 64.75 222.887 64.75C223.669 64.75 224.289 64.5843 224.748 64.2528C225.212 63.9167 225.444 63.5142 225.444 63.0455C225.444 62.6667 225.311 62.3494 225.046 62.0938C224.781 61.8333 224.374 61.6392 223.825 61.5114L222.007 61.0852C221.008 60.8485 220.274 60.4815 219.805 59.9844C219.341 59.4825 219.109 58.8551 219.109 58.1023C219.109 57.4867 219.282 56.9422 219.627 56.4688C219.978 55.9953 220.454 55.6236 221.055 55.3537C221.661 55.0838 222.347 54.9489 223.115 54.9489C224.194 54.9489 225.042 55.1856 225.657 55.6591C226.277 56.1326 226.718 56.7576 226.978 57.5341ZM243.444 66.2273C242.535 66.2273 241.733 65.9976 241.037 65.5384C240.341 65.0743 239.796 64.4209 239.403 63.5781C239.01 62.7306 238.814 61.7292 238.814 60.5739C238.814 59.428 239.01 58.4337 239.403 57.5909C239.796 56.7481 240.343 56.0971 241.044 55.6378C241.745 55.1785 242.554 54.9489 243.473 54.9489C244.183 54.9489 244.744 55.0672 245.156 55.304C245.573 55.536 245.89 55.8011 246.108 56.0994C246.33 56.393 246.503 56.6345 246.626 56.8239H246.768V51.4545H248.444V66H246.825V64.3239H246.626C246.503 64.5227 246.328 64.7737 246.101 65.0767C245.873 65.375 245.549 65.6425 245.128 65.8793C244.706 66.1113 244.145 66.2273 243.444 66.2273ZM243.672 64.7216C244.344 64.7216 244.912 64.5464 245.376 64.196C245.84 63.8409 246.193 63.3509 246.434 62.7259C246.676 62.0961 246.797 61.3693 246.797 60.5455C246.797 59.7311 246.678 59.0185 246.442 58.4077C246.205 57.7921 245.854 57.3139 245.39 56.973C244.926 56.6274 244.354 56.4545 243.672 56.4545C242.961 56.4545 242.37 56.6368 241.896 57.0014C241.427 57.3613 241.075 57.8513 240.838 58.4716C240.606 59.0871 240.49 59.7784 240.49 60.5455C240.49 61.322 240.608 62.0275 240.845 62.6619C241.086 63.2917 241.442 63.7936 241.91 64.1676C242.384 64.5369 242.971 64.7216 243.672 64.7216ZM253.747 66V55.0909H255.366V56.7386H255.48C255.679 56.1989 256.039 55.7609 256.559 55.4247C257.08 55.0885 257.667 54.9205 258.321 54.9205C258.444 54.9205 258.598 54.9228 258.782 54.9276C258.967 54.9323 259.107 54.9394 259.202 54.9489V56.6534C259.145 56.6392 259.015 56.6179 258.811 56.5895C258.612 56.5563 258.401 56.5398 258.179 56.5398C257.648 56.5398 257.175 56.651 256.758 56.8736C256.346 57.0914 256.02 57.3944 255.778 57.7827C255.541 58.1662 255.423 58.6042 255.423 59.0966V66H253.747ZM263.188 66V55.0909H264.865V66H263.188ZM264.041 53.2727C263.714 53.2727 263.432 53.1615 263.195 52.9389C262.963 52.7164 262.847 52.4489 262.847 52.1364C262.847 51.8239 262.963 51.5563 263.195 51.3338C263.432 51.1113 263.714 51 264.041 51C264.367 51 264.647 51.1113 264.879 51.3338C265.115 51.5563 265.234 51.8239 265.234 52.1364C265.234 52.4489 265.115 52.7164 264.879 52.9389C264.647 53.1615 264.367 53.2727 264.041 53.2727ZM271.611 51.4545V66H269.934V51.4545H271.611ZM278.357 51.4545V66H276.681V51.4545H278.357ZM291.154 57.5341L289.648 57.9602C289.554 57.7093 289.414 57.4654 289.229 57.2287C289.049 56.9872 288.803 56.7884 288.491 56.6321C288.178 56.4759 287.778 56.3977 287.29 56.3977C286.623 56.3977 286.066 56.5516 285.621 56.8594C285.181 57.1624 284.961 57.5483 284.961 58.017C284.961 58.4337 285.112 58.7628 285.415 59.0043C285.718 59.2457 286.192 59.447 286.836 59.608L288.455 60.0057C289.43 60.2424 290.157 60.6046 290.635 61.0923C291.114 61.5753 291.353 62.1979 291.353 62.9602C291.353 63.5852 291.173 64.1439 290.813 64.6364C290.458 65.1288 289.961 65.517 289.322 65.8011C288.682 66.0852 287.939 66.2273 287.091 66.2273C285.979 66.2273 285.058 65.9858 284.329 65.5028C283.599 65.0199 283.138 64.3144 282.944 63.3864L284.535 62.9886C284.686 63.5758 284.973 64.0161 285.394 64.3097C285.82 64.6032 286.376 64.75 287.063 64.75C287.844 64.75 288.465 64.5843 288.924 64.2528C289.388 63.9167 289.62 63.5142 289.62 63.0455C289.62 62.6667 289.487 62.3494 289.222 62.0938C288.957 61.8333 288.55 61.6392 288.001 61.5114L286.182 61.0852C285.183 60.8485 284.449 60.4815 283.981 59.9844C283.517 59.4825 283.285 58.8551 283.285 58.1023C283.285 57.4867 283.457 56.9422 283.803 56.4688C284.153 55.9953 284.629 55.6236 285.231 55.3537C285.837 55.0838 286.523 54.9489 287.29 54.9489C288.37 54.9489 289.217 55.1856 289.833 55.6591C290.453 56.1326 290.894 56.7576 291.154 57.5341ZM303.501 66V55.0909H305.177V66H303.501ZM304.353 53.2727C304.026 53.2727 303.745 53.1615 303.508 52.9389C303.276 52.7164 303.16 52.4489 303.16 52.1364C303.16 51.8239 303.276 51.5563 303.508 51.3338C303.745 51.1113 304.026 51 304.353 51C304.68 51 304.959 51.1113 305.191 51.3338C305.428 51.5563 305.546 51.8239 305.546 52.1364C305.546 52.4489 305.428 52.7164 305.191 52.9389C304.959 53.1615 304.68 53.2727 304.353 53.2727ZM311.923 59.4375V66H310.247V55.0909H311.866V56.7955H312.008C312.264 56.2415 312.652 55.7964 313.173 55.4602C313.694 55.1193 314.366 54.9489 315.19 54.9489C315.929 54.9489 316.575 55.1004 317.129 55.4034C317.683 55.7017 318.114 56.1562 318.422 56.767C318.729 57.3731 318.883 58.1402 318.883 59.0682V66H317.207V59.1818C317.207 58.3248 316.985 57.6572 316.54 57.179C316.095 56.696 315.484 56.4545 314.707 56.4545C314.172 56.4545 313.694 56.5705 313.273 56.8026C312.856 57.0346 312.527 57.3731 312.285 57.8182C312.044 58.2633 311.923 58.803 311.923 59.4375ZM328.691 55.0909V56.5114H323.037V55.0909H328.691ZM324.685 52.4773H326.361V62.875C326.361 63.3485 326.43 63.7036 326.567 63.9403C326.709 64.1723 326.889 64.3286 327.107 64.4091C327.329 64.4848 327.564 64.5227 327.81 64.5227C327.994 64.5227 328.146 64.5133 328.264 64.4943C328.383 64.4706 328.477 64.4517 328.548 64.4375L328.889 65.9432C328.776 65.9858 328.617 66.0284 328.414 66.071C328.21 66.1184 327.952 66.142 327.639 66.142C327.166 66.142 326.702 66.0402 326.247 65.8366C325.798 65.633 325.423 65.3229 325.125 64.9062C324.832 64.4896 324.685 63.964 324.685 63.3295V52.4773ZM337.526 66.2273C336.542 66.2273 335.677 65.9929 334.934 65.5241C334.195 65.0554 333.618 64.3996 333.201 63.5568C332.789 62.714 332.583 61.7292 332.583 60.6023C332.583 59.4659 332.789 58.474 333.201 57.6264C333.618 56.7789 334.195 56.1207 334.934 55.652C335.677 55.1832 336.542 54.9489 337.526 54.9489C338.511 54.9489 339.373 55.1832 340.112 55.652C340.855 56.1207 341.433 56.7789 341.845 57.6264C342.261 58.474 342.47 59.4659 342.47 60.6023C342.47 61.7292 342.261 62.714 341.845 63.5568C341.433 64.3996 340.855 65.0554 340.112 65.5241C339.373 65.9929 338.511 66.2273 337.526 66.2273ZM337.526 64.7216C338.275 64.7216 338.89 64.5298 339.373 64.1463C339.856 63.7628 340.213 63.2585 340.445 62.6335C340.677 62.0085 340.794 61.3314 340.794 60.6023C340.794 59.8731 340.677 59.1937 340.445 58.5639C340.213 57.9342 339.856 57.4252 339.373 57.0369C338.89 56.6487 338.275 56.4545 337.526 56.4545C336.778 56.4545 336.163 56.6487 335.68 57.0369C335.197 57.4252 334.839 57.9342 334.607 58.5639C334.375 59.1937 334.259 59.8731 334.259 60.6023C334.259 61.3314 334.375 62.0085 334.607 62.6335C334.839 63.2585 335.197 63.7628 335.68 64.1463C336.163 64.5298 336.778 64.7216 337.526 64.7216ZM72.6513 94V83.0909H74.2706V84.7955H74.4126C74.6399 84.2131 75.0069 83.7609 75.5135 83.4389C76.0201 83.1122 76.6286 82.9489 77.3388 82.9489C78.0585 82.9489 78.6574 83.1122 79.1357 83.4389C79.6186 83.7609 79.995 84.2131 80.2649 84.7955H80.3786C80.6579 84.232 81.0769 83.7846 81.6357 83.4531C82.1944 83.117 82.8643 82.9489 83.6456 82.9489C84.621 82.9489 85.4188 83.2543 86.0391 83.8651C86.6593 84.4711 86.9695 85.4157 86.9695 86.6989V94H85.2933V86.6989C85.2933 85.8939 85.0732 85.3187 84.6328 84.973C84.1925 84.6274 83.674 84.4545 83.0774 84.4545C82.3104 84.4545 81.7161 84.6866 81.2947 85.1506C80.8733 85.6098 80.6626 86.1922 80.6626 86.8977V94H78.9581V86.5284C78.9581 85.9081 78.7569 85.4086 78.3544 85.0298C77.9519 84.6463 77.4335 84.4545 76.799 84.4545C76.3634 84.4545 75.9562 84.5705 75.5774 84.8026C75.2034 85.0346 74.9003 85.3565 74.6683 85.7685C74.4411 86.1757 74.3274 86.6468 74.3274 87.1818V94H72.6513ZM95.2443 94.2557C94.553 94.2557 93.9257 94.1255 93.3622 93.8651C92.7988 93.5999 92.3513 93.2188 92.0199 92.7216C91.6884 92.2197 91.5227 91.6136 91.5227 90.9034C91.5227 90.2784 91.6458 89.7718 91.892 89.3835C92.1383 88.9905 92.4673 88.6828 92.8793 88.4602C93.2912 88.2377 93.7457 88.072 94.2429 87.9631C94.7448 87.8494 95.2491 87.7595 95.7557 87.6932C96.4186 87.608 96.956 87.544 97.3679 87.5014C97.7846 87.4541 98.0876 87.3759 98.277 87.267C98.4711 87.1581 98.5682 86.9687 98.5682 86.6989V86.642C98.5682 85.9413 98.3764 85.3968 97.9929 85.0085C97.6141 84.6203 97.0388 84.4261 96.267 84.4261C95.4669 84.4261 94.8395 84.6013 94.3849 84.9517C93.9304 85.3021 93.6108 85.6761 93.4261 86.0739L91.8352 85.5057C92.1193 84.8428 92.4981 84.3267 92.9716 83.9574C93.4498 83.5833 93.9706 83.3229 94.5341 83.1761C95.1023 83.0246 95.661 82.9489 96.2102 82.9489C96.5606 82.9489 96.9631 82.9915 97.4176 83.0767C97.8769 83.1572 98.3196 83.3253 98.7457 83.581C99.1766 83.8366 99.5341 84.2225 99.8182 84.7386C100.102 85.2547 100.244 85.946 100.244 86.8125V94H98.5682V92.5227H98.483C98.3693 92.7595 98.1799 93.0128 97.9148 93.2827C97.6496 93.5526 97.2969 93.7822 96.8565 93.9716C96.4162 94.161 95.8788 94.2557 95.2443 94.2557ZM95.5 92.75C96.1629 92.75 96.7216 92.6198 97.1761 92.3594C97.6354 92.099 97.9811 91.7628 98.2131 91.3509C98.4498 90.9389 98.5682 90.5057 98.5682 90.0511V88.517C98.4972 88.6023 98.3409 88.6804 98.0994 88.7514C97.8627 88.8177 97.5881 88.8769 97.2756 88.929C96.9678 88.9763 96.6671 89.0189 96.3736 89.0568C96.0848 89.09 95.8504 89.1184 95.6705 89.142C95.2348 89.1989 94.8277 89.2912 94.4489 89.419C94.0748 89.5421 93.7718 89.7292 93.5398 89.9801C93.3125 90.2263 93.1989 90.5625 93.1989 90.9886C93.1989 91.571 93.4143 92.0114 93.8452 92.3097C94.2808 92.6032 94.8324 92.75 95.5 92.75ZM109.707 98.3182C108.897 98.3182 108.201 98.214 107.619 98.0057C107.037 97.8021 106.551 97.5322 106.163 97.196C105.779 96.8646 105.474 96.5095 105.247 96.1307L106.582 95.1932C106.734 95.392 106.925 95.6193 107.157 95.875C107.389 96.1354 107.707 96.3603 108.109 96.5497C108.516 96.7438 109.049 96.8409 109.707 96.8409C110.588 96.8409 111.315 96.6278 111.887 96.2017C112.46 95.7756 112.747 95.108 112.747 94.1989V91.983H112.605C112.482 92.1818 112.306 92.428 112.079 92.7216C111.857 93.0104 111.535 93.2685 111.113 93.4957C110.697 93.7183 110.133 93.8295 109.423 93.8295C108.542 93.8295 107.752 93.6212 107.051 93.2045C106.355 92.7879 105.803 92.1818 105.396 91.3864C104.993 90.5909 104.792 89.625 104.792 88.4886C104.792 87.3712 104.989 86.3982 105.382 85.5696C105.775 84.7363 106.322 84.0923 107.022 83.6378C107.723 83.1785 108.533 82.9489 109.451 82.9489C110.162 82.9489 110.725 83.0672 111.142 83.304C111.563 83.536 111.885 83.8011 112.108 84.0994C112.335 84.393 112.51 84.6345 112.633 84.8239H112.804V83.0909H114.423V94.3125C114.423 95.25 114.21 96.0123 113.784 96.5994C113.362 97.1913 112.794 97.6245 112.079 97.8991C111.369 98.1785 110.578 98.3182 109.707 98.3182ZM109.65 92.3239C110.323 92.3239 110.891 92.17 111.355 91.8622C111.819 91.5545 112.172 91.1117 112.413 90.5341C112.654 89.9564 112.775 89.2652 112.775 88.4602C112.775 87.6742 112.657 86.9806 112.42 86.3793C112.183 85.7779 111.833 85.3068 111.369 84.9659C110.905 84.625 110.332 84.4545 109.65 84.4545C108.94 84.4545 108.348 84.6345 107.875 84.9943C107.406 85.3542 107.053 85.8371 106.816 86.4432C106.584 87.0492 106.468 87.7216 106.468 88.4602C106.468 89.2178 106.587 89.8878 106.824 90.4702C107.065 91.0478 107.42 91.5024 107.889 91.8338C108.362 92.1605 108.949 92.3239 109.65 92.3239ZM119.491 94V83.0909H121.167V94H119.491ZM120.343 81.2727C120.017 81.2727 119.735 81.1615 119.498 80.9389C119.266 80.7164 119.15 80.4489 119.15 80.1364C119.15 79.8239 119.266 79.5563 119.498 79.3338C119.735 79.1113 120.017 79 120.343 79C120.67 79 120.949 79.1113 121.181 79.3338C121.418 79.5563 121.537 79.8239 121.537 80.1364C121.537 80.4489 121.418 80.7164 121.181 80.9389C120.949 81.1615 120.67 81.2727 120.343 81.2727ZM130.669 94.2273C129.646 94.2273 128.766 93.9858 128.027 93.5028C127.288 93.0199 126.72 92.3546 126.322 91.5071C125.925 90.6596 125.726 89.6913 125.726 88.6023C125.726 87.4943 125.929 86.5166 126.337 85.669C126.749 84.8168 127.321 84.1515 128.055 83.6733C128.794 83.1903 129.656 82.9489 130.641 82.9489C131.408 82.9489 132.099 83.0909 132.714 83.375C133.33 83.6591 133.834 84.0568 134.227 84.5682C134.62 85.0795 134.864 85.6761 134.959 86.358H133.283C133.155 85.8608 132.871 85.4205 132.43 85.0369C131.995 84.6487 131.408 84.4545 130.669 84.4545C130.016 84.4545 129.443 84.625 128.95 84.9659C128.463 85.3021 128.081 85.7779 127.807 86.3935C127.537 87.0043 127.402 87.7216 127.402 88.5455C127.402 89.3883 127.535 90.1222 127.8 90.7472C128.07 91.3722 128.448 91.8575 128.936 92.2031C129.429 92.5488 130.006 92.7216 130.669 92.7216C131.105 92.7216 131.5 92.6458 131.855 92.4943C132.21 92.3428 132.511 92.125 132.757 91.8409C133.003 91.5568 133.179 91.2159 133.283 90.8182H134.959C134.864 91.4621 134.63 92.0421 134.256 92.5582C133.886 93.0696 133.396 93.4768 132.786 93.7798C132.179 94.0781 131.474 94.2273 130.669 94.2273ZM142.619 94.2557C141.928 94.2557 141.301 94.1255 140.737 93.8651C140.174 93.5999 139.726 93.2188 139.395 92.7216C139.063 92.2197 138.898 91.6136 138.898 90.9034C138.898 90.2784 139.021 89.7718 139.267 89.3835C139.513 88.9905 139.842 88.6828 140.254 88.4602C140.666 88.2377 141.121 88.072 141.618 87.9631C142.12 87.8494 142.624 87.7595 143.131 87.6932C143.794 87.608 144.331 87.544 144.743 87.5014C145.16 87.4541 145.463 87.3759 145.652 87.267C145.846 87.1581 145.943 86.9687 145.943 86.6989V86.642C145.943 85.9413 145.751 85.3968 145.368 85.0085C144.989 84.6203 144.414 84.4261 143.642 84.4261C142.842 84.4261 142.214 84.6013 141.76 84.9517C141.305 85.3021 140.986 85.6761 140.801 86.0739L139.21 85.5057C139.494 84.8428 139.873 84.3267 140.347 83.9574C140.825 83.5833 141.346 83.3229 141.909 83.1761C142.477 83.0246 143.036 82.9489 143.585 82.9489C143.936 82.9489 144.338 82.9915 144.793 83.0767C145.252 83.1572 145.695 83.3253 146.121 83.581C146.552 83.8366 146.909 84.2225 147.193 84.7386C147.477 85.2547 147.619 85.946 147.619 86.8125V94H145.943V92.5227H145.858C145.744 92.7595 145.555 93.0128 145.29 93.2827C145.025 93.5526 144.672 93.7822 144.232 93.9716C143.791 94.161 143.254 94.2557 142.619 94.2557ZM142.875 92.75C143.538 92.75 144.097 92.6198 144.551 92.3594C145.01 92.099 145.356 91.7628 145.588 91.3509C145.825 90.9389 145.943 90.5057 145.943 90.0511V88.517C145.872 88.6023 145.716 88.6804 145.474 88.7514C145.238 88.8177 144.963 88.8769 144.651 88.929C144.343 88.9763 144.042 89.0189 143.749 89.0568C143.46 89.09 143.225 89.1184 143.045 89.142C142.61 89.1989 142.203 89.2912 141.824 89.419C141.45 89.5421 141.147 89.7292 140.915 89.9801C140.688 90.2263 140.574 90.5625 140.574 90.9886C140.574 91.571 140.789 92.0114 141.22 92.3097C141.656 92.6032 142.207 92.75 142.875 92.75ZM154.355 79.4545V94H152.679V79.4545H154.355ZM170.26 94.2557C169.569 94.2557 168.941 94.1255 168.378 93.8651C167.814 93.5999 167.367 93.2188 167.036 92.7216C166.704 92.2197 166.538 91.6136 166.538 90.9034C166.538 90.2784 166.661 89.7718 166.908 89.3835C167.154 88.9905 167.483 88.6828 167.895 88.4602C168.307 88.2377 168.761 88.072 169.259 87.9631C169.76 87.8494 170.265 87.7595 170.771 87.6932C171.434 87.608 171.972 87.544 172.384 87.5014C172.8 87.4541 173.103 87.3759 173.293 87.267C173.487 87.1581 173.584 86.9687 173.584 86.6989V86.642C173.584 85.9413 173.392 85.3968 173.009 85.0085C172.63 84.6203 172.054 84.4261 171.283 84.4261C170.482 84.4261 169.855 84.6013 169.401 84.9517C168.946 85.3021 168.626 85.6761 168.442 86.0739L166.851 85.5057C167.135 84.8428 167.514 84.3267 167.987 83.9574C168.465 83.5833 168.986 83.3229 169.55 83.1761C170.118 83.0246 170.677 82.9489 171.226 82.9489C171.576 82.9489 171.979 82.9915 172.433 83.0767C172.893 83.1572 173.335 83.3253 173.761 83.581C174.192 83.8366 174.55 84.2225 174.834 84.7386C175.118 85.2547 175.26 85.946 175.26 86.8125V94H173.584V92.5227H173.499C173.385 92.7595 173.196 93.0128 172.93 93.2827C172.665 93.5526 172.313 93.7822 171.872 93.9716C171.432 94.161 170.894 94.2557 170.26 94.2557ZM170.516 92.75C171.179 92.75 171.737 92.6198 172.192 92.3594C172.651 92.099 172.997 91.7628 173.229 91.3509C173.465 90.9389 173.584 90.5057 173.584 90.0511V88.517C173.513 88.6023 173.357 88.6804 173.115 88.7514C172.878 88.8177 172.604 88.8769 172.291 88.929C171.983 88.9763 171.683 89.0189 171.389 89.0568C171.1 89.09 170.866 89.1184 170.686 89.142C170.25 89.1989 169.843 89.2912 169.464 89.419C169.09 89.5421 168.787 89.7292 168.555 89.9801C168.328 90.2263 168.214 90.5625 168.214 90.9886C168.214 91.571 168.43 92.0114 168.861 92.3097C169.296 92.6032 169.848 92.75 170.516 92.75ZM184.439 94.2273C183.529 94.2273 182.727 93.9976 182.031 93.5384C181.335 93.0743 180.79 92.4209 180.397 91.5781C180.004 90.7306 179.808 89.7292 179.808 88.5739C179.808 87.428 180.004 86.4337 180.397 85.5909C180.79 84.7481 181.337 84.0971 182.038 83.6378C182.739 83.1785 183.548 82.9489 184.467 82.9489C185.177 82.9489 185.738 83.0672 186.15 83.304C186.567 83.536 186.884 83.8011 187.102 84.0994C187.324 84.393 187.497 84.6345 187.62 84.8239H187.762V79.4545H189.439V94H187.819V92.3239H187.62C187.497 92.5227 187.322 92.7737 187.095 93.0767C186.868 93.375 186.543 93.6425 186.122 93.8793C185.7 94.1113 185.139 94.2273 184.439 94.2273ZM184.666 92.7216C185.338 92.7216 185.906 92.5464 186.37 92.196C186.834 91.8409 187.187 91.3509 187.429 90.7259C187.67 90.0961 187.791 89.3693 187.791 88.5455C187.791 87.7311 187.672 87.0185 187.436 86.4077C187.199 85.7921 186.849 85.3139 186.385 84.973C185.921 84.6274 185.348 84.4545 184.666 84.4545C183.956 84.4545 183.364 84.6368 182.89 85.0014C182.422 85.3613 182.069 85.8513 181.832 86.4716C181.6 87.0871 181.484 87.7784 181.484 88.5455C181.484 89.322 181.602 90.0275 181.839 90.6619C182.081 91.2917 182.436 91.7936 182.904 92.1676C183.378 92.5369 183.965 92.7216 184.666 92.7216ZM203.662 83.0909L199.627 94H197.923L193.889 83.0909H195.707L198.718 91.7841H198.832L201.843 83.0909H203.662ZM212.057 94.2273C211.006 94.2273 210.099 93.9953 209.337 93.5312C208.579 93.0625 207.995 92.4091 207.583 91.571C207.176 90.7282 206.972 89.7481 206.972 88.6307C206.972 87.5133 207.176 86.5284 207.583 85.6761C207.995 84.8191 208.568 84.1515 209.301 83.6733C210.04 83.1903 210.902 82.9489 211.887 82.9489C212.455 82.9489 213.016 83.0436 213.57 83.233C214.124 83.4223 214.628 83.7301 215.083 84.1562C215.537 84.5777 215.9 85.1364 216.169 85.8324C216.439 86.5284 216.574 87.3854 216.574 88.4034V89.1136H208.165V87.6648H214.87C214.87 87.0492 214.747 86.5 214.5 86.017C214.259 85.5341 213.913 85.1529 213.463 84.8736C213.018 84.5942 212.493 84.4545 211.887 84.4545C211.219 84.4545 210.641 84.6203 210.154 84.9517C209.671 85.2784 209.299 85.7045 209.039 86.2301C208.778 86.7557 208.648 87.3191 208.648 87.9205V88.8864C208.648 89.7102 208.79 90.4086 209.074 90.9815C209.363 91.5497 209.763 91.983 210.275 92.2812C210.786 92.5748 211.38 92.7216 212.057 92.7216C212.498 92.7216 212.895 92.66 213.25 92.5369C213.61 92.4091 213.92 92.2197 214.181 91.9688C214.441 91.7131 214.642 91.3958 214.784 91.017L216.404 91.4716C216.233 92.0208 215.947 92.5038 215.544 92.9205C215.142 93.3324 214.645 93.6544 214.053 93.8864C213.461 94.1136 212.796 94.2273 212.057 94.2273ZM222.8 87.4375V94H221.124V83.0909H222.743V84.7955H222.885C223.141 84.2415 223.529 83.7964 224.05 83.4602C224.571 83.1193 225.243 82.9489 226.067 82.9489C226.806 82.9489 227.452 83.1004 228.006 83.4034C228.56 83.7017 228.991 84.1562 229.299 84.767C229.606 85.3731 229.76 86.1402 229.76 87.0682V94H228.084V87.1818C228.084 86.3248 227.862 85.6572 227.417 85.179C226.971 84.696 226.361 84.4545 225.584 84.4545C225.049 84.4545 224.571 84.5705 224.15 84.8026C223.733 85.0346 223.404 85.3731 223.162 85.8182C222.921 86.2633 222.8 86.803 222.8 87.4375ZM239.567 83.0909V84.5114H233.914V83.0909H239.567ZM235.562 80.4773H237.238V90.875C237.238 91.3485 237.307 91.7036 237.444 91.9403C237.586 92.1723 237.766 92.3286 237.984 92.4091C238.206 92.4848 238.441 92.5227 238.687 92.5227C238.871 92.5227 239.023 92.5133 239.141 92.4943C239.26 92.4706 239.354 92.4517 239.425 92.4375L239.766 93.9432C239.653 93.9858 239.494 94.0284 239.29 94.071C239.087 94.1184 238.829 94.142 238.516 94.142C238.043 94.142 237.579 94.0402 237.124 93.8366C236.674 93.633 236.3 93.3229 236.002 92.9062C235.709 92.4896 235.562 91.964 235.562 91.3295V80.4773ZM250.964 89.5398V83.0909H252.64V94H250.964V92.1534H250.85C250.594 92.7074 250.197 93.1785 249.657 93.5668C249.117 93.9503 248.435 94.142 247.612 94.142C246.93 94.142 246.324 93.9929 245.793 93.6946C245.263 93.3916 244.846 92.937 244.543 92.331C244.24 91.7202 244.089 90.9508 244.089 90.0227V83.0909H245.765V89.9091C245.765 90.7045 245.987 91.339 246.433 91.8125C246.882 92.286 247.455 92.5227 248.151 92.5227C248.568 92.5227 248.992 92.4162 249.423 92.2031C249.858 91.9901 250.223 91.6634 250.516 91.223C250.815 90.7827 250.964 90.2216 250.964 89.5398ZM257.71 94V83.0909H259.329V84.7386H259.443C259.642 84.1989 260.002 83.7609 260.522 83.4247C261.043 83.0885 261.63 82.9205 262.284 82.9205C262.407 82.9205 262.561 82.9228 262.745 82.9276C262.93 82.9323 263.07 82.9394 263.164 82.9489V84.6534C263.108 84.6392 262.977 84.6179 262.774 84.5895C262.575 84.5563 262.364 84.5398 262.142 84.5398C261.611 84.5398 261.138 84.651 260.721 84.8736C260.309 85.0914 259.983 85.3944 259.741 85.7827C259.504 86.1662 259.386 86.6042 259.386 87.0966V94H257.71ZM271.393 94.2273C270.342 94.2273 269.435 93.9953 268.673 93.5312C267.915 93.0625 267.331 92.4091 266.919 91.571C266.511 90.7282 266.308 89.7481 266.308 88.6307C266.308 87.5133 266.511 86.5284 266.919 85.6761C267.331 84.8191 267.904 84.1515 268.637 83.6733C269.376 83.1903 270.238 82.9489 271.223 82.9489C271.791 82.9489 272.352 83.0436 272.906 83.233C273.46 83.4223 273.964 83.7301 274.419 84.1562C274.873 84.5777 275.235 85.1364 275.505 85.8324C275.775 86.5284 275.91 87.3854 275.91 88.4034V89.1136H267.501V87.6648H274.206C274.206 87.0492 274.083 86.5 273.836 86.017C273.595 85.5341 273.249 85.1529 272.799 84.8736C272.354 84.5942 271.829 84.4545 271.223 84.4545C270.555 84.4545 269.977 84.6203 269.49 84.9517C269.007 85.2784 268.635 85.7045 268.375 86.2301C268.114 86.7557 267.984 87.3191 267.984 87.9205V88.8864C267.984 89.7102 268.126 90.4086 268.41 90.9815C268.699 91.5497 269.099 91.983 269.61 92.2812C270.122 92.5748 270.716 92.7216 271.393 92.7216C271.833 92.7216 272.231 92.66 272.586 92.5369C272.946 92.4091 273.256 92.2197 273.517 91.9688C273.777 91.7131 273.978 91.3958 274.12 91.017L275.74 91.4716C275.569 92.0208 275.283 92.5038 274.88 92.9205C274.478 93.3324 273.981 93.6544 273.389 93.8864C272.797 94.1136 272.132 94.2273 271.393 94.2273ZM288.187 85.5341L286.681 85.9602C286.587 85.7093 286.447 85.4654 286.262 85.2287C286.083 84.9872 285.836 84.7884 285.524 84.6321C285.211 84.4759 284.811 84.3977 284.324 84.3977C283.656 84.3977 283.1 84.5516 282.654 84.8594C282.214 85.1624 281.994 85.5483 281.994 86.017C281.994 86.4337 282.145 86.7628 282.449 87.0043C282.752 87.2457 283.225 87.447 283.869 87.608L285.488 88.0057C286.464 88.2424 287.19 88.6046 287.669 89.0923C288.147 89.5753 288.386 90.1979 288.386 90.9602C288.386 91.5852 288.206 92.1439 287.846 92.6364C287.491 93.1288 286.994 93.517 286.355 93.8011C285.716 94.0852 284.972 94.2273 284.125 94.2273C283.012 94.2273 282.091 93.9858 281.362 93.5028C280.633 93.0199 280.171 92.3144 279.977 91.3864L281.568 90.9886C281.719 91.5758 282.006 92.0161 282.427 92.3097C282.853 92.6032 283.41 92.75 284.096 92.75C284.877 92.75 285.498 92.5843 285.957 92.2528C286.421 91.9167 286.653 91.5142 286.653 91.0455C286.653 90.6667 286.52 90.3494 286.255 90.0938C285.99 89.8333 285.583 89.6392 285.034 89.5114L283.216 89.0852C282.217 88.8485 281.483 88.4815 281.014 87.9844C280.55 87.4825 280.318 86.8551 280.318 86.1023C280.318 85.4867 280.491 84.9422 280.836 84.4688C281.187 83.9953 281.663 83.6236 282.264 83.3537C282.87 83.0838 283.556 82.9489 284.324 82.9489C285.403 82.9489 286.251 83.1856 286.866 83.6591C287.486 84.1326 287.927 84.7576 288.187 85.5341ZM294.131 94.1136C293.78 94.1136 293.48 93.9882 293.229 93.7372C292.978 93.4863 292.852 93.1856 292.852 92.8352C292.852 92.4848 292.978 92.1842 293.229 91.9332C293.48 91.6823 293.78 91.5568 294.131 91.5568C294.481 91.5568 294.782 91.6823 295.033 91.9332C295.284 92.1842 295.409 92.4848 295.409 92.8352C295.409 93.0672 295.35 93.2803 295.232 93.4744C295.118 93.6686 294.964 93.8248 294.77 93.9432C294.58 94.0568 294.367 94.1136 294.131 94.1136ZM31.2706 122L27.2933 107.455H29.0831L32.1229 119.301H32.2649L35.3615 107.455H37.3501L40.4467 119.301H40.5888L43.6286 107.455H45.4183L41.4411 122H39.6229L36.4126 110.409H36.299L33.0888 122H31.2706ZM52.8018 122.227C51.817 122.227 50.9529 121.993 50.2095 121.524C49.4709 121.055 48.8932 120.4 48.4766 119.557C48.0646 118.714 47.8587 117.729 47.8587 116.602C47.8587 115.466 48.0646 114.474 48.4766 113.626C48.8932 112.779 49.4709 112.121 50.2095 111.652C50.9529 111.183 51.817 110.949 52.8018 110.949C53.7867 110.949 54.6484 111.183 55.3871 111.652C56.1304 112.121 56.7081 112.779 57.12 113.626C57.5367 114.474 57.745 115.466 57.745 116.602C57.745 117.729 57.5367 118.714 57.12 119.557C56.7081 120.4 56.1304 121.055 55.3871 121.524C54.6484 121.993 53.7867 122.227 52.8018 122.227ZM52.8018 120.722C53.55 120.722 54.1655 120.53 54.6484 120.146C55.1314 119.763 55.4889 119.259 55.7209 118.634C55.9529 118.009 56.0689 117.331 56.0689 116.602C56.0689 115.873 55.9529 115.194 55.7209 114.564C55.4889 113.934 55.1314 113.425 54.6484 113.037C54.1655 112.649 53.55 112.455 52.8018 112.455C52.0537 112.455 51.4382 112.649 50.9553 113.037C50.4723 113.425 50.1148 113.934 49.8828 114.564C49.6508 115.194 49.5348 115.873 49.5348 116.602C49.5348 117.331 49.6508 118.009 49.8828 118.634C50.1148 119.259 50.4723 119.763 50.9553 120.146C51.4382 120.53 52.0537 120.722 52.8018 120.722ZM63.9798 115.438V122H62.3036V111.091H63.9229V112.795H64.065C64.3207 112.241 64.7089 111.796 65.2298 111.46C65.7506 111.119 66.4229 110.949 67.2468 110.949C67.9854 110.949 68.6317 111.1 69.1857 111.403C69.7397 111.702 70.1706 112.156 70.4783 112.767C70.7861 113.373 70.94 114.14 70.94 115.068V122H69.2638V115.182C69.2638 114.325 69.0413 113.657 68.5962 113.179C68.1512 112.696 67.5404 112.455 66.7638 112.455C66.2288 112.455 65.7506 112.571 65.3292 112.803C64.9125 113.035 64.5835 113.373 64.342 113.818C64.1005 114.263 63.9798 114.803 63.9798 115.438ZM80.1222 122.227C79.2131 122.227 78.4105 121.998 77.7145 121.538C77.0185 121.074 76.474 120.421 76.081 119.578C75.688 118.731 75.4915 117.729 75.4915 116.574C75.4915 115.428 75.688 114.434 76.081 113.591C76.474 112.748 77.0208 112.097 77.7216 111.638C78.4223 111.179 79.232 110.949 80.1506 110.949C80.8608 110.949 81.4219 111.067 81.8338 111.304C82.2505 111.536 82.5677 111.801 82.7855 112.099C83.008 112.393 83.1809 112.634 83.304 112.824H83.446V107.455H85.1222V122H83.5028V120.324H83.304C83.1809 120.523 83.0057 120.774 82.7784 121.077C82.5511 121.375 82.2268 121.643 81.8054 121.879C81.384 122.111 80.8229 122.227 80.1222 122.227ZM80.3494 120.722C81.0218 120.722 81.59 120.546 82.054 120.196C82.518 119.841 82.8707 119.351 83.1122 118.726C83.3537 118.096 83.4744 117.369 83.4744 116.545C83.4744 115.731 83.3561 115.018 83.1193 114.408C82.8826 113.792 82.5322 113.314 82.0682 112.973C81.6042 112.627 81.0313 112.455 80.3494 112.455C79.6392 112.455 79.0473 112.637 78.5739 113.001C78.1051 113.361 77.7524 113.851 77.5156 114.472C77.2836 115.087 77.1676 115.778 77.1676 116.545C77.1676 117.322 77.286 118.027 77.5227 118.662C77.7642 119.292 78.1193 119.794 78.5881 120.168C79.0616 120.537 79.6487 120.722 80.3494 120.722ZM94.9986 122.227C93.9474 122.227 93.0407 121.995 92.2784 121.531C91.5208 121.062 90.9361 120.409 90.5241 119.571C90.117 118.728 89.9134 117.748 89.9134 116.631C89.9134 115.513 90.117 114.528 90.5241 113.676C90.9361 112.819 91.509 112.152 92.2429 111.673C92.9815 111.19 93.8433 110.949 94.8281 110.949C95.3963 110.949 95.9574 111.044 96.5114 111.233C97.0653 111.422 97.5696 111.73 98.0241 112.156C98.4787 112.578 98.8409 113.136 99.1108 113.832C99.3807 114.528 99.5156 115.385 99.5156 116.403V117.114H91.1065V115.665H97.8111C97.8111 115.049 97.688 114.5 97.4418 114.017C97.2003 113.534 96.8546 113.153 96.4048 112.874C95.9598 112.594 95.4342 112.455 94.8281 112.455C94.1605 112.455 93.5829 112.62 93.0952 112.952C92.6122 113.278 92.2405 113.705 91.9801 114.23C91.7197 114.756 91.5895 115.319 91.5895 115.92V116.886C91.5895 117.71 91.7315 118.409 92.0156 118.982C92.3045 119.55 92.7045 119.983 93.2159 120.281C93.7273 120.575 94.3215 120.722 94.9986 120.722C95.4389 120.722 95.8366 120.66 96.1918 120.537C96.5516 120.409 96.8617 120.22 97.1222 119.969C97.3826 119.713 97.5838 119.396 97.7259 119.017L99.3452 119.472C99.1747 120.021 98.8883 120.504 98.4858 120.92C98.0833 121.332 97.5862 121.654 96.9943 121.886C96.4025 122.114 95.7372 122.227 94.9986 122.227ZM104.065 122V111.091H105.685V112.739H105.798C105.997 112.199 106.357 111.761 106.878 111.425C107.399 111.089 107.986 110.92 108.639 110.92C108.762 110.92 108.916 110.923 109.101 110.928C109.286 110.932 109.425 110.939 109.52 110.949V112.653C109.463 112.639 109.333 112.618 109.129 112.589C108.93 112.556 108.72 112.54 108.497 112.54C107.967 112.54 107.493 112.651 107.077 112.874C106.665 113.091 106.338 113.394 106.097 113.783C105.86 114.166 105.741 114.604 105.741 115.097V122H104.065ZM113.507 122V111.091H115.183V122H113.507ZM114.359 109.273C114.032 109.273 113.751 109.161 113.514 108.939C113.282 108.716 113.166 108.449 113.166 108.136C113.166 107.824 113.282 107.556 113.514 107.334C113.751 107.111 114.032 107 114.359 107C114.686 107 114.965 107.111 115.197 107.334C115.434 107.556 115.552 107.824 115.552 108.136C115.552 108.449 115.434 108.716 115.197 108.939C114.965 109.161 114.686 109.273 114.359 109.273ZM123.463 122.256C122.772 122.256 122.144 122.125 121.581 121.865C121.018 121.6 120.57 121.219 120.239 120.722C119.907 120.22 119.741 119.614 119.741 118.903C119.741 118.278 119.865 117.772 120.111 117.384C120.357 116.991 120.686 116.683 121.098 116.46C121.51 116.238 121.964 116.072 122.462 115.963C122.964 115.849 123.468 115.759 123.974 115.693C124.637 115.608 125.175 115.544 125.587 115.501C126.003 115.454 126.306 115.376 126.496 115.267C126.69 115.158 126.787 114.969 126.787 114.699V114.642C126.787 113.941 126.595 113.397 126.212 113.009C125.833 112.62 125.258 112.426 124.486 112.426C123.686 112.426 123.058 112.601 122.604 112.952C122.149 113.302 121.83 113.676 121.645 114.074L120.054 113.506C120.338 112.843 120.717 112.327 121.19 111.957C121.669 111.583 122.189 111.323 122.753 111.176C123.321 111.025 123.88 110.949 124.429 110.949C124.779 110.949 125.182 110.991 125.636 111.077C126.096 111.157 126.538 111.325 126.964 111.581C127.395 111.837 127.753 112.223 128.037 112.739C128.321 113.255 128.463 113.946 128.463 114.812V122H126.787V120.523H126.702C126.588 120.759 126.399 121.013 126.134 121.283C125.868 121.553 125.516 121.782 125.075 121.972C124.635 122.161 124.098 122.256 123.463 122.256ZM123.719 120.75C124.382 120.75 124.94 120.62 125.395 120.359C125.854 120.099 126.2 119.763 126.432 119.351C126.669 118.939 126.787 118.506 126.787 118.051V116.517C126.716 116.602 126.56 116.68 126.318 116.751C126.081 116.818 125.807 116.877 125.494 116.929C125.187 116.976 124.886 117.019 124.592 117.057C124.304 117.09 124.069 117.118 123.889 117.142C123.454 117.199 123.046 117.291 122.668 117.419C122.294 117.542 121.991 117.729 121.759 117.98C121.531 118.226 121.418 118.562 121.418 118.989C121.418 119.571 121.633 120.011 122.064 120.31C122.5 120.603 123.051 120.75 123.719 120.75ZM145.892 111.091V112.511H140.238V111.091H145.892ZM141.886 108.477H143.562V118.875C143.562 119.348 143.631 119.704 143.768 119.94C143.91 120.172 144.09 120.329 144.308 120.409C144.53 120.485 144.765 120.523 145.011 120.523C145.196 120.523 145.347 120.513 145.466 120.494C145.584 120.471 145.679 120.452 145.75 120.438L146.091 121.943C145.977 121.986 145.818 122.028 145.615 122.071C145.411 122.118 145.153 122.142 144.841 122.142C144.367 122.142 143.903 122.04 143.449 121.837C142.999 121.633 142.625 121.323 142.326 120.906C142.033 120.49 141.886 119.964 141.886 119.33V108.477ZM157.288 117.54V111.091H158.964V122H157.288V120.153H157.174C156.919 120.707 156.521 121.179 155.981 121.567C155.441 121.95 154.76 122.142 153.936 122.142C153.254 122.142 152.648 121.993 152.118 121.695C151.587 121.392 151.171 120.937 150.868 120.331C150.565 119.72 150.413 118.951 150.413 118.023V111.091H152.089V117.909C152.089 118.705 152.312 119.339 152.757 119.812C153.207 120.286 153.779 120.523 154.475 120.523C154.892 120.523 155.316 120.416 155.747 120.203C156.182 119.99 156.547 119.663 156.841 119.223C157.139 118.783 157.288 118.222 157.288 117.54ZM164.034 122V111.091H165.653V112.739H165.767C165.966 112.199 166.326 111.761 166.847 111.425C167.367 111.089 167.955 110.92 168.608 110.92C168.731 110.92 168.885 110.923 169.07 110.928C169.254 110.932 169.394 110.939 169.489 110.949V112.653C169.432 112.639 169.302 112.618 169.098 112.589C168.899 112.556 168.688 112.54 168.466 112.54C167.936 112.54 167.462 112.651 167.045 112.874C166.634 113.091 166.307 113.394 166.065 113.783C165.829 114.166 165.71 114.604 165.71 115.097V122H164.034ZM175.152 115.438V122H173.475V111.091H175.095V112.795H175.237C175.493 112.241 175.881 111.796 176.402 111.46C176.922 111.119 177.595 110.949 178.419 110.949C179.157 110.949 179.804 111.1 180.358 111.403C180.912 111.702 181.342 112.156 181.65 112.767C181.958 113.373 182.112 114.14 182.112 115.068V122H180.436V115.182C180.436 114.325 180.213 113.657 179.768 113.179C179.323 112.696 178.712 112.455 177.936 112.455C177.401 112.455 176.922 112.571 176.501 112.803C176.084 113.035 175.755 113.373 175.514 113.818C175.272 114.263 175.152 114.803 175.152 115.438ZM194.902 113.534L193.396 113.96C193.302 113.709 193.162 113.465 192.977 113.229C192.797 112.987 192.551 112.788 192.239 112.632C191.926 112.476 191.526 112.398 191.038 112.398C190.371 112.398 189.814 112.552 189.369 112.859C188.929 113.162 188.709 113.548 188.709 114.017C188.709 114.434 188.86 114.763 189.163 115.004C189.466 115.246 189.94 115.447 190.584 115.608L192.203 116.006C193.179 116.242 193.905 116.605 194.384 117.092C194.862 117.575 195.101 118.198 195.101 118.96C195.101 119.585 194.921 120.144 194.561 120.636C194.206 121.129 193.709 121.517 193.07 121.801C192.43 122.085 191.687 122.227 190.839 122.227C189.727 122.227 188.806 121.986 188.077 121.503C187.348 121.02 186.886 120.314 186.692 119.386L188.283 118.989C188.434 119.576 188.721 120.016 189.142 120.31C189.568 120.603 190.125 120.75 190.811 120.75C191.592 120.75 192.213 120.584 192.672 120.253C193.136 119.917 193.368 119.514 193.368 119.045C193.368 118.667 193.235 118.349 192.97 118.094C192.705 117.833 192.298 117.639 191.749 117.511L189.93 117.085C188.931 116.848 188.197 116.482 187.729 115.984C187.265 115.482 187.033 114.855 187.033 114.102C187.033 113.487 187.205 112.942 187.551 112.469C187.902 111.995 188.377 111.624 188.979 111.354C189.585 111.084 190.271 110.949 191.038 110.949C192.118 110.949 192.965 111.186 193.581 111.659C194.201 112.133 194.642 112.758 194.902 113.534ZM207.249 122V111.091H208.868V112.795H209.01C209.238 112.213 209.605 111.761 210.111 111.439C210.618 111.112 211.226 110.949 211.936 110.949C212.656 110.949 213.255 111.112 213.733 111.439C214.216 111.761 214.593 112.213 214.863 112.795H214.976C215.256 112.232 215.675 111.785 216.233 111.453C216.792 111.117 217.462 110.949 218.243 110.949C219.219 110.949 220.016 111.254 220.637 111.865C221.257 112.471 221.567 113.416 221.567 114.699V122H219.891V114.699C219.891 113.894 219.671 113.319 219.23 112.973C218.79 112.627 218.272 112.455 217.675 112.455C216.908 112.455 216.314 112.687 215.892 113.151C215.471 113.61 215.26 114.192 215.26 114.898V122H213.556V114.528C213.556 113.908 213.355 113.409 212.952 113.03C212.55 112.646 212.031 112.455 211.397 112.455C210.961 112.455 210.554 112.571 210.175 112.803C209.801 113.035 209.498 113.357 209.266 113.768C209.039 114.176 208.925 114.647 208.925 115.182V122H207.249ZM233.507 117.54V111.091H235.183V122H233.507V120.153H233.393C233.137 120.707 232.74 121.179 232.2 121.567C231.66 121.95 230.978 122.142 230.154 122.142C229.473 122.142 228.867 121.993 228.336 121.695C227.806 121.392 227.389 120.937 227.086 120.331C226.783 119.72 226.632 118.951 226.632 118.023V111.091H228.308V117.909C228.308 118.705 228.53 119.339 228.975 119.812C229.425 120.286 229.998 120.523 230.694 120.523C231.111 120.523 231.535 120.416 231.966 120.203C232.401 119.99 232.766 119.663 233.059 119.223C233.358 118.783 233.507 118.222 233.507 117.54ZM247.98 113.534L246.474 113.96C246.38 113.709 246.24 113.465 246.055 113.229C245.875 112.987 245.629 112.788 245.317 112.632C245.004 112.476 244.604 112.398 244.116 112.398C243.449 112.398 242.893 112.552 242.447 112.859C242.007 113.162 241.787 113.548 241.787 114.017C241.787 114.434 241.938 114.763 242.241 115.004C242.545 115.246 243.018 115.447 243.662 115.608L245.281 116.006C246.257 116.242 246.983 116.605 247.462 117.092C247.94 117.575 248.179 118.198 248.179 118.96C248.179 119.585 247.999 120.144 247.639 120.636C247.284 121.129 246.787 121.517 246.148 121.801C245.509 122.085 244.765 122.227 243.918 122.227C242.805 122.227 241.884 121.986 241.155 121.503C240.426 121.02 239.964 120.314 239.77 119.386L241.361 118.989C241.512 119.576 241.799 120.016 242.22 120.31C242.646 120.603 243.203 120.75 243.889 120.75C244.67 120.75 245.291 120.584 245.75 120.253C246.214 119.917 246.446 119.514 246.446 119.045C246.446 118.667 246.313 118.349 246.048 118.094C245.783 117.833 245.376 117.639 244.827 117.511L243.009 117.085C242.009 116.848 241.276 116.482 240.807 115.984C240.343 115.482 240.111 114.855 240.111 114.102C240.111 113.487 240.284 112.942 240.629 112.469C240.98 111.995 241.455 111.624 242.057 111.354C242.663 111.084 243.349 110.949 244.116 110.949C245.196 110.949 246.044 111.186 246.659 111.659C247.279 112.133 247.72 112.758 247.98 113.534ZM252.702 122V111.091H254.378V122H252.702ZM253.554 109.273C253.228 109.273 252.946 109.161 252.709 108.939C252.477 108.716 252.361 108.449 252.361 108.136C252.361 107.824 252.477 107.556 252.709 107.334C252.946 107.111 253.228 107 253.554 107C253.881 107 254.16 107.111 254.392 107.334C254.629 107.556 254.748 107.824 254.748 108.136C254.748 108.449 254.629 108.716 254.392 108.939C254.16 109.161 253.881 109.273 253.554 109.273ZM263.88 122.227C262.857 122.227 261.977 121.986 261.238 121.503C260.499 121.02 259.931 120.355 259.533 119.507C259.136 118.66 258.937 117.691 258.937 116.602C258.937 115.494 259.14 114.517 259.548 113.669C259.96 112.817 260.532 112.152 261.266 111.673C262.005 111.19 262.867 110.949 263.852 110.949C264.619 110.949 265.31 111.091 265.925 111.375C266.541 111.659 267.045 112.057 267.438 112.568C267.831 113.08 268.075 113.676 268.17 114.358H266.494C266.366 113.861 266.082 113.42 265.641 113.037C265.206 112.649 264.619 112.455 263.88 112.455C263.227 112.455 262.654 112.625 262.161 112.966C261.674 113.302 261.292 113.778 261.018 114.393C260.748 115.004 260.613 115.722 260.613 116.545C260.613 117.388 260.746 118.122 261.011 118.747C261.281 119.372 261.659 119.857 262.147 120.203C262.639 120.549 263.217 120.722 263.88 120.722C264.316 120.722 264.711 120.646 265.066 120.494C265.421 120.343 265.722 120.125 265.968 119.841C266.214 119.557 266.389 119.216 266.494 118.818H268.17C268.075 119.462 267.841 120.042 267.467 120.558C267.097 121.07 266.607 121.477 265.996 121.78C265.39 122.078 264.685 122.227 263.88 122.227ZM280.245 122V111.091H281.921V122H280.245ZM281.097 109.273C280.771 109.273 280.489 109.161 280.252 108.939C280.02 108.716 279.904 108.449 279.904 108.136C279.904 107.824 280.02 107.556 280.252 107.334C280.489 107.111 280.771 107 281.097 107C281.424 107 281.703 107.111 281.935 107.334C282.172 107.556 282.29 107.824 282.29 108.136C282.29 108.449 282.172 108.716 281.935 108.939C281.703 109.161 281.424 109.273 281.097 109.273ZM288.667 115.438V122H286.991V111.091H288.61V112.795H288.752C289.008 112.241 289.396 111.796 289.917 111.46C290.438 111.119 291.11 110.949 291.934 110.949C292.673 110.949 293.319 111.1 293.873 111.403C294.427 111.702 294.858 112.156 295.166 112.767C295.474 113.373 295.627 114.14 295.627 115.068V122H293.951V115.182C293.951 114.325 293.729 113.657 293.284 113.179C292.839 112.696 292.228 112.455 291.451 112.455C290.916 112.455 290.438 112.571 290.017 112.803C289.6 113.035 289.271 113.373 289.029 113.818C288.788 114.263 288.667 114.803 288.667 115.438ZM305.435 111.091V112.511H299.781V111.091H305.435ZM301.429 108.477H303.105V118.875C303.105 119.348 303.174 119.704 303.311 119.94C303.453 120.172 303.633 120.329 303.851 120.409C304.073 120.485 304.308 120.523 304.554 120.523C304.739 120.523 304.89 120.513 305.009 120.494C305.127 120.471 305.222 120.452 305.293 120.438L305.634 121.943C305.52 121.986 305.361 122.028 305.158 122.071C304.954 122.118 304.696 122.142 304.384 122.142C303.91 122.142 303.446 122.04 302.991 121.837C302.542 121.633 302.168 121.323 301.869 120.906C301.576 120.49 301.429 119.964 301.429 119.33V108.477ZM314.271 122.227C313.286 122.227 312.422 121.993 311.678 121.524C310.94 121.055 310.362 120.4 309.945 119.557C309.533 118.714 309.327 117.729 309.327 116.602C309.327 115.466 309.533 114.474 309.945 113.626C310.362 112.779 310.94 112.121 311.678 111.652C312.422 111.183 313.286 110.949 314.271 110.949C315.255 110.949 316.117 111.183 316.856 111.652C317.599 112.121 318.177 112.779 318.589 113.626C319.005 114.474 319.214 115.466 319.214 116.602C319.214 117.729 319.005 118.714 318.589 119.557C318.177 120.4 317.599 121.055 316.856 121.524C316.117 121.993 315.255 122.227 314.271 122.227ZM314.271 120.722C315.019 120.722 315.634 120.53 316.117 120.146C316.6 119.763 316.958 119.259 317.19 118.634C317.422 118.009 317.538 117.331 317.538 116.602C317.538 115.873 317.422 115.194 317.19 114.564C316.958 113.934 316.6 113.425 316.117 113.037C315.634 112.649 315.019 112.455 314.271 112.455C313.522 112.455 312.907 112.649 312.424 113.037C311.941 113.425 311.584 113.934 311.352 114.564C311.12 115.194 311.004 115.873 311.004 116.602C311.004 117.331 311.12 118.009 311.352 118.634C311.584 119.259 311.941 119.763 312.424 120.146C312.907 120.53 313.522 120.722 314.271 120.722ZM334.608 122.256C333.916 122.256 333.289 122.125 332.725 121.865C332.162 121.6 331.715 121.219 331.383 120.722C331.052 120.22 330.886 119.614 330.886 118.903C330.886 118.278 331.009 117.772 331.255 117.384C331.502 116.991 331.831 116.683 332.243 116.46C332.654 116.238 333.109 116.072 333.606 115.963C334.108 115.849 334.612 115.759 335.119 115.693C335.782 115.608 336.319 115.544 336.731 115.501C337.148 115.454 337.451 115.376 337.64 115.267C337.834 115.158 337.931 114.969 337.931 114.699V114.642C337.931 113.941 337.74 113.397 337.356 113.009C336.977 112.62 336.402 112.426 335.63 112.426C334.83 112.426 334.203 112.601 333.748 112.952C333.294 113.302 332.974 113.676 332.789 114.074L331.199 113.506C331.483 112.843 331.861 112.327 332.335 111.957C332.813 111.583 333.334 111.323 333.897 111.176C334.466 111.025 335.024 110.949 335.574 110.949C335.924 110.949 336.326 110.991 336.781 111.077C337.24 111.157 337.683 111.325 338.109 111.581C338.54 111.837 338.897 112.223 339.181 112.739C339.466 113.255 339.608 113.946 339.608 114.812V122H337.931V120.523H337.846C337.733 120.759 337.543 121.013 337.278 121.283C337.013 121.553 336.66 121.782 336.22 121.972C335.779 122.161 335.242 122.256 334.608 122.256ZM334.863 120.75C335.526 120.75 336.085 120.62 336.539 120.359C336.999 120.099 337.344 119.763 337.576 119.351C337.813 118.939 337.931 118.506 337.931 118.051V116.517C337.86 116.602 337.704 116.68 337.463 116.751C337.226 116.818 336.951 116.877 336.639 116.929C336.331 116.976 336.03 117.019 335.737 117.057C335.448 117.09 335.214 117.118 335.034 117.142C334.598 117.199 334.191 117.291 333.812 117.419C333.438 117.542 333.135 117.729 332.903 117.98C332.676 118.226 332.562 118.562 332.562 118.989C332.562 119.571 332.778 120.011 333.208 120.31C333.644 120.603 334.196 120.75 334.863 120.75ZM28.0781 154.318C27.2685 154.318 26.5724 154.214 25.9901 154.006C25.4077 153.802 24.9223 153.532 24.5341 153.196C24.1506 152.865 23.8452 152.509 23.6179 152.131L24.9531 151.193C25.1046 151.392 25.2964 151.619 25.5284 151.875C25.7604 152.135 26.0777 152.36 26.4801 152.55C26.8873 152.744 27.42 152.841 28.0781 152.841C28.9588 152.841 29.6856 152.628 30.2585 152.202C30.8314 151.776 31.1179 151.108 31.1179 150.199V147.983H30.9759C30.8527 148.182 30.6776 148.428 30.4503 148.722C30.2277 149.01 29.9058 149.268 29.4844 149.496C29.0677 149.718 28.5043 149.83 27.794 149.83C26.9134 149.83 26.1226 149.621 25.4219 149.205C24.7259 148.788 24.1742 148.182 23.767 147.386C23.3646 146.591 23.1634 145.625 23.1634 144.489C23.1634 143.371 23.3598 142.398 23.7528 141.57C24.1458 140.736 24.6927 140.092 25.3935 139.638C26.0942 139.179 26.9039 138.949 27.8224 138.949C28.5327 138.949 29.0961 139.067 29.5128 139.304C29.9342 139.536 30.2562 139.801 30.4787 140.099C30.706 140.393 30.8812 140.634 31.0043 140.824H31.1747V139.091H32.794V150.312C32.794 151.25 32.581 152.012 32.1548 152.599C31.7334 153.191 31.1652 153.625 30.4503 153.899C29.7401 154.179 28.9493 154.318 28.0781 154.318ZM28.0213 148.324C28.6937 148.324 29.2618 148.17 29.7259 147.862C30.1899 147.554 30.5426 147.112 30.7841 146.534C31.0256 145.956 31.1463 145.265 31.1463 144.46C31.1463 143.674 31.0279 142.981 30.7912 142.379C30.5545 141.778 30.2041 141.307 29.7401 140.966C29.276 140.625 28.7031 140.455 28.0213 140.455C27.3111 140.455 26.7192 140.634 26.2457 140.994C25.777 141.354 25.4242 141.837 25.1875 142.443C24.9555 143.049 24.8395 143.722 24.8395 144.46C24.8395 145.218 24.9579 145.888 25.1946 146.47C25.4361 147.048 25.7912 147.502 26.2599 147.834C26.7334 148.161 27.3205 148.324 28.0213 148.324ZM41.0724 150.256C40.3812 150.256 39.7538 150.125 39.1903 149.865C38.6269 149.6 38.1795 149.219 37.848 148.722C37.5166 148.22 37.3509 147.614 37.3509 146.903C37.3509 146.278 37.474 145.772 37.7202 145.384C37.9664 144.991 38.2955 144.683 38.7074 144.46C39.1193 144.238 39.5739 144.072 40.071 143.963C40.5729 143.849 41.0772 143.759 41.5838 143.693C42.2467 143.608 42.7841 143.544 43.196 143.501C43.6127 143.454 43.9157 143.376 44.1051 143.267C44.2992 143.158 44.3963 142.969 44.3963 142.699V142.642C44.3963 141.941 44.2045 141.397 43.821 141.009C43.4422 140.62 42.867 140.426 42.0952 140.426C41.295 140.426 40.6676 140.601 40.2131 140.952C39.7585 141.302 39.4389 141.676 39.2543 142.074L37.6634 141.506C37.9474 140.843 38.3262 140.327 38.7997 139.957C39.2779 139.583 39.7988 139.323 40.3622 139.176C40.9304 139.025 41.4891 138.949 42.0384 138.949C42.3887 138.949 42.7912 138.991 43.2457 139.077C43.705 139.157 44.1477 139.325 44.5739 139.581C45.0047 139.837 45.3622 140.223 45.6463 140.739C45.9304 141.255 46.0724 141.946 46.0724 142.812V150H44.3963V148.523H44.3111C44.1974 148.759 44.008 149.013 43.7429 149.283C43.4777 149.553 43.125 149.782 42.6847 149.972C42.2443 150.161 41.7069 150.256 41.0724 150.256ZM41.3281 148.75C41.991 148.75 42.5497 148.62 43.0043 148.359C43.4635 148.099 43.8092 147.763 44.0412 147.351C44.2779 146.939 44.3963 146.506 44.3963 146.051V144.517C44.3253 144.602 44.169 144.68 43.9276 144.751C43.6908 144.818 43.4162 144.877 43.1037 144.929C42.7959 144.976 42.4953 145.019 42.2017 145.057C41.9129 145.09 41.6785 145.118 41.4986 145.142C41.063 145.199 40.6558 145.291 40.277 145.419C39.9029 145.542 39.5999 145.729 39.3679 145.98C39.1406 146.226 39.027 146.562 39.027 146.989C39.027 147.571 39.2424 148.011 39.6733 148.31C40.1089 148.603 40.6605 148.75 41.3281 148.75ZM51.1317 150V139.091H52.7511V140.795H52.8931C53.1204 140.213 53.4873 139.761 53.994 139.439C54.5006 139.112 55.109 138.949 55.8192 138.949C56.5389 138.949 57.1379 139.112 57.6161 139.439C58.0991 139.761 58.4755 140.213 58.7454 140.795H58.859C59.1384 140.232 59.5574 139.785 60.1161 139.453C60.6748 139.117 61.3448 138.949 62.1261 138.949C63.1014 138.949 63.8993 139.254 64.5195 139.865C65.1398 140.471 65.4499 141.416 65.4499 142.699V150H63.7738V142.699C63.7738 141.894 63.5536 141.319 63.1133 140.973C62.6729 140.627 62.1545 140.455 61.5579 140.455C60.7908 140.455 60.1966 140.687 59.7752 141.151C59.3538 141.61 59.1431 142.192 59.1431 142.898V150H57.4386V142.528C57.4386 141.908 57.2373 141.409 56.8349 141.03C56.4324 140.646 55.9139 140.455 55.2795 140.455C54.8439 140.455 54.4367 140.571 54.0579 140.803C53.6838 141.035 53.3808 141.357 53.1488 141.768C52.9215 142.176 52.8079 142.647 52.8079 143.182V150H51.1317ZM75.0884 150.227C74.0373 150.227 73.1306 149.995 72.3683 149.531C71.6107 149.062 71.0259 148.409 70.614 147.571C70.2068 146.728 70.0032 145.748 70.0032 144.631C70.0032 143.513 70.2068 142.528 70.614 141.676C71.0259 140.819 71.5988 140.152 72.3327 139.673C73.0714 139.19 73.9331 138.949 74.918 138.949C75.4862 138.949 76.0472 139.044 76.6012 139.233C77.1552 139.422 77.6594 139.73 78.114 140.156C78.5685 140.578 78.9308 141.136 79.2006 141.832C79.4705 142.528 79.6055 143.385 79.6055 144.403V145.114H71.1964V143.665H77.9009C77.9009 143.049 77.7778 142.5 77.5316 142.017C77.2901 141.534 76.9445 141.153 76.4947 140.874C76.0496 140.594 75.524 140.455 74.918 140.455C74.2504 140.455 73.6727 140.62 73.185 140.952C72.7021 141.278 72.3304 141.705 72.07 142.23C71.8095 142.756 71.6793 143.319 71.6793 143.92V144.886C71.6793 145.71 71.8214 146.409 72.1055 146.982C72.3943 147.55 72.7944 147.983 73.3058 148.281C73.8171 148.575 74.4113 148.722 75.0884 148.722C75.5288 148.722 75.9265 148.66 76.2816 148.537C76.6415 148.409 76.9516 148.22 77.212 147.969C77.4724 147.713 77.6737 147.396 77.8157 147.017L79.435 147.472C79.2646 148.021 78.9781 148.504 78.5756 148.92C78.1732 149.332 77.676 149.654 77.0842 149.886C76.4923 150.114 75.8271 150.227 75.0884 150.227ZM93.3427 146.023L93.3143 143.949H93.6552L98.4279 139.091H100.502L95.4165 144.233H95.2745L93.3427 146.023ZM91.7802 150V135.455H93.4563V150H91.7802ZM98.712 150L94.4506 144.602L95.6438 143.438L100.843 150H98.712ZM108.784 150.227C107.733 150.227 106.826 149.995 106.064 149.531C105.306 149.062 104.721 148.409 104.309 147.571C103.902 146.728 103.699 145.748 103.699 144.631C103.699 143.513 103.902 142.528 104.309 141.676C104.721 140.819 105.294 140.152 106.028 139.673C106.767 139.19 107.628 138.949 108.613 138.949C109.181 138.949 109.743 139.044 110.297 139.233C110.85 139.422 111.355 139.73 111.809 140.156C112.264 140.578 112.626 141.136 112.896 141.832C113.166 142.528 113.301 143.385 113.301 144.403V145.114H104.892V143.665H111.596C111.596 143.049 111.473 142.5 111.227 142.017C110.985 141.534 110.64 141.153 110.19 140.874C109.745 140.594 109.219 140.455 108.613 140.455C107.946 140.455 107.368 140.62 106.88 140.952C106.397 141.278 106.026 141.705 105.765 142.23C105.505 142.756 105.375 143.319 105.375 143.92V144.886C105.375 145.71 105.517 146.409 105.801 146.982C106.09 147.55 106.49 147.983 107.001 148.281C107.512 148.575 108.107 148.722 108.784 148.722C109.224 148.722 109.622 148.66 109.977 148.537C110.337 148.409 110.647 148.22 110.907 147.969C111.168 147.713 111.369 147.396 111.511 147.017L113.13 147.472C112.96 148.021 112.673 148.504 112.271 148.92C111.868 149.332 111.371 149.654 110.779 149.886C110.188 150.114 109.522 150.227 108.784 150.227ZM122.424 150.227C121.373 150.227 120.467 149.995 119.704 149.531C118.947 149.062 118.362 148.409 117.95 147.571C117.543 146.728 117.339 145.748 117.339 144.631C117.339 143.513 117.543 142.528 117.95 141.676C118.362 140.819 118.935 140.152 119.669 139.673C120.407 139.19 121.269 138.949 122.254 138.949C122.822 138.949 123.383 139.044 123.937 139.233C124.491 139.422 124.995 139.73 125.45 140.156C125.904 140.578 126.267 141.136 126.537 141.832C126.806 142.528 126.941 143.385 126.941 144.403V145.114H118.532V143.665H125.237C125.237 143.049 125.114 142.5 124.868 142.017C124.626 141.534 124.28 141.153 123.831 140.874C123.386 140.594 122.86 140.455 122.254 140.455C121.586 140.455 121.009 140.62 120.521 140.952C120.038 141.278 119.666 141.705 119.406 142.23C119.145 142.756 119.015 143.319 119.015 143.92V144.886C119.015 145.71 119.157 146.409 119.441 146.982C119.73 147.55 120.13 147.983 120.642 148.281C121.153 148.575 121.747 148.722 122.424 148.722C122.865 148.722 123.262 148.66 123.618 148.537C123.977 148.409 124.288 148.22 124.548 147.969C124.808 147.713 125.01 147.396 125.152 147.017L126.771 147.472C126.6 148.021 126.314 148.504 125.912 148.92C125.509 149.332 125.012 149.654 124.42 149.886C123.828 150.114 123.163 150.227 122.424 150.227ZM131.491 154.091V139.091H133.11V140.824H133.309C133.432 140.634 133.603 140.393 133.821 140.099C134.043 139.801 134.36 139.536 134.772 139.304C135.189 139.067 135.752 138.949 136.463 138.949C137.381 138.949 138.191 139.179 138.892 139.638C139.592 140.097 140.139 140.748 140.532 141.591C140.925 142.434 141.122 143.428 141.122 144.574C141.122 145.729 140.925 146.731 140.532 147.578C140.139 148.421 139.595 149.074 138.899 149.538C138.203 149.998 137.4 150.227 136.491 150.227C135.79 150.227 135.229 150.111 134.808 149.879C134.386 149.643 134.062 149.375 133.835 149.077C133.608 148.774 133.432 148.523 133.309 148.324H133.167V154.091H131.491ZM133.139 144.545C133.139 145.369 133.26 146.096 133.501 146.726C133.743 147.351 134.095 147.841 134.559 148.196C135.023 148.546 135.592 148.722 136.264 148.722C136.965 148.722 137.549 148.537 138.018 148.168C138.492 147.794 138.847 147.292 139.083 146.662C139.325 146.027 139.446 145.322 139.446 144.545C139.446 143.778 139.327 143.087 139.091 142.472C138.859 141.851 138.506 141.361 138.032 141.001C137.564 140.637 136.974 140.455 136.264 140.455C135.582 140.455 135.009 140.627 134.545 140.973C134.081 141.314 133.731 141.792 133.494 142.408C133.257 143.018 133.139 143.731 133.139 144.545ZM145.679 150V139.091H147.355V150H145.679ZM146.531 137.273C146.204 137.273 145.922 137.161 145.686 136.939C145.454 136.716 145.338 136.449 145.338 136.136C145.338 135.824 145.454 135.556 145.686 135.334C145.922 135.111 146.204 135 146.531 135C146.858 135 147.137 135.111 147.369 135.334C147.606 135.556 147.724 135.824 147.724 136.136C147.724 136.449 147.606 136.716 147.369 136.939C147.137 137.161 146.858 137.273 146.531 137.273ZM154.101 143.438V150H152.425V139.091H154.044V140.795H154.186C154.442 140.241 154.83 139.796 155.351 139.46C155.872 139.119 156.544 138.949 157.368 138.949C158.107 138.949 158.753 139.1 159.307 139.403C159.861 139.702 160.292 140.156 160.599 140.767C160.907 141.373 161.061 142.14 161.061 143.068V150H159.385V143.182C159.385 142.325 159.162 141.657 158.717 141.179C158.272 140.696 157.661 140.455 156.885 140.455C156.35 140.455 155.872 140.571 155.45 140.803C155.034 141.035 154.705 141.373 154.463 141.818C154.222 142.263 154.101 142.803 154.101 143.438ZM170.527 154.318C169.718 154.318 169.022 154.214 168.439 154.006C167.857 153.802 167.372 153.532 166.983 153.196C166.6 152.865 166.294 152.509 166.067 152.131L167.402 151.193C167.554 151.392 167.746 151.619 167.978 151.875C168.21 152.135 168.527 152.36 168.929 152.55C169.337 152.744 169.869 152.841 170.527 152.841C171.408 152.841 172.135 152.628 172.708 152.202C173.281 151.776 173.567 151.108 173.567 150.199V147.983H173.425C173.302 148.182 173.127 148.428 172.9 148.722C172.677 149.01 172.355 149.268 171.934 149.496C171.517 149.718 170.953 149.83 170.243 149.83C169.363 149.83 168.572 149.621 167.871 149.205C167.175 148.788 166.623 148.182 166.216 147.386C165.814 146.591 165.613 145.625 165.613 144.489C165.613 143.371 165.809 142.398 166.202 141.57C166.595 140.736 167.142 140.092 167.843 139.638C168.543 139.179 169.353 138.949 170.272 138.949C170.982 138.949 171.545 139.067 171.962 139.304C172.383 139.536 172.705 139.801 172.928 140.099C173.155 140.393 173.33 140.634 173.453 140.824H173.624V139.091H175.243V150.312C175.243 151.25 175.03 152.012 174.604 152.599C174.183 153.191 173.614 153.625 172.9 153.899C172.189 154.179 171.399 154.318 170.527 154.318ZM170.471 148.324C171.143 148.324 171.711 148.17 172.175 147.862C172.639 147.554 172.992 147.112 173.233 146.534C173.475 145.956 173.596 145.265 173.596 144.46C173.596 143.674 173.477 142.981 173.24 142.379C173.004 141.778 172.653 141.307 172.189 140.966C171.725 140.625 171.152 140.455 170.471 140.455C169.76 140.455 169.168 140.634 168.695 140.994C168.226 141.354 167.873 141.837 167.637 142.443C167.405 143.049 167.289 143.722 167.289 144.46C167.289 145.218 167.407 145.888 167.644 146.47C167.885 147.048 168.24 147.502 168.709 147.834C169.183 148.161 169.77 148.324 170.471 148.324ZM189.016 154.091C188.732 154.091 188.479 154.067 188.256 154.02C188.033 153.977 187.88 153.935 187.794 153.892L188.221 152.415C188.628 152.519 188.988 152.557 189.3 152.528C189.613 152.5 189.89 152.36 190.131 152.109C190.377 151.863 190.602 151.463 190.806 150.909L191.118 150.057L187.084 139.091H188.902L191.914 147.784H192.027L195.039 139.091H196.857L192.226 151.591C192.018 152.154 191.76 152.621 191.452 152.99C191.144 153.364 190.787 153.641 190.38 153.821C189.977 154.001 189.523 154.091 189.016 154.091ZM205.11 150.227C204.126 150.227 203.261 149.993 202.518 149.524C201.779 149.055 201.202 148.4 200.785 147.557C200.373 146.714 200.167 145.729 200.167 144.602C200.167 143.466 200.373 142.474 200.785 141.626C201.202 140.779 201.779 140.121 202.518 139.652C203.261 139.183 204.126 138.949 205.11 138.949C206.095 138.949 206.957 139.183 207.696 139.652C208.439 140.121 209.017 140.779 209.429 141.626C209.845 142.474 210.054 143.466 210.054 144.602C210.054 145.729 209.845 146.714 209.429 147.557C209.017 148.4 208.439 149.055 207.696 149.524C206.957 149.993 206.095 150.227 205.11 150.227ZM205.11 148.722C205.859 148.722 206.474 148.53 206.957 148.146C207.44 147.763 207.797 147.259 208.029 146.634C208.261 146.009 208.377 145.331 208.377 144.602C208.377 143.873 208.261 143.194 208.029 142.564C207.797 141.934 207.44 141.425 206.957 141.037C206.474 140.649 205.859 140.455 205.11 140.455C204.362 140.455 203.747 140.649 203.264 141.037C202.781 141.425 202.423 141.934 202.191 142.564C201.959 143.194 201.843 143.873 201.843 144.602C201.843 145.331 201.959 146.009 202.191 146.634C202.423 147.259 202.781 147.763 203.264 148.146C203.747 148.53 204.362 148.722 205.11 148.722ZM221.487 145.54V139.091H223.163V150H221.487V148.153H221.374C221.118 148.707 220.72 149.179 220.18 149.567C219.641 149.95 218.959 150.142 218.135 150.142C217.453 150.142 216.847 149.993 216.317 149.695C215.786 149.392 215.37 148.937 215.067 148.331C214.764 147.72 214.612 146.951 214.612 146.023V139.091H216.288V145.909C216.288 146.705 216.511 147.339 216.956 147.812C217.406 148.286 217.979 148.523 218.675 148.523C219.091 148.523 219.515 148.416 219.946 148.203C220.382 147.99 220.746 147.663 221.04 147.223C221.338 146.783 221.487 146.222 221.487 145.54ZM240.432 150.227C239.381 150.227 238.474 149.995 237.712 149.531C236.954 149.062 236.37 148.409 235.958 147.571C235.551 146.728 235.347 145.748 235.347 144.631C235.347 143.513 235.551 142.528 235.958 141.676C236.37 140.819 236.943 140.152 237.676 139.673C238.415 139.19 239.277 138.949 240.262 138.949C240.83 138.949 241.391 139.044 241.945 139.233C242.499 139.422 243.003 139.73 243.458 140.156C243.912 140.578 244.275 141.136 244.544 141.832C244.814 142.528 244.949 143.385 244.949 144.403V145.114H236.54V143.665H243.245C243.245 143.049 243.122 142.5 242.875 142.017C242.634 141.534 242.288 141.153 241.838 140.874C241.393 140.594 240.868 140.455 240.262 140.455C239.594 140.455 239.016 140.62 238.529 140.952C238.046 141.278 237.674 141.705 237.414 142.23C237.153 142.756 237.023 143.319 237.023 143.92V144.886C237.023 145.71 237.165 146.409 237.449 146.982C237.738 147.55 238.138 147.983 238.65 148.281C239.161 148.575 239.755 148.722 240.432 148.722C240.873 148.722 241.27 148.66 241.625 148.537C241.985 148.409 242.295 148.22 242.556 147.969C242.816 147.713 243.017 147.396 243.159 147.017L244.779 147.472C244.608 148.021 244.322 148.504 243.919 148.92C243.517 149.332 243.02 149.654 242.428 149.886C241.836 150.114 241.171 150.227 240.432 150.227ZM250.456 139.091L253.07 143.551L255.683 139.091H257.615L254.092 144.545L257.615 150H255.683L253.07 145.767L250.456 150H248.524L251.99 144.545L248.524 139.091H250.456ZM265.989 150.227C264.967 150.227 264.086 149.986 263.347 149.503C262.609 149.02 262.04 148.355 261.643 147.507C261.245 146.66 261.046 145.691 261.046 144.602C261.046 143.494 261.25 142.517 261.657 141.669C262.069 140.817 262.642 140.152 263.376 139.673C264.114 139.19 264.976 138.949 265.961 138.949C266.728 138.949 267.419 139.091 268.035 139.375C268.65 139.659 269.155 140.057 269.548 140.568C269.941 141.08 270.184 141.676 270.279 142.358H268.603C268.475 141.861 268.191 141.42 267.751 141.037C267.315 140.649 266.728 140.455 265.989 140.455C265.336 140.455 264.763 140.625 264.271 140.966C263.783 141.302 263.402 141.778 263.127 142.393C262.857 143.004 262.722 143.722 262.722 144.545C262.722 145.388 262.855 146.122 263.12 146.747C263.39 147.372 263.769 147.857 264.256 148.203C264.749 148.549 265.326 148.722 265.989 148.722C266.425 148.722 266.82 148.646 267.175 148.494C267.531 148.343 267.831 148.125 268.077 147.841C268.324 147.557 268.499 147.216 268.603 146.818H270.279C270.184 147.462 269.95 148.042 269.576 148.558C269.207 149.07 268.717 149.477 268.106 149.78C267.5 150.078 266.794 150.227 265.989 150.227ZM274.729 150V139.091H276.406V150H274.729ZM275.582 137.273C275.255 137.273 274.973 137.161 274.737 136.939C274.504 136.716 274.388 136.449 274.388 136.136C274.388 135.824 274.504 135.556 274.737 135.334C274.973 135.111 275.255 135 275.582 135C275.908 135 276.188 135.111 276.42 135.334C276.656 135.556 276.775 135.824 276.775 136.136C276.775 136.449 276.656 136.716 276.42 136.939C276.188 137.161 275.908 137.273 275.582 137.273ZM286.22 139.091V140.511H280.566V139.091H286.22ZM282.214 136.477H283.89V146.875C283.89 147.348 283.959 147.704 284.096 147.94C284.238 148.172 284.418 148.329 284.636 148.409C284.859 148.485 285.093 148.523 285.339 148.523C285.524 148.523 285.675 148.513 285.794 148.494C285.912 148.471 286.007 148.452 286.078 148.438L286.419 149.943C286.305 149.986 286.146 150.028 285.943 150.071C285.739 150.118 285.481 150.142 285.169 150.142C284.695 150.142 284.231 150.04 283.777 149.837C283.327 149.633 282.953 149.323 282.654 148.906C282.361 148.49 282.214 147.964 282.214 147.33V136.477ZM295.198 150.227C294.147 150.227 293.24 149.995 292.478 149.531C291.72 149.062 291.135 148.409 290.723 147.571C290.316 146.728 290.113 145.748 290.113 144.631C290.113 143.513 290.316 142.528 290.723 141.676C291.135 140.819 291.708 140.152 292.442 139.673C293.181 139.19 294.042 138.949 295.027 138.949C295.596 138.949 296.157 139.044 296.711 139.233C297.265 139.422 297.769 139.73 298.223 140.156C298.678 140.578 299.04 141.136 299.31 141.832C299.58 142.528 299.715 143.385 299.715 144.403V145.114H291.306V143.665H298.01C298.01 143.049 297.887 142.5 297.641 142.017C297.4 141.534 297.054 141.153 296.604 140.874C296.159 140.594 295.633 140.455 295.027 140.455C294.36 140.455 293.782 140.62 293.294 140.952C292.811 141.278 292.44 141.705 292.179 142.23C291.919 142.756 291.789 143.319 291.789 143.92V144.886C291.789 145.71 291.931 146.409 292.215 146.982C292.504 147.55 292.904 147.983 293.415 148.281C293.926 148.575 294.521 148.722 295.198 148.722C295.638 148.722 296.036 148.66 296.391 148.537C296.751 148.409 297.061 148.22 297.321 147.969C297.582 147.713 297.783 147.396 297.925 147.017L299.544 147.472C299.374 148.021 299.087 148.504 298.685 148.92C298.283 149.332 297.785 149.654 297.194 149.886C296.602 150.114 295.936 150.227 295.198 150.227ZM308.384 150.227C307.475 150.227 306.672 149.998 305.976 149.538C305.28 149.074 304.736 148.421 304.343 147.578C303.95 146.731 303.753 145.729 303.753 144.574C303.753 143.428 303.95 142.434 304.343 141.591C304.736 140.748 305.283 140.097 305.983 139.638C306.684 139.179 307.494 138.949 308.412 138.949C309.123 138.949 309.684 139.067 310.096 139.304C310.512 139.536 310.829 139.801 311.047 140.099C311.27 140.393 311.443 140.634 311.566 140.824H311.708V135.455H313.384V150H311.765V148.324H311.566C311.443 148.523 311.267 148.774 311.04 149.077C310.813 149.375 310.489 149.643 310.067 149.879C309.646 150.111 309.085 150.227 308.384 150.227ZM308.611 148.722C309.283 148.722 309.852 148.546 310.316 148.196C310.78 147.841 311.132 147.351 311.374 146.726C311.615 146.096 311.736 145.369 311.736 144.545C311.736 143.731 311.618 143.018 311.381 142.408C311.144 141.792 310.794 141.314 310.33 140.973C309.866 140.627 309.293 140.455 308.611 140.455C307.901 140.455 307.309 140.637 306.836 141.001C306.367 141.361 306.014 141.851 305.777 142.472C305.545 143.087 305.429 143.778 305.429 144.545C305.429 145.322 305.548 146.027 305.784 146.662C306.026 147.292 306.381 147.794 306.85 148.168C307.323 148.537 307.91 148.722 308.611 148.722ZM331.056 139.091V140.511H325.402V139.091H331.056ZM327.05 136.477H328.726V146.875C328.726 147.348 328.795 147.704 328.932 147.94C329.074 148.172 329.254 148.329 329.472 148.409C329.694 148.485 329.929 148.523 330.175 148.523C330.36 148.523 330.511 148.513 330.63 148.494C330.748 148.471 330.843 148.452 330.914 148.438L331.255 149.943C331.141 149.986 330.982 150.028 330.779 150.071C330.575 150.118 330.317 150.142 330.005 150.142C329.531 150.142 329.067 150.04 328.613 149.837C328.163 149.633 327.789 149.323 327.49 148.906C327.197 148.49 327.05 147.964 327.05 147.33V136.477ZM339.892 150.227C338.907 150.227 338.043 149.993 337.299 149.524C336.561 149.055 335.983 148.4 335.566 147.557C335.154 146.714 334.949 145.729 334.949 144.602C334.949 143.466 335.154 142.474 335.566 141.626C335.983 140.779 336.561 140.121 337.299 139.652C338.043 139.183 338.907 138.949 339.892 138.949C340.877 138.949 341.738 139.183 342.477 139.652C343.22 140.121 343.798 140.779 344.21 141.626C344.627 142.474 344.835 143.466 344.835 144.602C344.835 145.729 344.627 146.714 344.21 147.557C343.798 148.4 343.22 149.055 342.477 149.524C341.738 149.993 340.877 150.227 339.892 150.227ZM339.892 148.722C340.64 148.722 341.255 148.53 341.738 148.146C342.221 147.763 342.579 147.259 342.811 146.634C343.043 146.009 343.159 145.331 343.159 144.602C343.159 143.873 343.043 143.194 342.811 142.564C342.579 141.934 342.221 141.425 341.738 141.037C341.255 140.649 340.64 140.455 339.892 140.455C339.144 140.455 338.528 140.649 338.045 141.037C337.562 141.425 337.205 141.934 336.973 142.564C336.741 143.194 336.625 143.873 336.625 144.602C336.625 145.331 336.741 146.009 336.973 146.634C337.205 147.259 337.562 147.763 338.045 148.146C338.528 148.53 339.144 148.722 339.892 148.722ZM141.148 163.455V178H139.472V163.455H141.148ZM150.792 178.227C149.74 178.227 148.834 177.995 148.071 177.531C147.314 177.062 146.729 176.409 146.317 175.571C145.91 174.728 145.706 173.748 145.706 172.631C145.706 171.513 145.91 170.528 146.317 169.676C146.729 168.819 147.302 168.152 148.036 167.673C148.775 167.19 149.636 166.949 150.621 166.949C151.189 166.949 151.75 167.044 152.304 167.233C152.858 167.422 153.363 167.73 153.817 168.156C154.272 168.578 154.634 169.136 154.904 169.832C155.174 170.528 155.309 171.385 155.309 172.403V173.114H146.9V171.665H153.604C153.604 171.049 153.481 170.5 153.235 170.017C152.993 169.534 152.648 169.153 152.198 168.874C151.753 168.594 151.227 168.455 150.621 168.455C149.953 168.455 149.376 168.62 148.888 168.952C148.405 169.278 148.033 169.705 147.773 170.23C147.513 170.756 147.382 171.319 147.382 171.92V172.886C147.382 173.71 147.525 174.409 147.809 174.982C148.097 175.55 148.498 175.983 149.009 176.281C149.52 176.575 150.114 176.722 150.792 176.722C151.232 176.722 151.63 176.66 151.985 176.537C152.345 176.409 152.655 176.22 152.915 175.969C153.176 175.713 153.377 175.396 153.519 175.017L155.138 175.472C154.968 176.021 154.681 176.504 154.279 176.92C153.876 177.332 153.379 177.654 152.787 177.886C152.195 178.114 151.53 178.227 150.792 178.227ZM168.447 167.091L164.413 178H162.708L158.674 167.091H160.492L163.504 175.784H163.617L166.629 167.091H168.447ZM176.842 178.227C175.791 178.227 174.884 177.995 174.122 177.531C173.365 177.062 172.78 176.409 172.368 175.571C171.961 174.728 171.757 173.748 171.757 172.631C171.757 171.513 171.961 170.528 172.368 169.676C172.78 168.819 173.353 168.152 174.087 167.673C174.825 167.19 175.687 166.949 176.672 166.949C177.24 166.949 177.801 167.044 178.355 167.233C178.909 167.422 179.413 167.73 179.868 168.156C180.322 168.578 180.685 169.136 180.955 169.832C181.224 170.528 181.359 171.385 181.359 172.403V173.114H172.95V171.665H179.655C179.655 171.049 179.532 170.5 179.286 170.017C179.044 169.534 178.698 169.153 178.249 168.874C177.804 168.594 177.278 168.455 176.672 168.455C176.004 168.455 175.427 168.62 174.939 168.952C174.456 169.278 174.084 169.705 173.824 170.23C173.563 170.756 173.433 171.319 173.433 171.92V172.886C173.433 173.71 173.575 174.409 173.859 174.982C174.148 175.55 174.548 175.983 175.06 176.281C175.571 176.575 176.165 176.722 176.842 176.722C177.283 176.722 177.68 176.66 178.036 176.537C178.395 176.409 178.705 176.22 178.966 175.969C179.226 175.713 179.428 175.396 179.57 175.017L181.189 175.472C181.018 176.021 180.732 176.504 180.33 176.92C179.927 177.332 179.43 177.654 178.838 177.886C178.246 178.114 177.581 178.227 176.842 178.227ZM187.585 163.455V178H185.909V163.455H187.585ZM207.155 173.54V167.091H208.831V178H207.155V176.153H207.042C206.786 176.707 206.388 177.179 205.848 177.567C205.309 177.95 204.627 178.142 203.803 178.142C203.121 178.142 202.515 177.993 201.985 177.695C201.454 177.392 201.038 176.937 200.735 176.331C200.432 175.72 200.28 174.951 200.28 174.023V167.091H201.956V173.909C201.956 174.705 202.179 175.339 202.624 175.812C203.074 176.286 203.647 176.523 204.343 176.523C204.759 176.523 205.183 176.416 205.614 176.203C206.05 175.99 206.414 175.663 206.708 175.223C207.006 174.783 207.155 174.222 207.155 173.54ZM213.901 182.091V167.091H215.521V168.824H215.719C215.843 168.634 216.013 168.393 216.231 168.099C216.453 167.801 216.771 167.536 217.183 167.304C217.599 167.067 218.163 166.949 218.873 166.949C219.791 166.949 220.601 167.179 221.302 167.638C222.003 168.097 222.549 168.748 222.942 169.591C223.335 170.434 223.532 171.428 223.532 172.574C223.532 173.729 223.335 174.731 222.942 175.578C222.549 176.421 222.005 177.074 221.309 177.538C220.613 177.998 219.81 178.227 218.901 178.227C218.201 178.227 217.639 178.111 217.218 177.879C216.797 177.643 216.472 177.375 216.245 177.077C216.018 176.774 215.843 176.523 215.719 176.324H215.577V182.091H213.901ZM215.549 172.545C215.549 173.369 215.67 174.096 215.911 174.726C216.153 175.351 216.505 175.841 216.969 176.196C217.433 176.546 218.002 176.722 218.674 176.722C219.375 176.722 219.96 176.537 220.428 176.168C220.902 175.794 221.257 175.292 221.494 174.662C221.735 174.027 221.856 173.322 221.856 172.545C221.856 171.778 221.737 171.087 221.501 170.472C221.269 169.851 220.916 169.361 220.442 169.001C219.974 168.637 219.384 168.455 218.674 168.455C217.992 168.455 217.419 168.627 216.955 168.973C216.491 169.314 216.141 169.792 215.904 170.408C215.667 171.018 215.549 171.731 215.549 172.545ZM229.31 178.114C228.96 178.114 228.659 177.988 228.408 177.737C228.157 177.486 228.032 177.186 228.032 176.835C228.032 176.485 228.157 176.184 228.408 175.933C228.659 175.682 228.96 175.557 229.31 175.557C229.661 175.557 229.961 175.682 230.212 175.933C230.463 176.184 230.589 176.485 230.589 176.835C230.589 177.067 230.53 177.28 230.411 177.474C230.298 177.669 230.144 177.825 229.95 177.943C229.76 178.057 229.547 178.114 229.31 178.114Z" fill="#701D02"/>
</svg>
