<svg width="366" height="229" viewBox="0 0 366 229" fill="none" xmlns="http://www.w3.org/2000/svg">
<path d="M4 0.75H362C363.795 0.75 365.25 2.20507 365.25 4V91.2275C365.25 92.6158 364.336 93.8842 362.983 94.541C355.591 98.1321 350.492 105.719 350.492 114.5C350.492 123.281 355.591 130.868 362.983 134.459C364.336 135.116 365.25 136.384 365.25 137.772V225C365.25 226.795 363.795 228.25 362 228.25H4C2.20507 228.25 0.75 226.795 0.75 225V137.772C0.7501 136.384 1.66438 135.116 3.0166 134.459C10.4092 130.868 15.5078 123.281 15.5078 114.5C15.5078 105.719 10.4092 98.1321 3.0166 94.541C1.66438 93.8842 0.7501 92.6158 0.75 91.2275V4C0.75 2.20508 2.20508 0.750005 4 0.75Z" fill="white" fill-opacity="0.7" stroke="#FADC6D" stroke-width="1.5" stroke-linejoin="round"/>
<path d="M42.2672 65.4545H44.3695L49.3127 77.5284H49.4831L54.4263 65.4545H56.5286V80H54.8809V68.9489H54.7388L50.1934 80H48.6025L44.057 68.9489H43.915V80H42.2672V65.4545ZM66.4068 80.2273C65.3556 80.2273 64.4489 79.9953 63.6866 79.5312C62.929 79.0625 62.3443 78.4091 61.9324 77.571C61.5252 76.7282 61.3216 75.7481 61.3216 74.6307C61.3216 73.5133 61.5252 72.5284 61.9324 71.6761C62.3443 70.8191 62.9172 70.1515 63.6511 69.6733C64.3897 69.1903 65.2515 68.9489 66.2363 68.9489C66.8045 68.9489 67.3656 69.0436 67.9196 69.233C68.4735 69.4223 68.9778 69.7301 69.4324 70.1562C69.8869 70.5777 70.2491 71.1364 70.519 71.8324C70.7889 72.5284 70.9238 73.3854 70.9238 74.4034V75.1136H62.5147V73.6648H69.2193C69.2193 73.0492 69.0962 72.5 68.85 72.017C68.6085 71.5341 68.2628 71.1529 67.813 70.8736C67.368 70.5942 66.8424 70.4545 66.2363 70.4545C65.5687 70.4545 64.9911 70.6203 64.5034 70.9517C64.0204 71.2784 63.6487 71.7045 63.3883 72.2301C63.1279 72.7557 62.9977 73.3191 62.9977 73.9205V74.8864C62.9977 75.7102 63.1397 76.4086 63.4238 76.9815C63.7127 77.5497 64.1127 77.983 64.6241 78.2812C65.1355 78.5748 65.7297 78.7216 66.4068 78.7216C66.8471 78.7216 67.2449 78.66 67.6 78.5369C67.9598 78.4091 68.2699 78.2197 68.5304 77.9688C68.7908 77.7131 68.992 77.3958 69.1341 77.017L70.7534 77.4716C70.5829 78.0208 70.2965 78.5038 69.894 78.9205C69.4915 79.3324 68.9944 79.6544 68.4025 79.8864C67.8107 80.1136 67.1454 80.2273 66.4068 80.2273ZM80.0474 80.2273C78.9963 80.2273 78.0895 79.9953 77.3272 79.5312C76.5697 79.0625 75.9849 78.4091 75.573 77.571C75.1658 76.7282 74.9622 75.7481 74.9622 74.6307C74.9622 73.5133 75.1658 72.5284 75.573 71.6761C75.9849 70.8191 76.5578 70.1515 77.2917 69.6733C78.0304 69.1903 78.8921 68.9489 79.877 68.9489C80.4451 68.9489 81.0062 69.0436 81.5602 69.233C82.1142 69.4223 82.6184 69.7301 83.073 70.1562C83.5275 70.5777 83.8897 71.1364 84.1596 71.8324C84.4295 72.5284 84.5645 73.3854 84.5645 74.4034V75.1136H76.1554V73.6648H82.8599C82.8599 73.0492 82.7368 72.5 82.4906 72.017C82.2491 71.5341 81.9035 71.1529 81.4537 70.8736C81.0086 70.5942 80.483 70.4545 79.877 70.4545C79.2093 70.4545 78.6317 70.6203 78.144 70.9517C77.661 71.2784 77.2894 71.7045 77.0289 72.2301C76.7685 72.7557 76.6383 73.3191 76.6383 73.9205V74.8864C76.6383 75.7102 76.7804 76.4086 77.0645 76.9815C77.3533 77.5497 77.7534 77.983 78.2647 78.2812C78.7761 78.5748 79.3703 78.7216 80.0474 78.7216C80.4877 78.7216 80.8855 78.66 81.2406 78.5369C81.6004 78.4091 81.9106 78.2197 82.171 77.9688C82.4314 77.7131 82.6326 77.3958 82.7747 77.017L84.394 77.4716C84.2235 78.0208 83.9371 78.5038 83.5346 78.9205C83.1322 79.3324 82.635 79.6544 82.0431 79.8864C81.4513 80.1136 80.786 80.2273 80.0474 80.2273ZM93.8585 69.0909V70.5114H88.2051V69.0909H93.8585ZM89.8528 66.4773H91.5289V76.875C91.5289 77.3485 91.5976 77.7036 91.7349 77.9403C91.877 78.1723 92.0569 78.3286 92.2747 78.4091C92.4972 78.4848 92.7316 78.5227 92.9778 78.5227C93.1625 78.5227 93.314 78.5133 93.4324 78.4943C93.5507 78.4706 93.6454 78.4517 93.7164 78.4375L94.0574 79.9432C93.9437 79.9858 93.7851 80.0284 93.5815 80.071C93.3779 80.1184 93.1199 80.142 92.8074 80.142C92.3339 80.142 91.8699 80.0402 91.4153 79.8366C90.9655 79.633 90.5914 79.3229 90.2931 78.9062C89.9996 78.4896 89.8528 77.964 89.8528 77.3295V66.4773ZM106.232 65.4545H108.334L113.278 77.5284H113.448L118.391 65.4545H120.493V80H118.846V68.9489H118.704L114.158 80H112.567L108.022 68.9489H107.88V80H106.232V65.4545ZM130.23 80.2273C129.245 80.2273 128.381 79.9929 127.637 79.5241C126.899 79.0554 126.321 78.3996 125.904 77.5568C125.492 76.714 125.286 75.7292 125.286 74.6023C125.286 73.4659 125.492 72.474 125.904 71.6264C126.321 70.7789 126.899 70.1207 127.637 69.652C128.381 69.1832 129.245 68.9489 130.23 68.9489C131.214 68.9489 132.076 69.1832 132.815 69.652C133.558 70.1207 134.136 70.7789 134.548 71.6264C134.964 72.474 135.173 73.4659 135.173 74.6023C135.173 75.7292 134.964 76.714 134.548 77.5568C134.136 78.3996 133.558 79.0554 132.815 79.5241C132.076 79.9929 131.214 80.2273 130.23 80.2273ZM130.23 78.7216C130.978 78.7216 131.593 78.5298 132.076 78.1463C132.559 77.7628 132.917 77.2585 133.149 76.6335C133.381 76.0085 133.497 75.3314 133.497 74.6023C133.497 73.8731 133.381 73.1937 133.149 72.5639C132.917 71.9342 132.559 71.4252 132.076 71.0369C131.593 70.6487 130.978 70.4545 130.23 70.4545C129.481 70.4545 128.866 70.6487 128.383 71.0369C127.9 71.4252 127.543 71.9342 127.311 72.5639C127.079 73.1937 126.963 73.8731 126.963 74.6023C126.963 75.3314 127.079 76.0085 127.311 76.6335C127.543 77.2585 127.9 77.7628 128.383 78.1463C128.866 78.5298 129.481 78.7216 130.23 78.7216ZM139.731 80V69.0909H141.351V70.7955H141.493C141.72 70.2131 142.087 69.7609 142.594 69.4389C143.1 69.1122 143.709 68.9489 144.419 68.9489C145.139 68.9489 145.738 69.1122 146.216 69.4389C146.699 69.7609 147.075 70.2131 147.345 70.7955H147.459C147.738 70.232 148.157 69.7846 148.716 69.4531C149.274 69.117 149.944 68.9489 150.726 68.9489C151.701 68.9489 152.499 69.2543 153.119 69.8651C153.739 70.4711 154.05 71.4157 154.05 72.6989V80H152.373V72.6989C152.373 71.8939 152.153 71.3187 151.713 70.973C151.273 70.6274 150.754 70.4545 150.157 70.4545C149.39 70.4545 148.796 70.6866 148.375 71.1506C147.953 71.6098 147.743 72.1922 147.743 72.8977V80H146.038V72.5284C146.038 71.9081 145.837 71.4086 145.434 71.0298C145.032 70.6463 144.514 70.4545 143.879 70.4545C143.443 70.4545 143.036 70.5705 142.657 70.8026C142.283 71.0346 141.98 71.3565 141.748 71.7685C141.521 72.1757 141.407 72.6468 141.407 73.1818V80H139.731ZM163.546 80.2273C162.561 80.2273 161.697 79.9929 160.954 79.5241C160.215 79.0554 159.637 78.3996 159.221 77.5568C158.809 76.714 158.603 75.7292 158.603 74.6023C158.603 73.4659 158.809 72.474 159.221 71.6264C159.637 70.7789 160.215 70.1207 160.954 69.652C161.697 69.1832 162.561 68.9489 163.546 68.9489C164.531 68.9489 165.393 69.1832 166.131 69.652C166.875 70.1207 167.452 70.7789 167.864 71.6264C168.281 72.474 168.489 73.4659 168.489 74.6023C168.489 75.7292 168.281 76.714 167.864 77.5568C167.452 78.3996 166.875 79.0554 166.131 79.5241C165.393 79.9929 164.531 80.2273 163.546 80.2273ZM163.546 78.7216C164.294 78.7216 164.91 78.5298 165.393 78.1463C165.876 77.7628 166.233 77.2585 166.465 76.6335C166.697 76.0085 166.813 75.3314 166.813 74.6023C166.813 73.8731 166.697 73.1937 166.465 72.5639C166.233 71.9342 165.876 71.4252 165.393 71.0369C164.91 70.6487 164.294 70.4545 163.546 70.4545C162.798 70.4545 162.182 70.6487 161.699 71.0369C161.216 71.4252 160.859 71.9342 160.627 72.5639C160.395 73.1937 160.279 73.8731 160.279 74.6023C160.279 75.3314 160.395 76.0085 160.627 76.6335C160.859 77.2585 161.216 77.7628 161.699 78.1463C162.182 78.5298 162.798 78.7216 163.546 78.7216ZM175.548 78.0114L175.434 78.7784C175.354 79.3182 175.231 79.8958 175.065 80.5114C174.904 81.1269 174.736 81.7069 174.561 82.2514C174.385 82.7959 174.241 83.2292 174.127 83.5511H172.849C172.91 83.2481 172.991 82.848 173.09 82.3509C173.19 81.8537 173.289 81.2973 173.389 80.6818C173.493 80.071 173.578 79.446 173.644 78.8068L173.73 78.0114H175.548ZM189.358 84.0909C189.074 84.0909 188.82 84.0672 188.598 84.0199C188.375 83.9773 188.221 83.9347 188.136 83.892L188.562 82.4148C188.97 82.5189 189.329 82.5568 189.642 82.5284C189.954 82.5 190.231 82.3603 190.473 82.1094C190.719 81.8632 190.944 81.4631 191.148 80.9091L191.46 80.0568L187.426 69.0909H189.244L192.256 77.7841H192.369L195.381 69.0909H197.199L192.568 81.5909C192.36 82.1544 192.102 82.6207 191.794 82.9901C191.486 83.3641 191.129 83.6411 190.721 83.821C190.319 84.0009 189.864 84.0909 189.358 84.0909ZM205.452 80.2273C204.467 80.2273 203.603 79.9929 202.86 79.5241C202.121 79.0554 201.544 78.3996 201.127 77.5568C200.715 76.714 200.509 75.7292 200.509 74.6023C200.509 73.4659 200.715 72.474 201.127 71.6264C201.544 70.7789 202.121 70.1207 202.86 69.652C203.603 69.1832 204.467 68.9489 205.452 68.9489C206.437 68.9489 207.299 69.1832 208.037 69.652C208.781 70.1207 209.358 70.7789 209.77 71.6264C210.187 72.474 210.395 73.4659 210.395 74.6023C210.395 75.7292 210.187 76.714 209.77 77.5568C209.358 78.3996 208.781 79.0554 208.037 79.5241C207.299 79.9929 206.437 80.2273 205.452 80.2273ZM205.452 78.7216C206.2 78.7216 206.816 78.5298 207.299 78.1463C207.782 77.7628 208.139 77.2585 208.371 76.6335C208.603 76.0085 208.719 75.3314 208.719 74.6023C208.719 73.8731 208.603 73.1937 208.371 72.5639C208.139 71.9342 207.782 71.4252 207.299 71.0369C206.816 70.6487 206.2 70.4545 205.452 70.4545C204.704 70.4545 204.089 70.6487 203.606 71.0369C203.123 71.4252 202.765 71.9342 202.533 72.5639C202.301 73.1937 202.185 73.8731 202.185 74.6023C202.185 75.3314 202.301 76.0085 202.533 76.6335C202.765 77.2585 203.123 77.7628 203.606 78.1463C204.089 78.5298 204.704 78.7216 205.452 78.7216ZM221.829 75.5398V69.0909H223.505V80H221.829V78.1534H221.715C221.46 78.7074 221.062 79.1785 220.522 79.5668C219.982 79.9503 219.301 80.142 218.477 80.142C217.795 80.142 217.189 79.9929 216.659 79.6946C216.128 79.3916 215.712 78.937 215.409 78.331C215.106 77.7202 214.954 76.9508 214.954 76.0227V69.0909H216.63V75.9091C216.63 76.7045 216.853 77.339 217.298 77.8125C217.748 78.286 218.32 78.5227 219.017 78.5227C219.433 78.5227 219.857 78.4162 220.288 78.2031C220.723 77.9901 221.088 77.6634 221.382 77.223C221.68 76.7827 221.829 76.2216 221.829 75.5398ZM228.575 80V69.0909H230.194V70.7386H230.308C230.507 70.1989 230.867 69.7609 231.388 69.4247C231.908 69.0885 232.496 68.9205 233.149 68.9205C233.272 68.9205 233.426 68.9228 233.611 68.9276C233.795 68.9323 233.935 68.9394 234.03 68.9489V70.6534C233.973 70.6392 233.843 70.6179 233.639 70.5895C233.44 70.5563 233.229 70.5398 233.007 70.5398C232.477 70.5398 232.003 70.651 231.586 70.8736C231.175 71.0914 230.848 71.3944 230.606 71.7827C230.37 72.1662 230.251 72.6042 230.251 73.0966V80H228.575ZM245.642 80V69.0909H247.261V70.7955H247.403C247.63 70.2131 247.997 69.7609 248.504 69.4389C249.01 69.1122 249.619 68.9489 250.329 68.9489C251.049 68.9489 251.648 69.1122 252.126 69.4389C252.609 69.7609 252.985 70.2131 253.255 70.7955H253.369C253.648 70.232 254.067 69.7846 254.626 69.4531C255.185 69.117 255.855 68.9489 256.636 68.9489C257.611 68.9489 258.409 69.2543 259.029 69.8651C259.65 70.4711 259.96 71.4157 259.96 72.6989V80H258.284V72.6989C258.284 71.8939 258.063 71.3187 257.623 70.973C257.183 70.6274 256.664 70.4545 256.068 70.4545C255.301 70.4545 254.706 70.6866 254.285 71.1506C253.864 71.6098 253.653 72.1922 253.653 72.8977V80H251.948V72.5284C251.948 71.9081 251.747 71.4086 251.345 71.0298C250.942 70.6463 250.424 70.4545 249.789 70.4545C249.354 70.4545 248.946 70.5705 248.568 70.8026C248.194 71.0346 247.891 71.3565 247.659 71.7685C247.431 72.1757 247.318 72.6468 247.318 73.1818V80H245.642ZM271.899 75.5398V69.0909H273.575V80H271.899V78.1534H271.786C271.53 78.7074 271.132 79.1785 270.593 79.5668C270.053 79.9503 269.371 80.142 268.547 80.142C267.865 80.142 267.259 79.9929 266.729 79.6946C266.199 79.3916 265.782 78.937 265.479 78.331C265.176 77.7202 265.024 76.9508 265.024 76.0227V69.0909H266.7V75.9091C266.7 76.7045 266.923 77.339 267.368 77.8125C267.818 78.286 268.391 78.5227 269.087 78.5227C269.503 78.5227 269.927 78.4162 270.358 78.2031C270.794 77.9901 271.158 77.6634 271.452 77.223C271.75 76.7827 271.899 76.2216 271.899 75.5398ZM286.373 71.5341L284.867 71.9602C284.772 71.7093 284.633 71.4654 284.448 71.2287C284.268 70.9872 284.022 70.7884 283.709 70.6321C283.397 70.4759 282.997 70.3977 282.509 70.3977C281.841 70.3977 281.285 70.5516 280.84 70.8594C280.4 71.1624 280.18 71.5483 280.18 72.017C280.18 72.4337 280.331 72.7628 280.634 73.0043C280.937 73.2457 281.411 73.447 282.055 73.608L283.674 74.0057C284.649 74.2424 285.376 74.6046 285.854 75.0923C286.332 75.5753 286.572 76.1979 286.572 76.9602C286.572 77.5852 286.392 78.1439 286.032 78.6364C285.677 79.1288 285.18 79.517 284.54 79.8011C283.901 80.0852 283.158 80.2273 282.31 80.2273C281.198 80.2273 280.277 79.9858 279.547 79.5028C278.818 79.0199 278.357 78.3144 278.162 77.3864L279.753 76.9886C279.905 77.5758 280.191 78.0161 280.613 78.3097C281.039 78.6032 281.595 78.75 282.282 78.75C283.063 78.75 283.683 78.5843 284.143 78.2528C284.607 77.9167 284.839 77.5142 284.839 77.0455C284.839 76.6667 284.706 76.3494 284.441 76.0938C284.176 75.8333 283.769 75.6392 283.219 75.5114L281.401 75.0852C280.402 74.8485 279.668 74.4815 279.199 73.9844C278.735 73.4825 278.503 72.8551 278.503 72.1023C278.503 71.4867 278.676 70.9422 279.022 70.4688C279.372 69.9953 279.848 69.6236 280.449 69.3537C281.055 69.0838 281.742 68.9489 282.509 68.9489C283.589 68.9489 284.436 69.1856 285.052 69.6591C285.672 70.1326 286.112 70.7576 286.373 71.5341ZM291.095 80V69.0909H292.771V80H291.095ZM291.947 67.2727C291.62 67.2727 291.338 67.1615 291.102 66.9389C290.87 66.7164 290.754 66.4489 290.754 66.1364C290.754 65.8239 290.87 65.5563 291.102 65.3338C291.338 65.1113 291.62 65 291.947 65C292.274 65 292.553 65.1113 292.785 65.3338C293.022 65.5563 293.14 65.8239 293.14 66.1364C293.14 66.4489 293.022 66.7164 292.785 66.9389C292.553 67.1615 292.274 67.2727 291.947 67.2727ZM302.273 80.2273C301.25 80.2273 300.369 79.9858 299.631 79.5028C298.892 79.0199 298.324 78.3546 297.926 77.5071C297.528 76.6596 297.329 75.6913 297.329 74.6023C297.329 73.4943 297.533 72.5166 297.94 71.669C298.352 70.8168 298.925 70.1515 299.659 69.6733C300.398 69.1903 301.259 68.9489 302.244 68.9489C303.011 68.9489 303.702 69.0909 304.318 69.375C304.934 69.6591 305.438 70.0568 305.831 70.5682C306.224 71.0795 306.468 71.6761 306.562 72.358H304.886C304.758 71.8608 304.474 71.4205 304.034 71.0369C303.598 70.6487 303.011 70.4545 302.273 70.4545C301.619 70.4545 301.046 70.625 300.554 70.9659C300.066 71.3021 299.685 71.7779 299.41 72.3935C299.14 73.0043 299.006 73.7216 299.006 74.5455C299.006 75.3883 299.138 76.1222 299.403 76.7472C299.673 77.3722 300.052 77.8575 300.54 78.2031C301.032 78.5488 301.61 78.7216 302.273 78.7216C302.708 78.7216 303.104 78.6458 303.459 78.4943C303.814 78.3428 304.114 78.125 304.361 77.8409C304.607 77.5568 304.782 77.2159 304.886 76.8182H306.562C306.468 77.4621 306.233 78.0421 305.859 78.5582C305.49 79.0696 305 79.4768 304.389 79.7798C303.783 80.0781 303.077 80.2273 302.273 80.2273ZM314.223 80.2557C313.532 80.2557 312.904 80.1255 312.341 79.8651C311.777 79.5999 311.33 79.2188 310.998 78.7216C310.667 78.2197 310.501 77.6136 310.501 76.9034C310.501 76.2784 310.624 75.7718 310.871 75.3835C311.117 74.9905 311.446 74.6828 311.858 74.4602C312.27 74.2377 312.724 74.072 313.221 73.9631C313.723 73.8494 314.228 73.7595 314.734 73.6932C315.397 73.608 315.934 73.544 316.346 73.5014C316.763 73.4541 317.066 73.3759 317.256 73.267C317.45 73.1581 317.547 72.9687 317.547 72.6989V72.642C317.547 71.9413 317.355 71.3968 316.971 71.0085C316.593 70.6203 316.017 70.4261 315.246 70.4261C314.445 70.4261 313.818 70.6013 313.363 70.9517C312.909 71.3021 312.589 71.6761 312.405 72.0739L310.814 71.5057C311.098 70.8428 311.477 70.3267 311.95 69.9574C312.428 69.5833 312.949 69.3229 313.513 69.1761C314.081 69.0246 314.64 68.9489 315.189 68.9489C315.539 68.9489 315.942 68.9915 316.396 69.0767C316.855 69.1572 317.298 69.3253 317.724 69.581C318.155 69.8366 318.513 70.2225 318.797 70.7386C319.081 71.2547 319.223 71.946 319.223 72.8125V80H317.547V78.5227H317.461C317.348 78.7595 317.158 79.0128 316.893 79.2827C316.628 79.5526 316.275 79.7822 315.835 79.9716C315.395 80.161 314.857 80.2557 314.223 80.2557ZM314.479 78.75C315.141 78.75 315.7 78.6198 316.155 78.3594C316.614 78.099 316.96 77.7628 317.192 77.3509C317.428 76.9389 317.547 76.5057 317.547 76.0511V74.517C317.476 74.6023 317.319 74.6804 317.078 74.7514C316.841 74.8177 316.567 74.8769 316.254 74.929C315.946 74.9763 315.646 75.0189 315.352 75.0568C315.063 75.09 314.829 75.1184 314.649 75.142C314.213 75.1989 313.806 75.2912 313.427 75.419C313.053 75.5421 312.75 75.7292 312.518 75.9801C312.291 76.2263 312.177 76.5625 312.177 76.9886C312.177 77.571 312.393 78.0114 312.824 78.3097C313.259 78.6032 313.811 78.75 314.479 78.75ZM325.958 65.4545V80H324.282V65.4545H325.958ZM27.777 108V93.4545H29.4531V98.8239H29.5952C29.7183 98.6345 29.8887 98.393 30.1065 98.0994C30.3291 97.8011 30.6463 97.536 31.0582 97.304C31.4749 97.0672 32.0384 96.9489 32.7486 96.9489C33.6671 96.9489 34.4768 97.1785 35.1776 97.6378C35.8783 98.0971 36.4252 98.7481 36.8182 99.5909C37.2112 100.434 37.4077 101.428 37.4077 102.574C37.4077 103.729 37.2112 104.731 36.8182 105.578C36.4252 106.421 35.8807 107.074 35.1847 107.538C34.4886 107.998 33.6861 108.227 32.777 108.227C32.0762 108.227 31.5152 108.111 31.0938 107.879C30.6723 107.643 30.348 107.375 30.1207 107.077C29.8935 106.774 29.7183 106.523 29.5952 106.324H29.3963V108H27.777ZM29.4247 102.545C29.4247 103.369 29.5455 104.096 29.7869 104.726C30.0284 105.351 30.3812 105.841 30.8452 106.196C31.3092 106.546 31.8774 106.722 32.5497 106.722C33.2505 106.722 33.8352 106.537 34.304 106.168C34.7775 105.794 35.1326 105.292 35.3693 104.662C35.6108 104.027 35.7315 103.322 35.7315 102.545C35.7315 101.778 35.6132 101.087 35.3764 100.472C35.1444 99.8513 34.7917 99.3613 34.3182 99.0014C33.8494 98.6368 33.2599 98.4545 32.5497 98.4545C31.8679 98.4545 31.295 98.6274 30.831 98.973C30.367 99.3139 30.0166 99.7921 29.7798 100.408C29.5431 101.018 29.4247 101.731 29.4247 102.545ZM48.8466 103.54V97.0909H50.5227V108H48.8466V106.153H48.733C48.4773 106.707 48.0795 107.179 47.5398 107.567C47 107.95 46.3182 108.142 45.4943 108.142C44.8125 108.142 44.2064 107.993 43.6761 107.695C43.1458 107.392 42.7292 106.937 42.4261 106.331C42.1231 105.72 41.9716 104.951 41.9716 104.023V97.0909H43.6477V103.909C43.6477 104.705 43.8703 105.339 44.3153 105.812C44.7652 106.286 45.3381 106.523 46.0341 106.523C46.4508 106.523 46.8745 106.416 47.3054 106.203C47.741 105.99 48.1056 105.663 48.3991 105.223C48.6974 104.783 48.8466 104.222 48.8466 103.54ZM59.712 108.227C58.8029 108.227 58.0004 107.998 57.3043 107.538C56.6083 107.074 56.0638 106.421 55.6708 105.578C55.2778 104.731 55.0813 103.729 55.0813 102.574C55.0813 101.428 55.2778 100.434 55.6708 99.5909C56.0638 98.7481 56.6107 98.0971 57.3114 97.6378C58.0122 97.1785 58.8219 96.9489 59.7404 96.9489C60.4506 96.9489 61.0117 97.0672 61.4237 97.304C61.8403 97.536 62.1576 97.8011 62.3754 98.0994C62.5979 98.393 62.7707 98.6345 62.8938 98.8239H63.0359V93.4545H64.712V108H63.0927V106.324H62.8938C62.7707 106.523 62.5955 106.774 62.3683 107.077C62.141 107.375 61.8166 107.643 61.3952 107.879C60.9738 108.111 60.4128 108.227 59.712 108.227ZM59.9393 106.722C60.6116 106.722 61.1798 106.546 61.6438 106.196C62.1078 105.841 62.4606 105.351 62.7021 104.726C62.9435 104.096 63.0643 103.369 63.0643 102.545C63.0643 101.731 62.9459 101.018 62.7092 100.408C62.4724 99.7921 62.122 99.3139 61.658 98.973C61.194 98.6274 60.6211 98.4545 59.9393 98.4545C59.229 98.4545 58.6372 98.6368 58.1637 99.0014C57.695 99.3613 57.3422 99.8513 57.1055 100.472C56.8735 101.087 56.7575 101.778 56.7575 102.545C56.7575 103.322 56.8758 104.027 57.1126 104.662C57.354 105.292 57.7092 105.794 58.1779 106.168C58.6514 106.537 59.2385 106.722 59.9393 106.722ZM74.1339 108.227C73.2248 108.227 72.4222 107.998 71.7262 107.538C71.0302 107.074 70.4857 106.421 70.0927 105.578C69.6997 104.731 69.5032 103.729 69.5032 102.574C69.5032 101.428 69.6997 100.434 70.0927 99.5909C70.4857 98.7481 71.0326 98.0971 71.7333 97.6378C72.4341 97.1785 73.2437 96.9489 74.1623 96.9489C74.8725 96.9489 75.4336 97.0672 75.8455 97.304C76.2622 97.536 76.5794 97.8011 76.7972 98.0994C77.0198 98.393 77.1926 98.6345 77.3157 98.8239H77.4577V93.4545H79.1339V108H77.5146V106.324H77.3157C77.1926 106.523 77.0174 106.774 76.7901 107.077C76.5629 107.375 76.2385 107.643 75.8171 107.879C75.3957 108.111 74.8346 108.227 74.1339 108.227ZM74.3612 106.722C75.0335 106.722 75.6017 106.546 76.0657 106.196C76.5297 105.841 76.8825 105.351 77.1239 104.726C77.3654 104.096 77.4862 103.369 77.4862 102.545C77.4862 101.731 77.3678 101.018 77.131 100.408C76.8943 99.7921 76.5439 99.3139 76.0799 98.973C75.6159 98.6274 75.043 98.4545 74.3612 98.4545C73.6509 98.4545 73.0591 98.6368 72.5856 99.0014C72.1168 99.3613 71.7641 99.8513 71.5273 100.472C71.2953 101.087 71.1793 101.778 71.1793 102.545C71.1793 103.322 71.2977 104.027 71.5344 104.662C71.7759 105.292 72.131 105.794 72.5998 106.168C73.0733 106.537 73.6604 106.722 74.3612 106.722ZM85.516 112.091C85.2319 112.091 84.9786 112.067 84.756 112.02C84.5335 111.977 84.3796 111.935 84.2944 111.892L84.7205 110.415C85.1277 110.519 85.4876 110.557 85.8001 110.528C86.1126 110.5 86.3896 110.36 86.631 110.109C86.8772 109.863 87.1022 109.463 87.3058 108.909L87.6183 108.057L83.5842 97.0909H85.4023L88.4137 105.784H88.5273L91.5387 97.0909H93.3569L88.7262 109.591C88.5179 110.154 88.2598 110.621 87.9521 110.99C87.6443 111.364 87.2868 111.641 86.8796 111.821C86.4772 112.001 86.0226 112.091 85.516 112.091ZM98.1072 108.114C97.7569 108.114 97.4562 107.988 97.2053 107.737C96.9543 107.486 96.8288 107.186 96.8288 106.835C96.8288 106.485 96.9543 106.184 97.2053 105.933C97.4562 105.682 97.7569 105.557 98.1072 105.557C98.4576 105.557 98.7583 105.682 99.0092 105.933C99.2602 106.184 99.3857 106.485 99.3857 106.835C99.3857 107.067 99.3265 107.28 99.2081 107.474C99.0945 107.669 98.9406 107.825 98.7464 107.943C98.5571 108.057 98.344 108.114 98.1072 108.114ZM112.246 93.4545H114.348L119.291 105.528H119.462L124.405 93.4545H126.507V108H124.859V96.9489H124.717L120.172 108H118.581L114.036 96.9489H113.893V108H112.246V93.4545ZM136.243 108.227C135.258 108.227 134.394 107.993 133.651 107.524C132.912 107.055 132.335 106.4 131.918 105.557C131.506 104.714 131.3 103.729 131.3 102.602C131.3 101.466 131.506 100.474 131.918 99.6264C132.335 98.7789 132.912 98.1207 133.651 97.652C134.394 97.1832 135.258 96.9489 136.243 96.9489C137.228 96.9489 138.09 97.1832 138.828 97.652C139.572 98.1207 140.15 98.7789 140.561 99.6264C140.978 100.474 141.186 101.466 141.186 102.602C141.186 103.729 140.978 104.714 140.561 105.557C140.15 106.4 139.572 107.055 138.828 107.524C138.09 107.993 137.228 108.227 136.243 108.227ZM136.243 106.722C136.991 106.722 137.607 106.53 138.09 106.146C138.573 105.763 138.93 105.259 139.162 104.634C139.394 104.009 139.51 103.331 139.51 102.602C139.51 101.873 139.394 101.194 139.162 100.564C138.93 99.9342 138.573 99.4252 138.09 99.0369C137.607 98.6487 136.991 98.4545 136.243 98.4545C135.495 98.4545 134.88 98.6487 134.397 99.0369C133.914 99.4252 133.556 99.9342 133.324 100.564C133.092 101.194 132.976 101.873 132.976 102.602C132.976 103.331 133.092 104.009 133.324 104.634C133.556 105.259 133.914 105.763 134.397 106.146C134.88 106.53 135.495 106.722 136.243 106.722ZM145.745 108V97.0909H147.364V98.7955H147.506C147.734 98.2131 148.101 97.7609 148.607 97.4389C149.114 97.1122 149.722 96.9489 150.433 96.9489C151.152 96.9489 151.751 97.1122 152.229 97.4389C152.712 97.7609 153.089 98.2131 153.359 98.7955H153.472C153.752 98.232 154.171 97.7846 154.729 97.4531C155.288 97.117 155.958 96.9489 156.739 96.9489C157.715 96.9489 158.513 97.2543 159.133 97.8651C159.753 98.4711 160.063 99.4157 160.063 100.699V108H158.387V100.699C158.387 99.8939 158.167 99.3187 157.727 98.973C157.286 98.6274 156.768 98.4545 156.171 98.4545C155.404 98.4545 154.81 98.6866 154.388 99.1506C153.967 99.6098 153.756 100.192 153.756 100.898V108H152.052V100.528C152.052 99.9081 151.851 99.4086 151.448 99.0298C151.046 98.6463 150.527 98.4545 149.893 98.4545C149.457 98.4545 149.05 98.5705 148.671 98.8026C148.297 99.0346 147.994 99.3565 147.762 99.7685C147.535 100.176 147.421 100.647 147.421 101.182V108H145.745ZM169.56 108.227C168.575 108.227 167.711 107.993 166.967 107.524C166.229 107.055 165.651 106.4 165.234 105.557C164.822 104.714 164.616 103.729 164.616 102.602C164.616 101.466 164.822 100.474 165.234 99.6264C165.651 98.7789 166.229 98.1207 166.967 97.652C167.711 97.1832 168.575 96.9489 169.56 96.9489C170.545 96.9489 171.406 97.1832 172.145 97.652C172.888 98.1207 173.466 98.7789 173.878 99.6264C174.295 100.474 174.503 101.466 174.503 102.602C174.503 103.729 174.295 104.714 173.878 105.557C173.466 106.4 172.888 107.055 172.145 107.524C171.406 107.993 170.545 108.227 169.56 108.227ZM169.56 106.722C170.308 106.722 170.923 106.53 171.406 106.146C171.889 105.763 172.247 105.259 172.479 104.634C172.711 104.009 172.827 103.331 172.827 102.602C172.827 101.873 172.711 101.194 172.479 100.564C172.247 99.9342 171.889 99.4252 171.406 99.0369C170.923 98.6487 170.308 98.4545 169.56 98.4545C168.812 98.4545 168.196 98.6487 167.713 99.0369C167.23 99.4252 166.873 99.9342 166.641 100.564C166.409 101.194 166.293 101.873 166.293 102.602C166.293 103.331 166.409 104.009 166.641 104.634C166.873 105.259 167.23 105.763 167.713 106.146C168.196 106.53 168.812 106.722 169.56 106.722ZM191.26 108.227C190.209 108.227 189.302 107.995 188.54 107.531C187.783 107.062 187.198 106.409 186.786 105.571C186.379 104.728 186.175 103.748 186.175 102.631C186.175 101.513 186.379 100.528 186.786 99.6761C187.198 98.8191 187.771 98.1515 188.505 97.6733C189.243 97.1903 190.105 96.9489 191.09 96.9489C191.658 96.9489 192.219 97.0436 192.773 97.233C193.327 97.4223 193.831 97.7301 194.286 98.1562C194.74 98.5777 195.103 99.1364 195.373 99.8324C195.642 100.528 195.777 101.385 195.777 102.403V103.114H187.368V101.665H194.073C194.073 101.049 193.95 100.5 193.703 100.017C193.462 99.5341 193.116 99.1529 192.667 98.8736C192.221 98.5942 191.696 98.4545 191.09 98.4545C190.422 98.4545 189.845 98.6203 189.357 98.9517C188.874 99.2784 188.502 99.7045 188.242 100.23C187.981 100.756 187.851 101.319 187.851 101.92V102.886C187.851 103.71 187.993 104.409 188.277 104.982C188.566 105.55 188.966 105.983 189.478 106.281C189.989 106.575 190.583 106.722 191.26 106.722C191.701 106.722 192.098 106.66 192.453 106.537C192.813 106.409 193.123 106.22 193.384 105.969C193.644 105.713 193.846 105.396 193.988 105.017L195.607 105.472C195.436 106.021 195.15 106.504 194.748 106.92C194.345 107.332 193.848 107.654 193.256 107.886C192.664 108.114 191.999 108.227 191.26 108.227ZM202.003 101.438V108H200.327V97.0909H201.946V98.7955H202.088C202.344 98.2415 202.732 97.7964 203.253 97.4602C203.774 97.1193 204.446 96.9489 205.27 96.9489C206.009 96.9489 206.655 97.1004 207.209 97.4034C207.763 97.7017 208.194 98.1562 208.502 98.767C208.81 99.3731 208.963 100.14 208.963 101.068V108H207.287V101.182C207.287 100.325 207.065 99.6572 206.62 99.179C206.175 98.696 205.564 98.4545 204.787 98.4545C204.252 98.4545 203.774 98.5705 203.353 98.8026C202.936 99.0346 202.607 99.3731 202.365 99.8182C202.124 100.263 202.003 100.803 202.003 101.438ZM221.754 99.5341L220.248 99.9602C220.153 99.7093 220.013 99.4654 219.829 99.2287C219.649 98.9872 219.403 98.7884 219.09 98.6321C218.778 98.4759 218.378 98.3977 217.89 98.3977C217.222 98.3977 216.666 98.5516 216.221 98.8594C215.781 99.1624 215.56 99.5483 215.56 100.017C215.56 100.434 215.712 100.763 216.015 101.004C216.318 101.246 216.791 101.447 217.435 101.608L219.055 102.006C220.03 102.242 220.757 102.605 221.235 103.092C221.713 103.575 221.952 104.198 221.952 104.96C221.952 105.585 221.772 106.144 221.413 106.636C221.058 107.129 220.56 107.517 219.921 107.801C219.282 108.085 218.539 108.227 217.691 108.227C216.578 108.227 215.657 107.986 214.928 107.503C214.199 107.02 213.737 106.314 213.543 105.386L215.134 104.989C215.286 105.576 215.572 106.016 215.994 106.31C216.42 106.603 216.976 106.75 217.663 106.75C218.444 106.75 219.064 106.584 219.523 106.253C219.987 105.917 220.219 105.514 220.219 105.045C220.219 104.667 220.087 104.349 219.822 104.094C219.557 103.833 219.149 103.639 218.6 103.511L216.782 103.085C215.783 102.848 215.049 102.482 214.58 101.984C214.116 101.482 213.884 100.855 213.884 100.102C213.884 99.4867 214.057 98.9422 214.403 98.4688C214.753 97.9953 215.229 97.6236 215.83 97.3537C216.436 97.0838 217.123 96.9489 217.89 96.9489C218.969 96.9489 219.817 97.1856 220.433 97.6591C221.053 98.1326 221.493 98.7576 221.754 99.5341ZM233.35 103.54V97.0909H235.027V108H233.35V106.153H233.237C232.981 106.707 232.583 107.179 232.044 107.567C231.504 107.95 230.822 108.142 229.998 108.142C229.316 108.142 228.71 107.993 228.18 107.695C227.65 107.392 227.233 106.937 226.93 106.331C226.627 105.72 226.475 104.951 226.475 104.023V97.0909H228.152V103.909C228.152 104.705 228.374 105.339 228.819 105.812C229.269 106.286 229.842 106.523 230.538 106.523C230.955 106.523 231.378 106.416 231.809 106.203C232.245 105.99 232.609 105.663 232.903 105.223C233.201 104.783 233.35 104.222 233.35 103.54ZM240.097 108V97.0909H241.716V98.7386H241.83C242.028 98.1989 242.388 97.7609 242.909 97.4247C243.43 97.0885 244.017 96.9205 244.67 96.9205C244.794 96.9205 244.947 96.9228 245.132 96.9276C245.317 96.9323 245.456 96.9394 245.551 96.9489V98.6534C245.494 98.6392 245.364 98.6179 245.161 98.5895C244.962 98.5563 244.751 98.5398 244.528 98.5398C243.998 98.5398 243.525 98.651 243.108 98.8736C242.696 99.0914 242.369 99.3944 242.128 99.7827C241.891 100.166 241.773 100.604 241.773 101.097V108H240.097ZM253.78 108.227C252.729 108.227 251.822 107.995 251.06 107.531C250.302 107.062 249.717 106.409 249.305 105.571C248.898 104.728 248.695 103.748 248.695 102.631C248.695 101.513 248.898 100.528 249.305 99.6761C249.717 98.8191 250.29 98.1515 251.024 97.6733C251.763 97.1903 252.625 96.9489 253.609 96.9489C254.178 96.9489 254.739 97.0436 255.293 97.233C255.847 97.4223 256.351 97.7301 256.805 98.1562C257.26 98.5777 257.622 99.1364 257.892 99.8324C258.162 100.528 258.297 101.385 258.297 102.403V103.114H249.888V101.665H256.592C256.592 101.049 256.469 100.5 256.223 100.017C255.982 99.5341 255.636 99.1529 255.186 98.8736C254.741 98.5942 254.215 98.4545 253.609 98.4545C252.942 98.4545 252.364 98.6203 251.876 98.9517C251.393 99.2784 251.022 99.7045 250.761 100.23C250.501 100.756 250.371 101.319 250.371 101.92V102.886C250.371 103.71 250.513 104.409 250.797 104.982C251.086 105.55 251.486 105.983 251.997 106.281C252.509 106.575 253.103 106.722 253.78 106.722C254.22 106.722 254.618 106.66 254.973 106.537C255.333 106.409 255.643 106.22 255.903 105.969C256.164 105.713 256.365 105.396 256.507 105.017L258.126 105.472C257.956 106.021 257.67 106.504 257.267 106.92C256.865 107.332 256.367 107.654 255.776 107.886C255.184 108.114 254.518 108.227 253.78 108.227ZM270.574 99.5341L269.068 99.9602C268.973 99.7093 268.834 99.4654 268.649 99.2287C268.469 98.9872 268.223 98.7884 267.911 98.6321C267.598 98.4759 267.198 98.3977 266.71 98.3977C266.043 98.3977 265.486 98.5516 265.041 98.8594C264.601 99.1624 264.381 99.5483 264.381 100.017C264.381 100.434 264.532 100.763 264.835 101.004C265.138 101.246 265.612 101.447 266.256 101.608L267.875 102.006C268.85 102.242 269.577 102.605 270.055 103.092C270.534 103.575 270.773 104.198 270.773 104.96C270.773 105.585 270.593 106.144 270.233 106.636C269.878 107.129 269.381 107.517 268.741 107.801C268.102 108.085 267.359 108.227 266.511 108.227C265.399 108.227 264.478 107.986 263.749 107.503C263.019 107.02 262.558 106.314 262.364 105.386L263.955 104.989C264.106 105.576 264.393 106.016 264.814 106.31C265.24 106.603 265.796 106.75 266.483 106.75C267.264 106.75 267.884 106.584 268.344 106.253C268.808 105.917 269.04 105.514 269.04 105.045C269.04 104.667 268.907 104.349 268.642 104.094C268.377 103.833 267.97 103.639 267.42 103.511L265.602 103.085C264.603 102.848 263.869 102.482 263.401 101.984C262.937 101.482 262.705 100.855 262.705 100.102C262.705 99.4867 262.877 98.9422 263.223 98.4688C263.573 97.9953 264.049 97.6236 264.651 97.3537C265.257 97.0838 265.943 96.9489 266.71 96.9489C267.79 96.9489 268.637 97.1856 269.253 97.6591C269.873 98.1326 270.313 98.7576 270.574 99.5341ZM287.495 108.227C286.444 108.227 285.537 107.995 284.775 107.531C284.017 107.062 283.432 106.409 283.02 105.571C282.613 104.728 282.409 103.748 282.409 102.631C282.409 101.513 282.613 100.528 283.02 99.6761C283.432 98.8191 284.005 98.1515 284.739 97.6733C285.478 97.1903 286.339 96.9489 287.324 96.9489C287.892 96.9489 288.453 97.0436 289.007 97.233C289.561 97.4223 290.066 97.7301 290.52 98.1562C290.975 98.5777 291.337 99.1364 291.607 99.8324C291.877 100.528 292.012 101.385 292.012 102.403V103.114H283.603V101.665H290.307C290.307 101.049 290.184 100.5 289.938 100.017C289.696 99.5341 289.351 99.1529 288.901 98.8736C288.456 98.5942 287.93 98.4545 287.324 98.4545C286.657 98.4545 286.079 98.6203 285.591 98.9517C285.108 99.2784 284.737 99.7045 284.476 100.23C284.216 100.756 284.086 101.319 284.086 101.92V102.886C284.086 103.71 284.228 104.409 284.512 104.982C284.801 105.55 285.201 105.983 285.712 106.281C286.223 106.575 286.818 106.722 287.495 106.722C287.935 106.722 288.333 106.66 288.688 106.537C289.048 106.409 289.358 106.22 289.618 105.969C289.879 105.713 290.08 105.396 290.222 105.017L291.841 105.472C291.671 106.021 291.384 106.504 290.982 106.92C290.579 107.332 290.082 107.654 289.49 107.886C288.899 108.114 288.233 108.227 287.495 108.227ZM305.15 97.0909L301.116 108H299.411L295.377 97.0909H297.195L300.207 105.784H300.32L303.332 97.0909H305.15ZM313.545 108.227C312.494 108.227 311.588 107.995 310.825 107.531C310.068 107.062 309.483 106.409 309.071 105.571C308.664 104.728 308.46 103.748 308.46 102.631C308.46 101.513 308.664 100.528 309.071 99.6761C309.483 98.8191 310.056 98.1515 310.79 97.6733C311.528 97.1903 312.39 96.9489 313.375 96.9489C313.943 96.9489 314.504 97.0436 315.058 97.233C315.612 97.4223 316.116 97.7301 316.571 98.1562C317.026 98.5777 317.388 99.1364 317.658 99.8324C317.928 100.528 318.062 101.385 318.062 102.403V103.114H309.653V101.665H316.358C316.358 101.049 316.235 100.5 315.989 100.017C315.747 99.5341 315.402 99.1529 314.952 98.8736C314.507 98.5942 313.981 98.4545 313.375 98.4545C312.707 98.4545 312.13 98.6203 311.642 98.9517C311.159 99.2784 310.787 99.7045 310.527 100.23C310.267 100.756 310.136 101.319 310.136 101.92V102.886C310.136 103.71 310.278 104.409 310.562 104.982C310.851 105.55 311.251 105.983 311.763 106.281C312.274 106.575 312.868 106.722 313.545 106.722C313.986 106.722 314.384 106.66 314.739 106.537C315.098 106.409 315.409 106.22 315.669 105.969C315.929 105.713 316.131 105.396 316.273 105.017L317.892 105.472C317.722 106.021 317.435 106.504 317.033 106.92C316.63 107.332 316.133 107.654 315.541 107.886C314.949 108.114 314.284 108.227 313.545 108.227ZM322.612 108V97.0909H324.232V98.7386H324.345C324.544 98.1989 324.904 97.7609 325.425 97.4247C325.946 97.0885 326.533 96.9205 327.186 96.9205C327.309 96.9205 327.463 96.9228 327.648 96.9276C327.832 96.9323 327.972 96.9394 328.067 96.9489V98.6534C328.01 98.6392 327.88 98.6179 327.676 98.5895C327.477 98.5563 327.267 98.5398 327.044 98.5398C326.514 98.5398 326.04 98.651 325.624 98.8736C325.212 99.0914 324.885 99.3944 324.643 99.7827C324.407 100.166 324.288 100.604 324.288 101.097V108H322.612ZM333.465 112.091C333.181 112.091 332.928 112.067 332.705 112.02C332.483 111.977 332.329 111.935 332.244 111.892L332.67 110.415C333.077 110.519 333.437 110.557 333.749 110.528C334.062 110.5 334.339 110.36 334.58 110.109C334.826 109.863 335.051 109.463 335.255 108.909L335.567 108.057L331.533 97.0909H333.352L336.363 105.784H336.477L339.488 97.0909H341.306L336.675 109.591C336.467 110.154 336.209 110.621 335.901 110.99C335.594 111.364 335.236 111.641 334.829 111.821C334.426 112.001 333.972 112.091 333.465 112.091ZM54.5739 127.534L53.0682 127.96C52.9735 127.709 52.8338 127.465 52.6491 127.229C52.4692 126.987 52.223 126.788 51.9105 126.632C51.598 126.476 51.1979 126.398 50.7102 126.398C50.0426 126.398 49.4863 126.552 49.0412 126.859C48.6009 127.162 48.3807 127.548 48.3807 128.017C48.3807 128.434 48.5322 128.763 48.8352 129.004C49.1383 129.246 49.6117 129.447 50.2557 129.608L51.875 130.006C52.8504 130.242 53.5772 130.605 54.0554 131.092C54.5336 131.575 54.7727 132.198 54.7727 132.96C54.7727 133.585 54.5928 134.144 54.233 134.636C53.8778 135.129 53.3807 135.517 52.7415 135.801C52.1023 136.085 51.3589 136.227 50.5114 136.227C49.3987 136.227 48.4777 135.986 47.7486 135.503C47.0194 135.02 46.5578 134.314 46.3636 133.386L47.9545 132.989C48.1061 133.576 48.3925 134.016 48.8139 134.31C49.2401 134.603 49.7964 134.75 50.483 134.75C51.2642 134.75 51.8845 134.584 52.3438 134.253C52.8078 133.917 53.0398 133.514 53.0398 133.045C53.0398 132.667 52.9072 132.349 52.642 132.094C52.3769 131.833 51.9697 131.639 51.4205 131.511L49.6023 131.085C48.6032 130.848 47.8693 130.482 47.4006 129.984C46.9366 129.482 46.7045 128.855 46.7045 128.102C46.7045 127.487 46.8774 126.942 47.223 126.469C47.5734 125.995 48.0492 125.624 48.6506 125.354C49.2566 125.084 49.9432 124.949 50.7102 124.949C51.7898 124.949 52.6373 125.186 53.2528 125.659C53.8731 126.133 54.3134 126.758 54.5739 127.534ZM63.8697 136.227C62.8185 136.227 61.9118 135.995 61.1495 135.531C60.3919 135.062 59.8072 134.409 59.3952 133.571C58.988 132.728 58.7844 131.748 58.7844 130.631C58.7844 129.513 58.988 128.528 59.3952 127.676C59.8072 126.819 60.3801 126.152 61.114 125.673C61.8526 125.19 62.7144 124.949 63.6992 124.949C64.2674 124.949 64.8285 125.044 65.3825 125.233C65.9364 125.422 66.4407 125.73 66.8952 126.156C67.3498 126.578 67.712 127.136 67.9819 127.832C68.2518 128.528 68.3867 129.385 68.3867 130.403V131.114H59.9776V129.665H66.6822C66.6822 129.049 66.5591 128.5 66.3129 128.017C66.0714 127.534 65.7257 127.153 65.2759 126.874C64.8308 126.594 64.3053 126.455 63.6992 126.455C63.0316 126.455 62.454 126.62 61.9663 126.952C61.4833 127.278 61.1116 127.705 60.8512 128.23C60.5908 128.756 60.4606 129.319 60.4606 129.92V130.886C60.4606 131.71 60.6026 132.409 60.8867 132.982C61.1755 133.55 61.5756 133.983 62.087 134.281C62.5984 134.575 63.1926 134.722 63.8697 134.722C64.31 134.722 64.7077 134.66 65.0629 134.537C65.4227 134.409 65.7328 134.22 65.9933 133.969C66.2537 133.713 66.4549 133.396 66.5969 133.017L68.2163 133.472C68.0458 134.021 67.7594 134.504 67.3569 134.92C66.9544 135.332 66.4573 135.654 65.8654 135.886C65.2736 136.114 64.6083 136.227 63.8697 136.227ZM80.6637 127.534L79.158 127.96C79.0633 127.709 78.9237 127.465 78.739 127.229C78.5591 126.987 78.3129 126.788 78.0004 126.632C77.6879 126.476 77.2878 126.398 76.8001 126.398C76.1325 126.398 75.5761 126.552 75.131 126.859C74.6907 127.162 74.4705 127.548 74.4705 128.017C74.4705 128.434 74.622 128.763 74.9251 129.004C75.2281 129.246 75.7016 129.447 76.3455 129.608L77.9648 130.006C78.9402 130.242 79.667 130.605 80.1452 131.092C80.6235 131.575 80.8626 132.198 80.8626 132.96C80.8626 133.585 80.6826 134.144 80.3228 134.636C79.9677 135.129 79.4705 135.517 78.8313 135.801C78.1921 136.085 77.4487 136.227 76.6012 136.227C75.4885 136.227 74.5676 135.986 73.8384 135.503C73.1093 135.02 72.6476 134.314 72.4535 133.386L74.0444 132.989C74.1959 133.576 74.4824 134.016 74.9038 134.31C75.3299 134.603 75.8862 134.75 76.5728 134.75C77.354 134.75 77.9743 134.584 78.4336 134.253C78.8976 133.917 79.1296 133.514 79.1296 133.045C79.1296 132.667 78.997 132.349 78.7319 132.094C78.4667 131.833 78.0595 131.639 77.5103 131.511L75.6921 131.085C74.6931 130.848 73.9592 130.482 73.4904 129.984C73.0264 129.482 72.7944 128.855 72.7944 128.102C72.7944 127.487 72.9672 126.942 73.3129 126.469C73.6632 125.995 74.1391 125.624 74.7404 125.354C75.3465 125.084 76.033 124.949 76.8001 124.949C77.8796 124.949 78.7272 125.186 79.3427 125.659C79.9629 126.133 80.4033 126.758 80.6637 127.534ZM93.1129 127.534L91.6072 127.96C91.5125 127.709 91.3729 127.465 91.1882 127.229C91.0083 126.987 90.7621 126.788 90.4496 126.632C90.1371 126.476 89.737 126.398 89.2493 126.398C88.5817 126.398 88.0253 126.552 87.5803 126.859C87.1399 127.162 86.9197 127.548 86.9197 128.017C86.9197 128.434 87.0713 128.763 87.3743 129.004C87.6773 129.246 88.1508 129.447 88.7947 129.608L90.4141 130.006C91.3894 130.242 92.1162 130.605 92.5945 131.092C93.0727 131.575 93.3118 132.198 93.3118 132.96C93.3118 133.585 93.1319 134.144 92.772 134.636C92.4169 135.129 91.9197 135.517 91.2805 135.801C90.6413 136.085 89.898 136.227 89.0504 136.227C87.9377 136.227 87.0168 135.986 86.2876 135.503C85.5585 135.02 85.0968 134.314 84.9027 133.386L86.4936 132.989C86.6451 133.576 86.9316 134.016 87.353 134.31C87.7791 134.603 88.3355 134.75 89.022 134.75C89.8033 134.75 90.4235 134.584 90.8828 134.253C91.3468 133.917 91.5788 133.514 91.5788 133.045C91.5788 132.667 91.4463 132.349 91.1811 132.094C90.916 131.833 90.5088 131.639 89.9595 131.511L88.1413 131.085C87.1423 130.848 86.4084 130.482 85.9396 129.984C85.4756 129.482 85.2436 128.855 85.2436 128.102C85.2436 127.487 85.4164 126.942 85.7621 126.469C86.1125 125.995 86.5883 125.624 87.1896 125.354C87.7957 125.084 88.4822 124.949 89.2493 124.949C90.3288 124.949 91.1764 125.186 91.7919 125.659C92.4122 126.133 92.8525 126.758 93.1129 127.534ZM97.8349 136V125.091H99.511V136H97.8349ZM98.6871 123.273C98.3604 123.273 98.0787 123.161 97.842 122.939C97.61 122.716 97.494 122.449 97.494 122.136C97.494 121.824 97.61 121.556 97.842 121.334C98.0787 121.111 98.3604 121 98.6871 121C99.0138 121 99.2932 121.111 99.5252 121.334C99.762 121.556 99.8803 121.824 99.8803 122.136C99.8803 122.449 99.762 122.716 99.5252 122.939C99.2932 123.161 99.0138 123.273 98.6871 123.273ZM109.013 136.227C108.028 136.227 107.164 135.993 106.42 135.524C105.682 135.055 105.104 134.4 104.688 133.557C104.276 132.714 104.07 131.729 104.07 130.602C104.07 129.466 104.276 128.474 104.688 127.626C105.104 126.779 105.682 126.121 106.42 125.652C107.164 125.183 108.028 124.949 109.013 124.949C109.998 124.949 110.859 125.183 111.598 125.652C112.341 126.121 112.919 126.779 113.331 127.626C113.748 128.474 113.956 129.466 113.956 130.602C113.956 131.729 113.748 132.714 113.331 133.557C112.919 134.4 112.341 135.055 111.598 135.524C110.859 135.993 109.998 136.227 109.013 136.227ZM109.013 134.722C109.761 134.722 110.376 134.53 110.859 134.146C111.342 133.763 111.7 133.259 111.932 132.634C112.164 132.009 112.28 131.331 112.28 130.602C112.28 129.873 112.164 129.194 111.932 128.564C111.7 127.934 111.342 127.425 110.859 127.037C110.376 126.649 109.761 126.455 109.013 126.455C108.265 126.455 107.649 126.649 107.166 127.037C106.683 127.425 106.326 127.934 106.094 128.564C105.862 129.194 105.746 129.873 105.746 130.602C105.746 131.331 105.862 132.009 106.094 132.634C106.326 133.259 106.683 133.763 107.166 134.146C107.649 134.53 108.265 134.722 109.013 134.722ZM120.191 129.438V136H118.515V125.091H120.134V126.795H120.276C120.532 126.241 120.92 125.796 121.441 125.46C121.962 125.119 122.634 124.949 123.458 124.949C124.196 124.949 124.843 125.1 125.397 125.403C125.951 125.702 126.382 126.156 126.689 126.767C126.997 127.373 127.151 128.14 127.151 129.068V136H125.475V129.182C125.475 128.325 125.252 127.657 124.807 127.179C124.362 126.696 123.751 126.455 122.975 126.455C122.44 126.455 121.962 126.571 121.54 126.803C121.123 127.035 120.794 127.373 120.553 127.818C120.311 128.263 120.191 128.803 120.191 129.438ZM144.697 125.091V126.511H138.816V125.091H144.697ZM140.577 136V123.585C140.577 122.96 140.724 122.439 141.018 122.023C141.311 121.606 141.692 121.294 142.161 121.085C142.63 120.877 143.125 120.773 143.646 120.773C144.058 120.773 144.394 120.806 144.654 120.872C144.915 120.938 145.109 121 145.237 121.057L144.754 122.506C144.668 122.477 144.55 122.442 144.398 122.399C144.252 122.357 144.058 122.335 143.816 122.335C143.262 122.335 142.862 122.475 142.616 122.754C142.374 123.034 142.254 123.443 142.254 123.983V136H140.577ZM153.17 136.227C152.119 136.227 151.213 135.995 150.45 135.531C149.693 135.062 149.108 134.409 148.696 133.571C148.289 132.728 148.085 131.748 148.085 130.631C148.085 129.513 148.289 128.528 148.696 127.676C149.108 126.819 149.681 126.152 150.415 125.673C151.153 125.19 152.015 124.949 153 124.949C153.568 124.949 154.129 125.044 154.683 125.233C155.237 125.422 155.741 125.73 156.196 126.156C156.651 126.578 157.013 127.136 157.283 127.832C157.553 128.528 157.688 129.385 157.688 130.403V131.114H149.278V129.665H155.983C155.983 129.049 155.86 128.5 155.614 128.017C155.372 127.534 155.027 127.153 154.577 126.874C154.132 126.594 153.606 126.455 153 126.455C152.332 126.455 151.755 126.62 151.267 126.952C150.784 127.278 150.412 127.705 150.152 128.23C149.892 128.756 149.761 129.319 149.761 129.92V130.886C149.761 131.71 149.903 132.409 150.188 132.982C150.476 133.55 150.876 133.983 151.388 134.281C151.899 134.575 152.493 134.722 153.17 134.722C153.611 134.722 154.009 134.66 154.364 134.537C154.723 134.409 155.034 134.22 155.294 133.969C155.554 133.713 155.756 133.396 155.898 133.017L157.517 133.472C157.347 134.021 157.06 134.504 156.658 134.92C156.255 135.332 155.758 135.654 155.166 135.886C154.574 136.114 153.909 136.227 153.17 136.227ZM166.811 136.227C165.76 136.227 164.853 135.995 164.091 135.531C163.333 135.062 162.749 134.409 162.337 133.571C161.929 132.728 161.726 131.748 161.726 130.631C161.726 129.513 161.929 128.528 162.337 127.676C162.749 126.819 163.321 126.152 164.055 125.673C164.794 125.19 165.656 124.949 166.641 124.949C167.209 124.949 167.77 125.044 168.324 125.233C168.878 125.422 169.382 125.73 169.837 126.156C170.291 126.578 170.653 127.136 170.923 127.832C171.193 128.528 171.328 129.385 171.328 130.403V131.114H162.919V129.665H169.624C169.624 129.049 169.5 128.5 169.254 128.017C169.013 127.534 168.667 127.153 168.217 126.874C167.772 126.594 167.247 126.455 166.641 126.455C165.973 126.455 165.395 126.62 164.908 126.952C164.425 127.278 164.053 127.705 163.793 128.23C163.532 128.756 163.402 129.319 163.402 129.92V130.886C163.402 131.71 163.544 132.409 163.828 132.982C164.117 133.55 164.517 133.983 165.028 134.281C165.54 134.575 166.134 134.722 166.811 134.722C167.251 134.722 167.649 134.66 168.004 134.537C168.364 134.409 168.674 134.22 168.935 133.969C169.195 133.713 169.396 133.396 169.538 133.017L171.158 133.472C170.987 134.021 170.701 134.504 170.298 134.92C169.896 135.332 169.399 135.654 168.807 135.886C168.215 136.114 167.55 136.227 166.811 136.227ZM177.554 121.455V136H175.878V121.455H177.554ZM190.351 127.534L188.846 127.96C188.751 127.709 188.611 127.465 188.426 127.229C188.247 126.987 188 126.788 187.688 126.632C187.375 126.476 186.975 126.398 186.488 126.398C185.82 126.398 185.264 126.552 184.819 126.859C184.378 127.162 184.158 127.548 184.158 128.017C184.158 128.434 184.31 128.763 184.613 129.004C184.916 129.246 185.389 129.447 186.033 129.608L187.652 130.006C188.628 130.242 189.355 130.605 189.833 131.092C190.311 131.575 190.55 132.198 190.55 132.96C190.55 133.585 190.37 134.144 190.01 134.636C189.655 135.129 189.158 135.517 188.519 135.801C187.88 136.085 187.136 136.227 186.289 136.227C185.176 136.227 184.255 135.986 183.526 135.503C182.797 135.02 182.335 134.314 182.141 133.386L183.732 132.989C183.883 133.576 184.17 134.016 184.591 134.31C185.017 134.603 185.574 134.75 186.26 134.75C187.042 134.75 187.662 134.584 188.121 134.253C188.585 133.917 188.817 133.514 188.817 133.045C188.817 132.667 188.685 132.349 188.419 132.094C188.154 131.833 187.747 131.639 187.198 131.511L185.38 131.085C184.381 130.848 183.647 130.482 183.178 129.984C182.714 129.482 182.482 128.855 182.482 128.102C182.482 127.487 182.655 126.942 183 126.469C183.351 125.995 183.827 125.624 184.428 125.354C185.034 125.084 185.721 124.949 186.488 124.949C187.567 124.949 188.415 125.186 189.03 125.659C189.65 126.133 190.091 126.758 190.351 127.534ZM204.374 121.455V136H202.698V121.455H204.374ZM209.444 136V125.091H211.12V136H209.444ZM210.297 123.273C209.97 123.273 209.688 123.161 209.451 122.939C209.219 122.716 209.103 122.449 209.103 122.136C209.103 121.824 209.219 121.556 209.451 121.334C209.688 121.111 209.97 121 210.297 121C210.623 121 210.903 121.111 211.135 121.334C211.371 121.556 211.49 121.824 211.49 122.136C211.49 122.449 211.371 122.716 211.135 122.939C210.903 123.161 210.623 123.273 210.297 123.273ZM217.753 132.023L217.724 129.949H218.065L222.838 125.091H224.912L219.827 130.233H219.685L217.753 132.023ZM216.19 136V121.455H217.866V136H216.19ZM223.122 136L218.861 130.602L220.054 129.438L225.253 136H223.122ZM233.194 136.227C232.143 136.227 231.236 135.995 230.474 135.531C229.716 135.062 229.131 134.409 228.719 133.571C228.312 132.728 228.109 131.748 228.109 130.631C228.109 129.513 228.312 128.528 228.719 127.676C229.131 126.819 229.704 126.152 230.438 125.673C231.177 125.19 232.039 124.949 233.023 124.949C233.592 124.949 234.153 125.044 234.707 125.233C235.261 125.422 235.765 125.73 236.219 126.156C236.674 126.578 237.036 127.136 237.306 127.832C237.576 128.528 237.711 129.385 237.711 130.403V131.114H229.302V129.665H236.006C236.006 129.049 235.883 128.5 235.637 128.017C235.396 127.534 235.05 127.153 234.6 126.874C234.155 126.594 233.629 126.455 233.023 126.455C232.356 126.455 231.778 126.62 231.29 126.952C230.808 127.278 230.436 127.705 230.175 128.23C229.915 128.756 229.785 129.319 229.785 129.92V130.886C229.785 131.71 229.927 132.409 230.211 132.982C230.5 133.55 230.9 133.983 231.411 134.281C231.923 134.575 232.517 134.722 233.194 134.722C233.634 134.722 234.032 134.66 234.387 134.537C234.747 134.409 235.057 134.22 235.317 133.969C235.578 133.713 235.779 133.396 235.921 133.017L237.54 133.472C237.37 134.021 237.084 134.504 236.681 134.92C236.279 135.332 235.781 135.654 235.19 135.886C234.598 136.114 233.933 136.227 233.194 136.227ZM253.096 136.256C252.405 136.256 251.777 136.125 251.214 135.865C250.65 135.6 250.203 135.219 249.871 134.722C249.54 134.22 249.374 133.614 249.374 132.903C249.374 132.278 249.497 131.772 249.744 131.384C249.99 130.991 250.319 130.683 250.731 130.46C251.143 130.238 251.597 130.072 252.094 129.963C252.596 129.849 253.101 129.759 253.607 129.693C254.27 129.608 254.808 129.544 255.219 129.501C255.636 129.454 255.939 129.376 256.129 129.267C256.323 129.158 256.42 128.969 256.42 128.699V128.642C256.42 127.941 256.228 127.397 255.844 127.009C255.466 126.62 254.89 126.426 254.119 126.426C253.318 126.426 252.691 126.601 252.237 126.952C251.782 127.302 251.462 127.676 251.278 128.074L249.687 127.506C249.971 126.843 250.35 126.327 250.823 125.957C251.301 125.583 251.822 125.323 252.386 125.176C252.954 125.025 253.513 124.949 254.062 124.949C254.412 124.949 254.815 124.991 255.269 125.077C255.728 125.157 256.171 125.325 256.597 125.581C257.028 125.837 257.386 126.223 257.67 126.739C257.954 127.255 258.096 127.946 258.096 128.812V136H256.42V134.523H256.335C256.221 134.759 256.031 135.013 255.766 135.283C255.501 135.553 255.148 135.782 254.708 135.972C254.268 136.161 253.73 136.256 253.096 136.256ZM253.352 134.75C254.014 134.75 254.573 134.62 255.028 134.359C255.487 134.099 255.833 133.763 256.065 133.351C256.301 132.939 256.42 132.506 256.42 132.051V130.517C256.349 130.602 256.192 130.68 255.951 130.751C255.714 130.818 255.44 130.877 255.127 130.929C254.819 130.976 254.519 131.019 254.225 131.057C253.936 131.09 253.702 131.118 253.522 131.142C253.086 131.199 252.679 131.291 252.3 131.419C251.926 131.542 251.623 131.729 251.391 131.98C251.164 132.226 251.05 132.562 251.05 132.989C251.05 133.571 251.266 134.011 251.697 134.31C252.132 134.603 252.684 134.75 253.352 134.75ZM275.525 125.091V126.511H269.871V125.091H275.525ZM271.519 122.477H273.195V132.875C273.195 133.348 273.264 133.704 273.401 133.94C273.543 134.172 273.723 134.329 273.941 134.409C274.163 134.485 274.398 134.523 274.644 134.523C274.828 134.523 274.98 134.513 275.098 134.494C275.217 134.471 275.311 134.452 275.382 134.438L275.723 135.943C275.61 135.986 275.451 136.028 275.248 136.071C275.044 136.118 274.786 136.142 274.473 136.142C274 136.142 273.536 136.04 273.081 135.837C272.632 135.633 272.257 135.323 271.959 134.906C271.666 134.49 271.519 133.964 271.519 133.33V122.477ZM284.502 136.227C283.451 136.227 282.545 135.995 281.782 135.531C281.025 135.062 280.44 134.409 280.028 133.571C279.621 132.728 279.417 131.748 279.417 130.631C279.417 129.513 279.621 128.528 280.028 127.676C280.44 126.819 281.013 126.152 281.747 125.673C282.485 125.19 283.347 124.949 284.332 124.949C284.9 124.949 285.461 125.044 286.015 125.233C286.569 125.422 287.074 125.73 287.528 126.156C287.983 126.578 288.345 127.136 288.615 127.832C288.885 128.528 289.02 129.385 289.02 130.403V131.114H280.61V129.665H287.315C287.315 129.049 287.192 128.5 286.946 128.017C286.704 127.534 286.359 127.153 285.909 126.874C285.464 126.594 284.938 126.455 284.332 126.455C283.664 126.455 283.087 126.62 282.599 126.952C282.116 127.278 281.744 127.705 281.484 128.23C281.224 128.756 281.093 129.319 281.093 129.92V130.886C281.093 131.71 281.235 132.409 281.52 132.982C281.808 133.55 282.208 133.983 282.72 134.281C283.231 134.575 283.825 134.722 284.502 134.722C284.943 134.722 285.341 134.66 285.696 134.537C286.056 134.409 286.366 134.22 286.626 133.969C286.886 133.713 287.088 133.396 287.23 133.017L288.849 133.472C288.679 134.021 288.392 134.504 287.99 134.92C287.587 135.332 287.09 135.654 286.498 135.886C285.906 136.114 285.241 136.227 284.502 136.227ZM296.779 136.256C296.088 136.256 295.461 136.125 294.897 135.865C294.334 135.6 293.886 135.219 293.555 134.722C293.224 134.22 293.058 133.614 293.058 132.903C293.058 132.278 293.181 131.772 293.427 131.384C293.673 130.991 294.002 130.683 294.414 130.46C294.826 130.238 295.281 130.072 295.778 129.963C296.28 129.849 296.784 129.759 297.291 129.693C297.954 129.608 298.491 129.544 298.903 129.501C299.32 129.454 299.623 129.376 299.812 129.267C300.006 129.158 300.103 128.969 300.103 128.699V128.642C300.103 127.941 299.912 127.397 299.528 127.009C299.149 126.62 298.574 126.426 297.802 126.426C297.002 126.426 296.375 126.601 295.92 126.952C295.466 127.302 295.146 127.676 294.961 128.074L293.37 127.506C293.654 126.843 294.033 126.327 294.507 125.957C294.985 125.583 295.506 125.323 296.069 125.176C296.637 125.025 297.196 124.949 297.745 124.949C298.096 124.949 298.498 124.991 298.953 125.077C299.412 125.157 299.855 125.325 300.281 125.581C300.712 125.837 301.069 126.223 301.353 126.739C301.637 127.255 301.779 127.946 301.779 128.812V136H300.103V134.523H300.018C299.904 134.759 299.715 135.013 299.45 135.283C299.185 135.553 298.832 135.782 298.392 135.972C297.951 136.161 297.414 136.256 296.779 136.256ZM297.035 134.75C297.698 134.75 298.257 134.62 298.711 134.359C299.171 134.099 299.516 133.763 299.748 133.351C299.985 132.939 300.103 132.506 300.103 132.051V130.517C300.032 130.602 299.876 130.68 299.635 130.751C299.398 130.818 299.123 130.877 298.811 130.929C298.503 130.976 298.202 131.019 297.909 131.057C297.62 131.09 297.386 131.118 297.206 131.142C296.77 131.199 296.363 131.291 295.984 131.419C295.61 131.542 295.307 131.729 295.075 131.98C294.848 132.226 294.734 132.562 294.734 132.989C294.734 133.571 294.949 134.011 295.38 134.31C295.816 134.603 296.368 134.75 297.035 134.75ZM306.839 136V125.091H308.458V126.795H308.6C308.827 126.213 309.194 125.761 309.701 125.439C310.208 125.112 310.816 124.949 311.526 124.949C312.246 124.949 312.845 125.112 313.323 125.439C313.806 125.761 314.183 126.213 314.452 126.795H314.566C314.845 126.232 315.264 125.785 315.823 125.453C316.382 125.117 317.052 124.949 317.833 124.949C318.808 124.949 319.606 125.254 320.227 125.865C320.847 126.471 321.157 127.416 321.157 128.699V136H319.481V128.699C319.481 127.894 319.261 127.319 318.82 126.973C318.38 126.627 317.862 126.455 317.265 126.455C316.498 126.455 315.904 126.687 315.482 127.151C315.061 127.61 314.85 128.192 314.85 128.898V136H313.146V128.528C313.146 127.908 312.944 127.409 312.542 127.03C312.139 126.646 311.621 126.455 310.987 126.455C310.551 126.455 310.144 126.571 309.765 126.803C309.391 127.035 309.088 127.357 308.856 127.768C308.629 128.176 308.515 128.647 308.515 129.182V136H306.839ZM155.889 164.227C154.838 164.227 153.931 163.995 153.169 163.531C152.411 163.062 151.827 162.409 151.415 161.571C151.008 160.728 150.804 159.748 150.804 158.631C150.804 157.513 151.008 156.528 151.415 155.676C151.827 154.819 152.4 154.152 153.134 153.673C153.872 153.19 154.734 152.949 155.719 152.949C156.287 152.949 156.848 153.044 157.402 153.233C157.956 153.422 158.46 153.73 158.915 154.156C159.369 154.578 159.732 155.136 160.001 155.832C160.271 156.528 160.406 157.385 160.406 158.403V159.114H151.997V157.665H158.702C158.702 157.049 158.579 156.5 158.332 156.017C158.091 155.534 157.745 155.153 157.295 154.874C156.85 154.594 156.325 154.455 155.719 154.455C155.051 154.455 154.473 154.62 153.986 154.952C153.503 155.278 153.131 155.705 152.871 156.23C152.61 156.756 152.48 157.319 152.48 157.92V158.886C152.48 159.71 152.622 160.409 152.906 160.982C153.195 161.55 153.595 161.983 154.107 162.281C154.618 162.575 155.212 162.722 155.889 162.722C156.33 162.722 156.727 162.66 157.082 162.537C157.442 162.409 157.752 162.22 158.013 161.969C158.273 161.713 158.474 161.396 158.616 161.017L160.236 161.472C160.065 162.021 159.779 162.504 159.376 162.92C158.974 163.332 158.477 163.654 157.885 163.886C157.293 164.114 156.628 164.227 155.889 164.227ZM169.814 153.091V154.511H163.933V153.091H169.814ZM165.695 164V151.585C165.695 150.96 165.841 150.439 166.135 150.023C166.429 149.606 166.81 149.294 167.278 149.085C167.747 148.877 168.242 148.773 168.763 148.773C169.175 148.773 169.511 148.806 169.771 148.872C170.032 148.938 170.226 149 170.354 149.057L169.871 150.506C169.786 150.477 169.667 150.442 169.516 150.399C169.369 150.357 169.175 150.335 168.933 150.335C168.379 150.335 167.979 150.475 167.733 150.754C167.491 151.034 167.371 151.443 167.371 151.983V164H165.695ZM179.021 153.091V154.511H173.14V153.091H179.021ZM174.902 164V151.585C174.902 150.96 175.048 150.439 175.342 150.023C175.636 149.606 176.017 149.294 176.485 149.085C176.954 148.877 177.449 148.773 177.97 148.773C178.382 148.773 178.718 148.806 178.978 148.872C179.239 148.938 179.433 149 179.561 149.057L179.078 150.506C178.993 150.477 178.874 150.442 178.723 150.399C178.576 150.357 178.382 150.335 178.14 150.335C177.586 150.335 177.186 150.475 176.94 150.754C176.699 151.034 176.578 151.443 176.578 151.983V164H174.902ZM187.353 164.227C186.368 164.227 185.504 163.993 184.76 163.524C184.022 163.055 183.444 162.4 183.027 161.557C182.615 160.714 182.409 159.729 182.409 158.602C182.409 157.466 182.615 156.474 183.027 155.626C183.444 154.779 184.022 154.121 184.76 153.652C185.504 153.183 186.368 152.949 187.353 152.949C188.337 152.949 189.199 153.183 189.938 153.652C190.681 154.121 191.259 154.779 191.671 155.626C192.087 156.474 192.296 157.466 192.296 158.602C192.296 159.729 192.087 160.714 191.671 161.557C191.259 162.4 190.681 163.055 189.938 163.524C189.199 163.993 188.337 164.227 187.353 164.227ZM187.353 162.722C188.101 162.722 188.716 162.53 189.199 162.146C189.682 161.763 190.04 161.259 190.272 160.634C190.504 160.009 190.62 159.331 190.62 158.602C190.62 157.873 190.504 157.194 190.272 156.564C190.04 155.934 189.682 155.425 189.199 155.037C188.716 154.649 188.101 154.455 187.353 154.455C186.605 154.455 185.989 154.649 185.506 155.037C185.023 155.425 184.666 155.934 184.434 156.564C184.202 157.194 184.086 157.873 184.086 158.602C184.086 159.331 184.202 160.009 184.434 160.634C184.666 161.259 185.023 161.763 185.506 162.146C185.989 162.53 186.605 162.722 187.353 162.722ZM196.854 164V153.091H198.474V154.739H198.587C198.786 154.199 199.146 153.761 199.667 153.425C200.188 153.089 200.775 152.92 201.428 152.92C201.551 152.92 201.705 152.923 201.89 152.928C202.075 152.932 202.214 152.939 202.309 152.949V154.653C202.252 154.639 202.122 154.618 201.918 154.589C201.719 154.556 201.509 154.54 201.286 154.54C200.756 154.54 200.282 154.651 199.866 154.874C199.454 155.091 199.127 155.394 198.886 155.783C198.649 156.166 198.531 156.604 198.531 157.097V164H196.854ZM211.724 153.091V154.511H206.07V153.091H211.724ZM207.718 150.477H209.394V160.875C209.394 161.348 209.463 161.704 209.6 161.94C209.742 162.172 209.922 162.329 210.14 162.409C210.362 162.485 210.597 162.523 210.843 162.523C211.028 162.523 211.179 162.513 211.298 162.494C211.416 162.471 211.511 162.452 211.582 162.438L211.923 163.943C211.809 163.986 211.65 164.028 211.447 164.071C211.243 164.118 210.985 164.142 210.673 164.142C210.199 164.142 209.735 164.04 209.281 163.837C208.831 163.633 208.457 163.323 208.158 162.906C207.865 162.49 207.718 161.964 207.718 161.33V150.477ZM217.467 164.114C217.116 164.114 216.816 163.988 216.565 163.737C216.314 163.486 216.188 163.186 216.188 162.835C216.188 162.485 216.314 162.184 216.565 161.933C216.816 161.682 217.116 161.557 217.467 161.557C217.817 161.557 218.118 161.682 218.369 161.933C218.62 162.184 218.745 162.485 218.745 162.835C218.745 163.067 218.686 163.28 218.567 163.474C218.454 163.669 218.3 163.825 218.106 163.943C217.916 164.057 217.703 164.114 217.467 164.114Z" fill="#701D02"/>
</svg>
