<svg width="232" height="57" viewBox="0 0 232 57" fill="none" xmlns="http://www.w3.org/2000/svg">
<rect x="1.40076" y="1.401" width="228.323" height="53.2288" rx="26.6144" fill="url(#paint0_linear_47_14966)" stroke="url(#paint1_linear_47_14966)" stroke-width="2.80152"/>
<rect x="1.40076" y="1.401" width="228.323" height="53.2288" rx="26.6144" fill="url(#paint2_linear_47_14966)" stroke="url(#paint3_linear_47_14966)" stroke-width="2.80152"/>
<path d="M35.8317 36.4204H23.889C21.6514 36.4204 20.3168 33.9267 21.558 32.0649L27.5294 23.1078C28.6383 21.4445 31.0825 21.4445 32.1914 23.1078L38.1627 32.0649C39.4039 33.9267 38.0693 36.4204 35.8317 36.4204Z" fill="#774B04"/>
<path d="M51.393 36.0156V19.7159H57.6328C58.8107 19.7159 59.7896 19.9016 60.5696 20.273C61.3549 20.6391 61.9412 21.1405 62.3285 21.7772C62.7211 22.414 62.9175 23.1356 62.9175 23.9421C62.9175 24.6053 62.7901 25.173 62.5354 25.6452C62.2807 26.1122 61.9385 26.4915 61.5087 26.7834C61.079 27.0752 60.5988 27.2848 60.0682 27.4121V27.5713C60.6465 27.6031 61.201 27.7809 61.7316 28.1045C62.2675 28.4229 62.7052 28.8739 63.0448 29.4575C63.3844 30.0412 63.5542 30.7469 63.5542 31.5746C63.5542 32.4182 63.3499 33.177 62.9413 33.8508C62.5328 34.5194 61.9173 35.0473 61.0949 35.4346C60.2725 35.822 59.2378 36.0156 57.9909 36.0156H51.393ZM54.3458 33.5484H57.5214C58.5931 33.5484 59.3652 33.3441 59.8374 32.9356C60.3149 32.5217 60.5537 31.9911 60.5537 31.3438C60.5537 30.8609 60.4343 30.4259 60.1955 30.0385C59.9568 29.6459 59.6172 29.3382 59.1768 29.1153C58.7364 28.8871 58.2111 28.7731 57.6009 28.7731H54.3458V33.5484ZM54.3458 26.6481H57.2667C57.776 26.6481 58.235 26.5552 58.6436 26.3695C59.0521 26.1785 59.3731 25.9105 59.6066 25.5657C59.8453 25.2155 59.9647 24.8016 59.9647 24.3241C59.9647 23.6927 59.7419 23.1727 59.2962 22.7641C58.8558 22.3556 58.2005 22.1513 57.3303 22.1513H54.3458V26.6481ZM69.1125 36.0156H65.9608L71.6992 19.7159H75.3443L81.0906 36.0156H77.9389L73.5854 23.0586H73.4581L69.1125 36.0156ZM69.216 29.6247H77.8116V31.9964H69.216V29.6247ZM97.3198 25.2155H94.3432C94.2583 24.7273 94.1018 24.2949 93.8736 23.9182C93.6455 23.5361 93.3616 23.2125 93.022 22.9472C92.6825 22.6819 92.2951 22.4829 91.8601 22.3503C91.4303 22.2123 90.966 22.1434 90.4673 22.1434C89.5812 22.1434 88.7959 22.3662 88.1114 22.8119C87.427 23.2523 86.8911 23.8996 86.5037 24.7539C86.1164 25.6028 85.9228 26.6401 85.9228 27.8658C85.9228 29.1126 86.1164 30.1632 86.5037 31.0175C86.8964 31.8664 87.4323 32.5084 88.1114 32.9435C88.7959 33.3733 89.5785 33.5882 90.4593 33.5882C90.9474 33.5882 91.4037 33.5245 91.8282 33.3972C92.258 33.2645 92.6427 33.0709 92.9823 32.8162C93.3271 32.5615 93.6163 32.2484 93.8498 31.877C94.0885 31.5056 94.253 31.0811 94.3432 30.6036L97.3198 30.6195C97.2084 31.3942 96.967 32.1211 96.5956 32.8002C96.2295 33.4794 95.7493 34.079 95.155 34.5989C94.5608 35.1136 93.8657 35.5169 93.0698 35.8087C92.2739 36.0952 91.3905 36.2385 90.4195 36.2385C88.9869 36.2385 87.7082 35.9069 86.5833 35.2436C85.4585 34.5804 84.5724 33.6227 83.9251 32.3705C83.2778 31.1183 82.9541 29.6167 82.9541 27.8658C82.9541 26.1095 83.2804 24.6079 83.933 23.3611C84.5857 22.1089 85.4744 21.1511 86.5993 20.4879C87.7241 19.8247 88.9975 19.4931 90.4195 19.4931C91.3268 19.4931 92.1704 19.6204 92.9504 19.8751C93.7304 20.1298 94.4255 20.5038 95.0356 20.9973C95.6458 21.4854 96.1472 22.085 96.5399 22.796C96.9378 23.5017 97.1978 24.3082 97.3198 25.2155ZM100.92 36.0156V19.7159H103.873V27.2052H104.072L110.431 19.7159H114.037L107.733 27.0301L114.092 36.0156H110.543L105.68 29.0278L103.873 31.1607V36.0156H100.92ZM122.724 22.1911V19.7159H135.729V22.1911H130.691V36.0156H127.762V22.1911H122.724ZM152.975 27.8658C152.975 29.622 152.646 31.1262 151.988 32.3784C151.335 33.6253 150.444 34.5804 149.313 35.2436C148.189 35.9069 146.913 36.2385 145.485 36.2385C144.058 36.2385 142.779 35.9069 141.649 35.2436C140.524 34.5751 139.633 33.6174 138.975 32.3705C138.322 31.1183 137.996 29.6167 137.996 27.8658C137.996 26.1095 138.322 24.6079 138.975 23.3611C139.633 22.1089 140.524 21.1511 141.649 20.4879C142.779 19.8247 144.058 19.4931 145.485 19.4931C146.913 19.4931 148.189 19.8247 149.313 20.4879C150.444 21.1511 151.335 22.1089 151.988 23.3611C152.646 24.6079 152.975 26.1095 152.975 27.8658ZM150.006 27.8658C150.006 26.6295 149.812 25.5869 149.425 24.7379C149.043 23.8837 148.512 23.239 147.833 22.8039C147.154 22.3635 146.371 22.1434 145.485 22.1434C144.599 22.1434 143.817 22.3635 143.137 22.8039C142.458 23.239 141.925 23.8837 141.538 24.7379C141.156 25.5869 140.965 26.6295 140.965 27.8658C140.965 29.102 141.156 30.1473 141.538 31.0015C141.925 31.8505 142.458 32.4952 143.137 32.9356C143.817 33.3706 144.599 33.5882 145.485 33.5882C146.371 33.5882 147.154 33.3706 147.833 32.9356C148.512 32.4952 149.043 31.8505 149.425 31.0015C149.812 30.1473 150.006 29.102 150.006 27.8658ZM162.402 22.1911V19.7159H175.407V22.1911H170.369V36.0156H167.44V22.1911H162.402ZM192.653 27.8658C192.653 29.622 192.324 31.1262 191.666 32.3784C191.013 33.6253 190.122 34.5804 188.992 35.2436C187.867 35.9069 186.591 36.2385 185.163 36.2385C183.736 36.2385 182.457 35.9069 181.327 35.2436C180.202 34.5751 179.311 33.6174 178.653 32.3705C178.001 31.1183 177.674 29.6167 177.674 27.8658C177.674 26.1095 178.001 24.6079 178.653 23.3611C179.311 22.1089 180.202 21.1511 181.327 20.4879C182.457 19.8247 183.736 19.4931 185.163 19.4931C186.591 19.4931 187.867 19.8247 188.992 20.4879C190.122 21.1511 191.013 22.1089 191.666 23.3611C192.324 24.6079 192.653 26.1095 192.653 27.8658ZM189.684 27.8658C189.684 26.6295 189.49 25.5869 189.103 24.7379C188.721 23.8837 188.19 23.239 187.511 22.8039C186.832 22.3635 186.05 22.1434 185.163 22.1434C184.277 22.1434 183.495 22.3635 182.816 22.8039C182.136 23.239 181.603 23.8837 181.216 24.7379C180.834 25.5869 180.643 26.6295 180.643 27.8658C180.643 29.102 180.834 30.1473 181.216 31.0015C181.603 31.8505 182.136 32.4952 182.816 32.9356C183.495 33.3706 184.277 33.5882 185.163 33.5882C186.05 33.5882 186.832 33.3706 187.511 32.9356C188.19 32.4952 188.721 31.8505 189.103 31.0015C189.49 30.1473 189.684 29.102 189.684 27.8658ZM196.341 36.0156V19.7159H202.453C203.705 19.7159 204.756 19.9494 205.605 20.4163C206.459 20.8832 207.104 21.5252 207.539 22.3423C207.979 23.1541 208.199 24.0773 208.199 25.112C208.199 26.1573 207.979 27.0858 207.539 27.8976C207.099 28.7094 206.449 29.3488 205.589 29.8157C204.729 30.2773 203.671 30.5081 202.413 30.5081H198.362V28.0807H202.015C202.748 28.0807 203.347 27.9533 203.814 27.6986C204.281 27.4439 204.626 27.0938 204.849 26.6481C205.077 26.2024 205.191 25.6903 205.191 25.112C205.191 24.5337 205.077 24.0243 204.849 23.5839C204.626 23.1435 204.278 22.8013 203.806 22.5572C203.339 22.3078 202.737 22.1831 202 22.1831H199.294V36.0156H196.341Z" fill="#774B04"/>
<defs>
<linearGradient id="paint0_linear_47_14966" x1="132.91" y1="-10.6455" x2="132.91" y2="39.7818" gradientUnits="userSpaceOnUse">
<stop stop-color="#FFF4E1"/>
<stop offset="1" stop-color="#FFDCB0"/>
</linearGradient>
<linearGradient id="paint1_linear_47_14966" x1="132.91" y1="-10.6455" x2="132.91" y2="39.7818" gradientUnits="userSpaceOnUse">
<stop stop-color="#FFF4E1"/>
<stop offset="1" stop-color="#CA7401"/>
</linearGradient>
<linearGradient id="paint2_linear_47_14966" x1="132.91" y1="-10.6455" x2="132.91" y2="39.7818" gradientUnits="userSpaceOnUse">
<stop stop-color="#FFF4E1"/>
<stop offset="1" stop-color="#FFDCB0"/>
</linearGradient>
<linearGradient id="paint3_linear_47_14966" x1="132.91" y1="-10.6455" x2="132.91" y2="39.7818" gradientUnits="userSpaceOnUse">
<stop stop-color="#FFF4E1"/>
<stop offset="1" stop-color="#CA7401"/>
</linearGradient>
</defs>
</svg>
