<svg width="84" height="30" viewBox="0 0 84 30" fill="none" xmlns="http://www.w3.org/2000/svg">
<path d="M6.29896 6.84378C6.54405 6.19918 7.45595 6.19918 7.70104 6.84378L9.06816 10.4394C9.52517 11.6414 10.3563 12.6647 11.4389 13.3586L13.0147 14.3686C13.4752 14.6636 13.4752 15.3364 13.0147 15.6314L11.4389 16.6414C10.3563 17.3353 9.52517 18.3586 9.06816 19.5606L7.70104 23.1562C7.45595 23.8008 6.54405 23.8008 6.29896 23.1562L4.93184 19.5606C4.47483 18.3586 3.64374 17.3353 2.56108 16.6414L0.985255 15.6314C0.524844 15.3364 0.524845 14.6636 0.985256 14.3686L2.56108 13.3586C3.64374 12.6647 4.47483 11.6414 4.93184 10.4394L6.29896 6.84378Z" fill="#CC9213"/>
<path opacity="0.5" d="M23.5225 9.53852C23.6681 9.06947 24.3319 9.06947 24.4775 9.53852L25.2144 11.9125C25.455 12.6879 25.9259 13.3717 26.5645 13.873L27.4991 14.6067C27.7541 14.8069 27.7541 15.1931 27.4991 15.3933L26.5645 16.127C25.9259 16.6284 25.455 17.3121 25.2144 18.0875L24.4775 20.4615C24.3319 20.9305 23.6681 20.9305 23.5225 20.4615L22.7856 18.0875C22.545 17.3121 22.0741 16.6284 21.4355 16.127L20.5009 15.3933C20.2459 15.1931 20.2459 14.8069 20.5009 14.6067L21.4355 13.873C22.0741 13.3717 22.545 12.6879 22.7856 11.9125L23.5225 9.53852Z" fill="#CC9213"/>
<path d="M42.2869 2.18805C42.5118 1.49791 43.4882 1.49791 43.7131 2.18805L45.9747 9.12768C46.3581 10.3039 47.0956 11.333 48.0864 12.0738L51.1967 14.3993C51.5978 14.6993 51.5978 15.3007 51.1967 15.6007L48.0864 17.9262C47.0956 18.667 46.3581 19.6961 45.9747 20.8723L43.7131 27.8119C43.4882 28.5021 42.5118 28.5021 42.2869 27.8119L40.0253 20.8723C39.6419 19.6961 38.9044 18.667 37.9136 17.9262L34.8033 15.6007C34.4022 15.3007 34.4022 14.6993 34.8033 14.3993L37.9136 12.0738C38.9044 11.333 39.6419 10.3039 40.0253 9.12768L42.2869 2.18805Z" fill="#CC9213"/>
<path opacity="0.5" d="M61.5225 9.53852C61.6681 9.06947 62.3319 9.06947 62.4775 9.53852L63.2144 11.9125C63.455 12.6879 63.9259 13.3717 64.5645 13.873L65.4991 14.6067C65.7541 14.8069 65.7541 15.1931 65.4991 15.3933L64.5645 16.127C63.9259 16.6284 63.455 17.3121 63.2144 18.0875L62.4775 20.4615C62.3319 20.9305 61.6681 20.9305 61.5225 20.4615L60.7856 18.0875C60.545 17.3121 60.0741 16.6284 59.4355 16.127L58.5009 15.3933C58.2459 15.1931 58.2459 14.8069 58.5009 14.6067L59.4355 13.873C60.0741 13.3717 60.545 12.6879 60.7856 11.9125L61.5225 9.53852Z" fill="#CC9213"/>
<path d="M77.2869 7.18805C77.5118 6.49791 78.4882 6.49791 78.7131 7.18805L79.7868 10.4826C80.1701 11.6588 80.9077 12.6878 81.8985 13.4287L83.1967 14.3993C83.5978 14.6993 83.5978 15.3007 83.1967 15.6007L81.8985 16.5713C80.9077 17.3122 80.1701 18.3412 79.7868 19.5174L78.7131 22.812C78.4882 23.5021 77.5118 23.5021 77.2869 22.812L76.2132 19.5174C75.8299 18.3412 75.0923 17.3122 74.1015 16.5713L72.8033 15.6007C72.4022 15.3007 72.4022 14.6993 72.8033 14.3993L74.1015 13.4287C75.0923 12.6878 75.8299 11.6588 76.2132 10.4826L77.2869 7.18805Z" fill="#CC9213"/>
</svg>
