<svg width="234" height="180" viewBox="0 0 234 180" fill="none" xmlns="http://www.w3.org/2000/svg">
<path opacity="0.8" d="M233.065 16.8702C233.664 15.0113 233.373 12.9802 232.276 11.3643C231.179 9.74838 229.399 8.7279 227.45 8.59795L98.7321 0.014197C95.8283 -0.179444 93.1654 1.62801 92.2733 4.3981L62.0433 98.2637C57.9543 92.076 51.812 87.1847 44.2032 84.7343C26.4216 79.0076 7.36437 88.7801 1.6377 106.562C-4.08897 124.343 5.68351 143.401 23.4651 149.127C41.2468 154.854 60.304 145.081 66.0307 127.3C66.1243 127.009 66.2137 126.718 66.2991 126.427L90.0404 52.7088L205.713 60.4226L184.367 126.705C180.278 120.515 174.134 115.622 166.523 113.171C148.742 107.444 129.685 117.217 123.958 134.998C118.231 152.78 128.004 171.837 145.785 177.564C163.567 183.29 182.624 173.518 188.351 155.736C188.426 155.504 188.498 155.272 188.567 155.039L233.065 16.8702Z" fill="#FFC52F" fill-opacity="0.1"/>
</svg>
