<svg width="420" height="420" viewBox="0 0 420 420" fill="none" xmlns="http://www.w3.org/2000/svg">
<path d="M230.809 8.74815C239.464 -5.60973 261.31 -1.45251 264.086 15.0806L280.987 115.737C285.351 141.727 300.851 164.513 323.422 178.118L410.835 230.809C425.193 239.464 421.035 261.31 404.502 264.086L303.846 280.987C277.856 285.351 255.07 300.851 241.465 323.422L188.774 410.835C180.119 425.193 158.273 421.035 155.497 404.502L138.596 303.846C134.232 277.856 118.732 255.07 96.1614 241.465L8.74817 188.774C-5.60971 180.119 -1.45251 158.273 15.0806 155.497L115.737 138.596C141.727 134.232 164.513 118.732 178.118 96.1614L230.809 8.74815Z" fill="url(#paint0_linear_47_14998)"/>
<defs>
<linearGradient id="paint0_linear_47_14998" x1="256.004" y1="-33.0499" x2="163.579" y2="452.633" gradientUnits="userSpaceOnUse">
<stop stop-color="#FFFAD7"/>
<stop offset="1" stop-color="#FFFAD7" stop-opacity="0"/>
</linearGradient>
</defs>
</svg>
