<svg width="295" height="281" viewBox="0 0 295 281" fill="none" xmlns="http://www.w3.org/2000/svg">
<rect x="28.6108" y="2.28387" width="251.214" height="251.214" rx="125.607" fill="url(#paint0_linear_47_14900)" stroke="#FFFCE8" stroke-width="4.56752"/>
<rect width="22.9367" height="45.6275" rx="11.376" transform="matrix(-0.707107 0.707107 0.713661 0.700492 221.821 135.084)" fill="#582B10"/>
<path d="M47.3544 124.62C50.6677 118.971 58.8714 109.361 65.4926 104.022C65.9488 103.654 66.6136 103.821 66.8612 104.335L81.2652 134.191C81.6048 134.895 80.9486 135.668 80.199 135.447L47.8781 125.928C47.329 125.766 47.0555 125.13 47.3544 124.62Z" fill="#FF8995" stroke="#FF8995" stroke-width="0.901059"/>
<mask id="mask0_47_14900" style="mask-type:alpha" maskUnits="userSpaceOnUse" x="47" y="104" width="34" height="32">
<path d="M65.7756 104.372C59.194 109.68 51.0276 119.249 47.7436 124.848C47.5974 125.097 47.7279 125.413 48.0051 125.495L80.3266 135.014C80.7014 135.125 81.0295 134.738 80.8597 134.386L66.4554 104.53C66.3303 104.271 65.9997 104.192 65.7756 104.372Z" fill="#FF8995"/>
</mask>
<g mask="url(#mask0_47_14900)">
<path d="M54.3667 135.909L52.3531 104.436" stroke="white" stroke-width="2.70318"/>
<path d="M61.1108 135.478L59.0972 104.005" stroke="white" stroke-width="0.450529"/>
<path d="M62.4595 135.391L60.4458 103.918" stroke="white" stroke-width="0.450529"/>
<path d="M69.2039 134.96L67.1902 103.487" stroke="white" stroke-width="2.70318"/>
<path d="M75.948 134.528L73.9344 103.056" stroke="white" stroke-width="0.450529"/>
<path d="M77.2966 134.442L75.283 102.969" stroke="white" stroke-width="0.450529"/>
</g>
<path d="M56.0608 105.854C52.1873 99.0783 47.2232 83.0651 58.3541 73.2192" stroke="#86D1D5" stroke-width="4.50529" stroke-linecap="round" stroke-linejoin="round"/>
<path d="M47.3963 116.808C35.8209 107.878 23.3207 117.33 23.493 124.88C23.7549 136.364 38.0067 139 38.1836 128.954C38.3249 120.924 13.6756 128.196 22.6131 154.66" stroke="#F692E4" stroke-width="4.50529" stroke-linecap="round" stroke-linejoin="round"/>
<path d="M43.5101 102.484L16.939 84.3528" stroke="#FFB78A" stroke-width="4.50529" stroke-linecap="round" stroke-linejoin="round"/>
<rect x="41.0894" y="73.8254" width="4.95582" height="4.95582" rx="0.225265" transform="rotate(71.3392 41.0894 73.8254)" fill="#82DC82"/>
<rect x="12.6929" y="110.111" width="4.95582" height="4.95582" rx="0.225265" transform="rotate(-93.6608 12.6929 110.111)" fill="#FA6363"/>
<rect width="22.9367" height="45.6275" rx="11.376" transform="matrix(-0.258819 0.965926 -0.963474 -0.267802 119.844 130.861)" fill="#582B10"/>
<path fill-rule="evenodd" clip-rule="evenodd" d="M72.9151 129.719C74.5411 123.65 80.7905 120.005 86.8438 121.688L108.884 127.814C114.937 129.496 118.502 135.869 116.876 141.938C116.71 142.559 116.491 143.153 116.233 143.72C116.073 138.817 112.793 134.325 107.856 132.952L85.8164 126.826C80.3829 125.316 74.7934 128.099 72.5293 133.073C72.4933 131.966 72.6154 130.837 72.9151 129.719Z" fill="#CD7400"/>
<path d="M163.399 209.344C199.434 209.344 228.646 180.444 228.646 144.794C228.646 109.144 199.434 80.2444 163.399 80.2444C127.363 80.2444 98.1511 109.144 98.1511 144.794C98.1511 180.444 127.363 209.344 163.399 209.344Z" fill="#FEAC7B"/>
<path d="M171.741 141.984C172.941 141.745 174.967 141.51 176.554 142.963C178.024 144.308 178.327 146.415 178.327 148.432C178.327 152.667 176.548 157.286 173.998 160.832C171.513 164.286 167.771 167.416 163.466 167.416C159.162 167.416 155.42 164.286 152.936 160.832C150.386 157.286 148.606 152.667 148.606 148.432C148.606 146.415 148.909 144.308 150.378 142.963C151.965 141.51 153.993 141.745 155.193 141.984C156.402 142.225 158.067 142.783 159.285 143.118C160.679 143.502 162.064 143.788 163.466 143.788C164.869 143.788 166.254 143.502 167.649 143.118C168.867 142.783 170.531 142.225 171.741 141.984Z" fill="#DE2D2D" stroke="#ED675F" stroke-width="5.056"/>
<path d="M228.649 58.7278H185.151V144.797H228.649V58.7278Z" fill="#FEAC7B"/>
<path d="M185.151 36.3199C185.151 33.8276 186.395 31.2879 189.806 32.7396C192.706 33.9763 196.484 43.1452 209.531 46.8837C227.131 51.9252 246.271 66.2463 241.572 91.846C240.811 95.9925 237.604 96.236 236.137 92.2794C236.105 92.1908 236.079 92.0959 236.034 92.0105C231.914 83.9074 228.758 82.2754 213.649 80.577C204.717 79.5712 194.646 76.0099 189.144 75.6082C186.89 75.4438 185.148 70.1903 185.148 67.9511V36.3199H185.151Z" fill="#FEAC7B"/>
<path d="M169.108 89.4935C176.735 89.4935 185.084 93.8713 191.888 96.2507V35.6837C191.888 33.8233 190.38 32.3152 188.52 32.3152C186.659 32.3152 185.151 33.8233 185.151 35.6837V83.9184C178.347 81.539 171.026 80.2442 163.399 80.2442C127.363 80.2442 98.1511 109.144 98.1511 144.794C98.1511 159.045 102.82 172.218 110.726 182.897C106.333 174.214 103.861 164.414 103.861 154.043C103.861 118.393 133.073 89.4935 169.108 89.4935Z" fill="#FFEA6B" fill-opacity="0.7"/>
<path d="M203.033 148.444C208.992 148.444 213.823 144.303 213.823 139.195C213.823 134.087 208.992 129.946 203.033 129.946C197.073 129.946 192.242 134.087 192.242 139.195C192.242 144.303 197.073 148.444 203.033 148.444Z" fill="#ED675F"/>
<path d="M123.9 148.444C129.86 148.444 134.691 144.303 134.691 139.195C134.691 134.087 129.86 129.946 123.9 129.946C117.941 129.946 113.11 134.087 113.11 139.195C113.11 144.303 117.941 148.444 123.9 148.444Z" fill="#ED675F"/>
<path d="M138.846 141.121C128.836 141.121 120.722 133.094 120.722 123.191V116.018C120.722 106.115 128.836 98.0876 138.846 98.0876C148.855 98.0876 156.969 106.115 156.969 116.018V123.191C156.973 133.094 148.855 141.121 138.846 141.121Z" fill="white"/>
<path d="M135.991 133.942C128.983 133.942 123.302 128.321 123.302 121.392V114.218C123.302 107.286 128.983 101.668 135.988 101.668C142.996 101.668 148.674 107.289 148.674 114.218V121.392C148.68 128.321 142.999 133.942 135.991 133.942Z" fill="#582B10"/>
<path d="M133.836 118.641C137.242 118.641 140.002 115.881 140.002 112.475C140.002 109.07 137.242 106.309 133.836 106.309C130.431 106.309 127.67 109.07 127.67 112.475C127.67 115.881 130.431 118.641 133.836 118.641Z" fill="white"/>
<path opacity="0.6" d="M141.885 123.78C143.588 123.78 144.968 122.4 144.968 120.697C144.968 118.994 143.588 117.614 141.885 117.614C140.182 117.614 138.802 118.994 138.802 120.697C138.802 122.4 140.182 123.78 141.885 123.78Z" fill="white"/>
<path d="M188.3 141.121C178.29 141.121 170.176 133.094 170.176 123.191V116.018C170.176 106.115 178.29 98.0876 188.3 98.0876C198.31 98.0876 206.424 106.115 206.424 116.018V123.191C206.424 133.094 198.31 141.121 188.3 141.121Z" fill="white"/>
<path d="M185.367 133.942C178.359 133.942 172.678 128.321 172.678 121.392V114.218C172.678 107.286 178.359 101.668 185.364 101.668C192.372 101.668 198.05 107.289 198.05 114.218V121.392C198.053 128.321 192.372 133.942 185.367 133.942Z" fill="#582B10"/>
<path d="M183.165 118.641C186.571 118.641 189.331 115.881 189.331 112.475C189.331 109.07 186.571 106.309 183.165 106.309C179.76 106.309 176.999 109.07 176.999 112.475C176.999 115.881 179.76 118.641 183.165 118.641Z" fill="white"/>
<path opacity="0.6" d="M191.214 123.78C192.917 123.78 194.297 122.4 194.297 120.697C194.297 118.994 192.917 117.614 191.214 117.614C189.512 117.614 188.131 118.994 188.131 120.697C188.131 122.4 189.512 123.78 191.214 123.78Z" fill="white"/>
<path d="M165.838 135.388H161.308C160.307 135.388 159.495 134.585 159.495 133.595C159.495 132.605 160.307 131.801 161.308 131.801H165.838C166.839 131.801 167.651 132.605 167.651 133.595C167.651 134.585 166.839 135.388 165.838 135.388Z" fill="#ED675F"/>
<g filter="url(#filter0_ii_47_14900)">
<path d="M33.9657 233.662C26.743 229.231 23.1317 227.015 22.8556 222.767C22.7794 221.595 23.0667 219.979 23.542 218.906C25.2653 215.013 29.1142 214.239 36.8122 212.691C42.3406 211.579 48.9185 210.437 56.6825 209.346C72.1298 207.175 83.1188 206.49 90.509 206.388C95.8433 206.314 98.5105 206.278 100.916 208.483C103.322 210.688 103.538 213.635 103.969 219.529L106.036 247.768C106.741 257.401 107.093 262.218 104.813 264.808C102.534 267.398 97.2559 267.685 86.7006 268.258C80.8387 268.577 73.7074 269.221 65.2642 270.408C61.5344 270.932 58.0798 271.487 54.8919 272.057C42.5231 274.267 36.3387 275.371 34.3266 274.117C32.7612 273.142 31.9858 272.053 31.5761 270.254C31.0494 267.942 33.9361 262.784 39.7095 252.466C42.0617 248.262 43.2378 246.16 43.2637 244.071C43.2821 242.596 42.903 241.142 42.1663 239.864C41.1232 238.054 39.0703 236.794 34.9645 234.275L33.9657 233.662Z" fill="#8D4EDA"/>
</g>
<g filter="url(#filter1_ii_47_14900)">
<path d="M201.709 216.394C202.034 211.95 202.196 209.728 203.953 208.081C205.709 206.434 207.739 206.417 211.798 206.381C219.072 206.317 230.956 206.845 248.766 209.348C258.647 210.737 266.607 212.207 272.927 213.594C281.03 215.372 285.082 216.261 285.774 220.366C286.467 224.471 282.718 226.771 275.22 231.371L268.357 235.582C264.657 237.852 262.807 238.987 262.028 240.714C261.741 241.348 261.564 242.027 261.504 242.72C261.341 244.609 262.401 246.502 264.52 250.29C271.204 262.235 274.546 268.208 273.513 270.905C273.101 271.981 272.643 272.63 271.768 273.38C269.575 275.26 262.416 274.05 248.097 271.631C245.611 271.211 242.974 270.802 240.184 270.41C231.741 269.223 224.609 268.579 218.748 268.26C208.192 267.687 202.915 267.4 200.635 264.81C198.355 262.22 198.707 257.403 199.412 247.77L201.709 216.394Z" fill="#8D4EDA"/>
</g>
<mask id="mask1_47_14900" style="mask-type:alpha" maskUnits="userSpaceOnUse" x="198" y="206" width="85" height="69">
<path d="M201.479 219.531C201.911 213.637 202.127 210.69 204.532 208.485C206.938 206.28 209.605 206.317 214.94 206.39C222.33 206.492 233.319 207.177 248.766 209.348C256.53 210.439 263.108 211.581 268.636 212.693C276.334 214.241 280.183 215.015 281.907 218.908C282.382 219.982 282.669 221.597 282.593 222.769C282.317 227.017 278.706 229.233 271.483 233.664L270.484 234.277C266.378 236.796 264.325 238.056 263.282 239.866C262.546 241.144 262.166 242.598 262.185 244.073C262.211 246.162 263.387 248.264 265.739 252.468C271.512 262.786 274.399 267.945 273.873 270.256C273.463 272.055 272.687 273.144 271.122 274.119C269.11 275.374 262.925 274.269 250.557 272.059C247.369 271.489 243.914 270.934 240.184 270.41C231.741 269.223 224.61 268.579 218.748 268.26C208.193 267.687 202.915 267.4 200.635 264.81C198.355 262.22 198.708 257.403 199.413 247.77L201.479 219.531Z" fill="#8D4EDA"/>
</mask>
<g mask="url(#mask1_47_14900)">
<path d="M236.15 237.146C238.677 244.635 241.1 255.914 234.409 259.435C224.646 264.574 206.662 261.491 203.579 269.198C201.677 273.952 193.521 265.415 187.549 258.173C184.102 253.993 185.97 247.809 191.047 245.918L226.321 232.777C230.316 231.288 234.787 233.106 236.15 237.146Z" fill="#6833A9"/>
</g>
<mask id="mask2_47_14900" style="mask-type:alpha" maskUnits="userSpaceOnUse" x="22" y="206" width="85" height="69">
<path d="M103.937 219.531C103.506 213.637 103.29 210.69 100.884 208.485C98.4785 206.28 95.8113 206.317 90.4769 206.39C83.0868 206.492 72.0977 207.177 56.6505 209.348C48.8865 210.439 42.3085 211.581 36.7802 212.693C29.0822 214.241 25.2332 215.015 23.5099 218.908C23.0346 219.982 22.7474 221.597 22.8235 222.769C23.0996 227.017 26.711 229.233 33.9336 233.664L34.9324 234.277C39.0382 236.796 41.0911 238.056 42.1342 239.866C42.871 241.144 43.25 242.598 43.2317 244.073C43.2057 246.162 42.0296 248.264 39.6775 252.468C33.9041 262.786 31.0174 267.945 31.544 270.256C31.9537 272.055 32.7291 273.144 34.2946 274.119C36.3067 275.374 42.491 274.269 54.8599 272.059C58.0478 271.489 61.5023 270.934 65.2321 270.41C73.6754 269.223 80.8066 268.579 86.6685 268.26C97.2238 267.687 102.501 267.4 104.781 264.81C107.061 262.22 106.709 257.403 106.004 247.77L103.937 219.531Z" fill="#8D4EDA"/>
</mask>
<g mask="url(#mask2_47_14900)">
<path d="M69.2662 237.146C66.7387 244.635 64.3162 255.914 71.0066 259.435C80.7696 264.574 98.7542 261.491 101.837 269.198C103.739 273.952 111.895 265.415 117.867 258.173C121.314 253.993 119.446 247.809 114.369 245.918L79.0954 232.777C75.1001 231.288 70.6295 233.106 69.2662 237.146Z" fill="#6833A9"/>
</g>
<g filter="url(#filter2_ii_47_14900)">
<path d="M60.4382 215.885C59.3683 207.861 58.8334 203.849 61.0913 201.09C63.3492 198.33 67.3447 198.064 75.3356 197.531C93.4316 196.323 123.33 194.691 152.708 194.691C182.086 194.691 211.984 196.323 230.08 197.531C238.071 198.064 242.067 198.33 244.325 201.09C246.583 203.849 246.048 207.861 244.978 215.885L241.119 244.825C240.134 252.214 239.641 255.909 237.112 257.967C234.583 260.025 230.83 259.754 223.323 259.212C206.581 258.003 178.926 256.352 152.708 256.352C126.49 256.352 98.8352 258.003 82.0927 259.212C74.5864 259.754 70.8332 260.025 68.304 257.967C65.7748 255.909 65.2821 252.214 64.2968 244.825L60.4382 215.885Z" fill="url(#paint1_linear_47_14900)"/>
</g>
<g filter="url(#filter3_di_47_14900)">
<path d="M80.4629 236.663H74.2501L82.3198 212.746H90.0158L98.0855 236.663H91.8726L86.2554 218.772H86.0685L80.4629 236.663ZM79.6338 227.25H92.6201V231.641H79.6338V227.25ZM101.764 236.663L97.0929 218.725H102.827L105.244 230.216H105.396L107.989 218.725H113.583L116.245 230.135H116.397L118.744 218.725H124.478L119.795 236.663H113.688L110.885 226.211H110.686L107.884 236.663H101.764ZM134.77 237.002C132.894 237.002 131.274 236.632 129.912 235.892C128.557 235.145 127.514 234.082 126.782 232.704C126.058 231.318 125.696 229.671 125.696 227.764C125.696 225.911 126.062 224.292 126.794 222.906C127.526 221.512 128.557 220.43 129.888 219.659C131.22 218.881 132.789 218.491 134.595 218.491C135.872 218.491 137.039 218.69 138.098 219.087C139.157 219.484 140.072 220.072 140.843 220.85C141.614 221.629 142.213 222.59 142.641 223.735C143.069 224.872 143.284 226.176 143.284 227.647V229.072H127.693V225.755H137.97C137.962 225.148 137.818 224.607 137.538 224.132C137.257 223.657 136.872 223.287 136.382 223.023C135.899 222.75 135.342 222.614 134.712 222.614C134.073 222.614 133.501 222.758 132.995 223.046C132.489 223.326 132.088 223.712 131.792 224.202C131.496 224.685 131.34 225.234 131.325 225.849V229.224C131.325 229.956 131.469 230.598 131.757 231.151C132.045 231.696 132.454 232.12 132.983 232.424C133.513 232.727 134.143 232.879 134.875 232.879C135.381 232.879 135.841 232.809 136.253 232.669C136.666 232.529 137.02 232.322 137.316 232.05C137.612 231.777 137.834 231.443 137.982 231.046L143.225 231.197C143.007 232.373 142.528 233.397 141.789 234.269C141.057 235.133 140.095 235.806 138.904 236.289C137.713 236.764 136.335 237.002 134.77 237.002ZM161.861 224.202L156.617 224.342C156.563 223.969 156.415 223.638 156.173 223.35C155.932 223.054 155.617 222.824 155.227 222.661C154.846 222.489 154.402 222.404 153.896 222.404C153.234 222.404 152.67 222.536 152.203 222.801C151.743 223.065 151.518 223.424 151.525 223.875C151.518 224.225 151.658 224.529 151.946 224.786C152.242 225.043 152.767 225.249 153.522 225.405L156.979 226.059C158.77 226.401 160.101 226.97 160.973 227.764C161.853 228.558 162.297 229.609 162.305 230.917C162.297 232.147 161.931 233.218 161.207 234.129C160.491 235.04 159.51 235.748 158.264 236.254C157.018 236.752 155.593 237.002 153.99 237.002C151.428 237.002 149.408 236.476 147.929 235.425C146.457 234.366 145.616 232.949 145.406 231.174L151.047 231.034C151.171 231.688 151.494 232.186 152.016 232.529C152.538 232.871 153.203 233.043 154.013 233.043C154.745 233.043 155.34 232.906 155.8 232.634C156.259 232.361 156.493 231.999 156.5 231.548C156.493 231.143 156.314 230.82 155.963 230.578C155.613 230.329 155.064 230.135 154.317 229.995L151.187 229.399C149.388 229.072 148.049 228.469 147.169 227.589C146.29 226.701 145.854 225.572 145.861 224.202C145.854 223.003 146.173 221.979 146.819 221.131C147.465 220.274 148.384 219.62 149.575 219.169C150.766 218.717 152.172 218.491 153.791 218.491C156.22 218.491 158.135 219.001 159.537 220.021C160.938 221.033 161.713 222.427 161.861 224.202ZM173.489 237.002C171.605 237.002 169.986 236.616 168.631 235.845C167.284 235.067 166.245 233.985 165.513 232.599C164.789 231.205 164.427 229.59 164.427 227.752C164.427 225.907 164.789 224.292 165.513 222.906C166.245 221.512 167.284 220.43 168.631 219.659C169.986 218.881 171.605 218.491 173.489 218.491C175.374 218.491 176.989 218.881 178.336 219.659C179.691 220.43 180.73 221.512 181.454 222.906C182.186 224.292 182.552 225.907 182.552 227.752C182.552 229.59 182.186 231.205 181.454 232.599C180.73 233.985 179.691 235.067 178.336 235.845C176.989 236.616 175.374 237.002 173.489 237.002ZM173.524 232.692C174.21 232.692 174.79 232.482 175.265 232.062C175.739 231.641 176.102 231.057 176.351 230.31C176.608 229.562 176.736 228.698 176.736 227.717C176.736 226.721 176.608 225.849 176.351 225.101C176.102 224.354 175.739 223.77 175.265 223.35C174.79 222.929 174.21 222.719 173.524 222.719C172.816 222.719 172.217 222.929 171.726 223.35C171.243 223.77 170.874 224.354 170.617 225.101C170.367 225.849 170.243 226.721 170.243 227.717C170.243 228.698 170.367 229.562 170.617 230.31C170.874 231.057 171.243 231.641 171.726 232.062C172.217 232.482 172.816 232.692 173.524 232.692ZM185.477 236.663V218.725H190.908V222.018H191.106C191.48 220.928 192.111 220.068 192.998 219.437C193.886 218.807 194.944 218.491 196.175 218.491C197.42 218.491 198.487 218.811 199.374 219.449C200.262 220.087 200.826 220.944 201.068 222.018H201.255C201.589 220.952 202.243 220.099 203.217 219.461C204.19 218.814 205.338 218.491 206.662 218.491C208.359 218.491 209.737 219.036 210.796 220.126C211.855 221.209 212.384 222.696 212.384 224.587V236.663H206.673V225.895C206.673 225 206.444 224.319 205.984 223.852C205.525 223.377 204.929 223.139 204.198 223.139C203.411 223.139 202.792 223.396 202.341 223.91C201.897 224.416 201.675 225.097 201.675 225.954V236.663H196.186V225.837C196.186 225.004 195.96 224.346 195.509 223.863C195.057 223.381 194.462 223.139 193.722 223.139C193.224 223.139 192.784 223.26 192.402 223.501C192.021 223.735 191.721 224.07 191.503 224.506C191.293 224.942 191.188 225.456 191.188 226.047V236.663H185.477ZM224.308 237.002C222.431 237.002 220.812 236.632 219.449 235.892C218.095 235.145 217.052 234.082 216.32 232.704C215.596 231.318 215.234 229.671 215.234 227.764C215.234 225.911 215.6 224.292 216.331 222.906C217.063 221.512 218.095 220.43 219.426 219.659C220.757 218.881 222.326 218.491 224.132 218.491C225.409 218.491 226.577 218.69 227.636 219.087C228.695 219.484 229.61 220.072 230.38 220.85C231.151 221.629 231.751 222.59 232.179 223.735C232.607 224.872 232.821 226.176 232.821 227.647V229.072H217.231V225.755H227.508C227.5 225.148 227.356 224.607 227.075 224.132C226.795 223.657 226.41 223.287 225.919 223.023C225.437 222.75 224.88 222.614 224.249 222.614C223.611 222.614 223.039 222.758 222.533 223.046C222.026 223.326 221.626 223.712 221.33 224.202C221.034 224.685 220.878 225.234 220.863 225.849V229.224C220.863 229.956 221.007 230.598 221.295 231.151C221.583 231.696 221.991 232.12 222.521 232.424C223.05 232.727 223.681 232.879 224.413 232.879C224.919 232.879 225.378 232.809 225.791 232.669C226.203 232.529 226.558 232.322 226.854 232.05C227.149 231.777 227.371 231.443 227.519 231.046L232.763 231.197C232.545 232.373 232.066 233.397 231.326 234.269C230.594 235.133 229.633 235.806 228.442 236.289C227.251 236.764 225.873 237.002 224.308 237.002Z" fill="white"/>
</g>
<defs>
<filter id="filter0_ii_47_14900" x="22.8435" y="206.365" width="83.7253" height="69.307" filterUnits="userSpaceOnUse" color-interpolation-filters="sRGB">
<feFlood flood-opacity="0" result="BackgroundImageFix"/>
<feBlend mode="normal" in="SourceGraphic" in2="BackgroundImageFix" result="shape"/>
<feColorMatrix in="SourceAlpha" type="matrix" values="0 0 0 0 0 0 0 0 0 0 0 0 0 0 0 0 0 0 127 0" result="hardAlpha"/>
<feOffset dy="-2.05538"/>
<feComposite in2="hardAlpha" operator="arithmetic" k2="-1" k3="1"/>
<feColorMatrix type="matrix" values="0 0 0 0 0.407843 0 0 0 0 0.2 0 0 0 0 0.662745 0 0 0 1 0"/>
<feBlend mode="normal" in2="shape" result="effect1_innerShadow_47_14900"/>
<feColorMatrix in="SourceAlpha" type="matrix" values="0 0 0 0 0 0 0 0 0 0 0 0 0 0 0 0 0 0 127 0" result="hardAlpha"/>
<feOffset dy="1.02769"/>
<feGaussianBlur stdDeviation="0.513846"/>
<feComposite in2="hardAlpha" operator="arithmetic" k2="-1" k3="1"/>
<feColorMatrix type="matrix" values="0 0 0 0 1 0 0 0 0 1 0 0 0 0 1 0 0 0 0.4 0"/>
<feBlend mode="normal" in2="effect1_innerShadow_47_14900" result="effect2_innerShadow_47_14900"/>
</filter>
<filter id="filter1_ii_47_14900" x="198.879" y="206.376" width="86.9763" height="68.9515" filterUnits="userSpaceOnUse" color-interpolation-filters="sRGB">
<feFlood flood-opacity="0" result="BackgroundImageFix"/>
<feBlend mode="normal" in="SourceGraphic" in2="BackgroundImageFix" result="shape"/>
<feColorMatrix in="SourceAlpha" type="matrix" values="0 0 0 0 0 0 0 0 0 0 0 0 0 0 0 0 0 0 127 0" result="hardAlpha"/>
<feOffset dy="-2.05538"/>
<feComposite in2="hardAlpha" operator="arithmetic" k2="-1" k3="1"/>
<feColorMatrix type="matrix" values="0 0 0 0 0.407843 0 0 0 0 0.2 0 0 0 0 0.662745 0 0 0 1 0"/>
<feBlend mode="normal" in2="shape" result="effect1_innerShadow_47_14900"/>
<feColorMatrix in="SourceAlpha" type="matrix" values="0 0 0 0 0 0 0 0 0 0 0 0 0 0 0 0 0 0 127 0" result="hardAlpha"/>
<feOffset dy="1.02769"/>
<feGaussianBlur stdDeviation="0.513846"/>
<feComposite in2="hardAlpha" operator="arithmetic" k2="-1" k3="1"/>
<feColorMatrix type="matrix" values="0 0 0 0 1 0 0 0 0 1 0 0 0 0 1 0 0 0 0.4 0"/>
<feBlend mode="normal" in2="effect1_innerShadow_47_14900" result="effect2_innerShadow_47_14900"/>
</filter>
<filter id="filter2_ii_47_14900" x="59.5164" y="194.691" width="186.383" height="65.9381" filterUnits="userSpaceOnUse" color-interpolation-filters="sRGB">
<feFlood flood-opacity="0" result="BackgroundImageFix"/>
<feBlend mode="normal" in="SourceGraphic" in2="BackgroundImageFix" result="shape"/>
<feColorMatrix in="SourceAlpha" type="matrix" values="0 0 0 0 0 0 0 0 0 0 0 0 0 0 0 0 0 0 127 0" result="hardAlpha"/>
<feOffset dy="-2.05538"/>
<feComposite in2="hardAlpha" operator="arithmetic" k2="-1" k3="1"/>
<feColorMatrix type="matrix" values="0 0 0 0 0.407843 0 0 0 0 0.2 0 0 0 0 0.662745 0 0 0 0.4 0"/>
<feBlend mode="normal" in2="shape" result="effect1_innerShadow_47_14900"/>
<feColorMatrix in="SourceAlpha" type="matrix" values="0 0 0 0 0 0 0 0 0 0 0 0 0 0 0 0 0 0 127 0" result="hardAlpha"/>
<feOffset dy="1.02769"/>
<feGaussianBlur stdDeviation="0.513846"/>
<feComposite in2="hardAlpha" operator="arithmetic" k2="-1" k3="1"/>
<feColorMatrix type="matrix" values="0 0 0 0 1 0 0 0 0 1 0 0 0 0 1 0 0 0 0.5 0"/>
<feBlend mode="normal" in2="effect1_innerShadow_47_14900" result="effect2_innerShadow_47_14900"/>
</filter>
<filter id="filter3_di_47_14900" x="72.1946" y="211.718" width="162.682" height="29.3943" filterUnits="userSpaceOnUse" color-interpolation-filters="sRGB">
<feFlood flood-opacity="0" result="BackgroundImageFix"/>
<feColorMatrix in="SourceAlpha" type="matrix" values="0 0 0 0 0 0 0 0 0 0 0 0 0 0 0 0 0 0 127 0" result="hardAlpha"/>
<feOffset dy="2.05538"/>
<feGaussianBlur stdDeviation="1.02769"/>
<feComposite in2="hardAlpha" operator="out"/>
<feColorMatrix type="matrix" values="0 0 0 0 0 0 0 0 0 0 0 0 0 0 0 0 0 0 0.3 0"/>
<feBlend mode="normal" in2="BackgroundImageFix" result="effect1_dropShadow_47_14900"/>
<feBlend mode="normal" in="SourceGraphic" in2="effect1_dropShadow_47_14900" result="shape"/>
<feColorMatrix in="SourceAlpha" type="matrix" values="0 0 0 0 0 0 0 0 0 0 0 0 0 0 0 0 0 0 127 0" result="hardAlpha"/>
<feOffset dy="-2.05538"/>
<feGaussianBlur stdDeviation="0.513846"/>
<feComposite in2="hardAlpha" operator="arithmetic" k2="-1" k3="1"/>
<feColorMatrix type="matrix" values="0 0 0 0 1 0 0 0 0 0.952433 0 0 0 0 0.64325 0 0 0 0.4 0"/>
<feBlend mode="normal" in2="shape" result="effect2_innerShadow_47_14900"/>
</filter>
<linearGradient id="paint0_linear_47_14900" x1="154.218" y1="148.444" x2="154.218" y2="4.56763" gradientUnits="userSpaceOnUse">
<stop stop-color="#FDF4BF"/>
<stop offset="1" stop-color="#FFFCE8"/>
</linearGradient>
<linearGradient id="paint1_linear_47_14900" x1="152.708" y1="194.691" x2="152.708" y2="260.463" gradientUnits="userSpaceOnUse">
<stop stop-color="#B271E3"/>
<stop offset="1" stop-color="#A871E3"/>
</linearGradient>
</defs>
</svg>
