<svg width="17" height="22" viewBox="0 0 17 22" fill="none" xmlns="http://www.w3.org/2000/svg">
<path fill-rule="evenodd" clip-rule="evenodd" d="M5.25284 5.25284V0.232172C5.05891 0.331954 4.88169 0.461322 4.72756 0.615629L0.615633 4.72755C0.461326 4.88169 0.331958 5.0589 0.232176 5.25284H5.25284ZM7.35398 5.25284V-3.8147e-06H14.708C15.2652 -3.8147e-06 15.7996 0.221365 16.1937 0.615405C16.5877 1.00944 16.8091 1.54388 16.8091 2.10113V18.9102C16.8091 19.4675 16.5877 20.0019 16.1937 20.396C15.7996 20.79 15.2652 21.0114 14.708 21.0114H2.10114C1.54388 21.0114 1.00945 20.79 0.615409 20.396C0.221369 20.0019 0 19.4675 0 18.9102V7.35397H5.25284C5.8101 7.35397 6.34453 7.1326 6.73857 6.73856C7.13261 6.34453 7.35398 5.81009 7.35398 5.25284ZM9.78919 5.30747H9.78709C9.62924 5.25489 9.46116 5.24056 9.29669 5.26565C9.13222 5.29074 8.97605 5.35453 8.84106 5.45178C8.70606 5.54902 8.59609 5.67694 8.5202 5.825C8.44431 5.97306 8.40467 6.13703 8.40455 6.30341V11.8641C7.90393 11.6611 7.36888 11.5566 6.82869 11.5562C5.02907 11.5562 3.1517 12.7602 3.1517 14.708C3.1517 16.6557 5.02907 17.8597 6.82869 17.8597C8.62832 17.8597 10.5057 16.6557 10.5057 14.708C10.5057 14.5959 10.4997 14.4863 10.4878 14.3791C10.4999 14.3143 10.5059 14.2486 10.5057 14.1827V8.15871C11.0709 8.67664 11.5563 9.42359 11.5563 10.5057C11.5563 10.7843 11.6669 11.0515 11.864 11.2485C12.061 11.4456 12.3282 11.5562 12.6068 11.5562C12.8854 11.5562 13.1527 11.4456 13.3497 11.2485C13.5467 11.0515 13.6574 10.7843 13.6574 10.5057C13.6574 8.52956 12.653 7.20689 11.7033 6.41582C11.1854 5.98687 10.606 5.63805 9.9846 5.38101L9.81126 5.31482L9.79655 5.30957L9.7913 5.30852L9.78919 5.30747ZM5.25284 14.708C5.25284 14.3339 5.7277 13.6574 6.82869 13.6574C7.92969 13.6574 8.40455 14.3339 8.40455 14.708C8.40455 15.082 7.92969 15.7585 6.82869 15.7585C5.7277 15.7585 5.25284 15.082 5.25284 14.708Z" fill="url(#paint0_linear_47_14994)"/>
<defs>
<linearGradient id="paint0_linear_47_14994" x1="8.40455" y1="-3.8147e-06" x2="8.40455" y2="21.0114" gradientUnits="userSpaceOnUse">
<stop stop-color="#774B04"/>
<stop offset="1" stop-color="#A26D0A"/>
</linearGradient>
</defs>
</svg>
