<svg width="24" height="25" viewBox="0 0 24 25" fill="none" xmlns="http://www.w3.org/2000/svg">
<path d="M15.5284 0C18.4009 2.02461e-05 20.4801 0.842596 21.6182 2.47852C23.4319 5.02537 22.3845 8.68843 22.1709 9.34277C22.1682 9.35638 22.1651 9.37018 22.1651 9.38379V9.70996C23.5029 9.95892 23.553 11.1982 23.5557 12.7822C23.5556 14.3224 22.9477 15.5346 22.1407 15.8301C22.0971 15.8465 22.0639 15.8843 22.0557 15.9307C21.3034 20.1192 18.2725 23.6025 14.0567 24.21C8.05991 25.0745 4.48377 21.2197 3.42484 19.7422C3.21696 19.4523 3.32093 19.042 3.64359 18.8887C3.88982 18.771 4.18843 18.8419 4.35258 19.0635C5.26929 20.3003 9.09651 24.3246 14.7129 22.9541C18.4173 22.0513 21.1836 18.204 21.2246 14.0674V10.123C21.2246 9.74277 21.033 9.38644 20.7129 9.17578L15.8916 5.97559C15.3472 5.61452 14.6689 5.52334 14.0479 5.72852L4.12211 8.9541C3.84865 9.04172 3.6682 9.2968 3.67094 9.58398L3.68461 10.7354C3.68461 10.7846 3.71212 10.8316 3.7559 10.8535C4.51911 11.2503 5.17579 12.5822 5.17582 13.8789C5.17582 15.1427 4.92717 16.1444 4.35551 16.667C4.30087 16.7162 4.29476 16.8007 4.34379 16.8555C5.27123 17.8951 7.82122 20.0898 11.8702 20.4072C12.3926 20.4483 12.5133 19.7095 13.0274 19.6709C13.0411 19.6709 13.0528 19.6711 13.0664 19.6738C13.6597 19.7998 14.0838 20.3246 14.084 20.9316C14.084 21.5417 13.657 22.0675 13.0606 22.1934C13.0524 22.1961 13.0414 22.1963 13.0332 22.1963C12.6393 22.2045 12.2672 22.0155 12.0401 21.6982C12.0182 21.6654 11.9826 21.6463 11.9444 21.6436C6.04861 21.1757 3.68426 17.4353 2.89359 17.2383C2.10325 17.041 1.51223 16.0101 1.40824 14.6836C1.40824 14.6701 1.40578 14.659 1.40043 14.6455C-0.375065 10.2464 -0.47094 6.78528 1.16215 4.36133C4.08404 0.000375924 11.8131 0 15.5284 0ZM16.3135 15.6553C16.5103 15.5077 16.7868 15.5264 16.962 15.7012C17.137 15.8762 17.1482 16.1472 17.0088 16.3496C16.5109 17.0691 15.7121 17.4881 14.7764 17.54H14.3194C13.4522 17.447 12.7679 17.0199 12.2071 16.3496C12.0434 16.1336 12.0872 15.8223 12.3057 15.6582C12.5245 15.4941 12.8749 15.5372 13.0391 15.7559C13.4276 16.221 14.0515 16.5063 14.6534 16.4434C15.8522 16.3191 16.3071 15.6722 16.3135 15.6553ZM11.1026 10.2822C11.4252 10.3234 11.7201 10.4901 11.917 10.7471C12.1167 11.0042 12.202 11.3296 12.1582 11.6523C12.202 11.9724 12.1139 12.3005 11.917 12.5576C11.7174 12.8174 11.4252 12.985 11.1026 13.0234C10.7797 12.9824 10.4841 12.8148 10.2871 12.5576C10.0875 12.3005 10.0022 11.9751 10.0459 11.6523C10.0022 11.3323 10.0875 11.0042 10.2871 10.7471C10.4869 10.4872 10.7798 10.3205 11.1026 10.2822ZM17.7559 10.4082C18.0595 10.4438 18.3355 10.5994 18.5215 10.8428C18.7075 11.0835 18.7871 11.3897 18.7461 11.6934C18.7899 11.9942 18.7075 12.3005 18.5215 12.5439C18.3355 12.7847 18.0595 12.9439 17.7559 12.9795C17.4522 12.9439 17.1781 12.7847 16.9893 12.5439C16.8035 12.3033 16.7247 11.9968 16.7657 11.6934C16.722 11.3926 16.8034 11.0862 16.9893 10.8428C17.1753 10.602 17.4522 10.4438 17.7559 10.4082ZM15.0977 4.33301C15.1675 4.34402 15.237 4.35707 15.3057 4.37402C15.2398 4.3448 15.1694 4.33154 15.0977 4.33301Z" fill="url(#paint0_linear_47_14988)"/>
<defs>
<linearGradient id="paint0_linear_47_14988" x1="11.7779" y1="0" x2="11.7779" y2="24.3348" gradientUnits="userSpaceOnUse">
<stop stop-color="#774B04"/>
<stop offset="1" stop-color="#A26D0A"/>
</linearGradient>
</defs>
</svg>
