<svg width="232" height="57" viewBox="0 0 232 57" fill="none" xmlns="http://www.w3.org/2000/svg">
<rect x="1.40076" y="1.40076" width="228.323" height="53.2288" rx="26.6144" fill="url(#paint0_linear_47_14958)" stroke="url(#paint1_linear_47_14958)" stroke-width="2.80152"/>
<rect x="1.40076" y="1.40076" width="228.323" height="53.2288" rx="26.6144" fill="url(#paint2_linear_47_14958)" stroke="url(#paint3_linear_47_14958)" stroke-width="2.80152"/>
<path d="M31.3435 24.9205C31.2108 24.4907 31.0278 24.106 30.7943 23.7665C30.5662 23.4216 30.2903 23.1271 29.9666 22.883C29.6482 22.639 29.2821 22.4559 28.8683 22.3339C28.4544 22.2065 28.0034 22.1429 27.5153 22.1429C26.6398 22.1429 25.8598 22.3631 25.1754 22.8034C24.4909 23.2438 23.9524 23.8912 23.5597 24.7454C23.1724 25.5944 22.9787 26.629 22.9787 27.8494C22.9787 29.0803 23.1724 30.1229 23.5597 30.9772C23.9471 31.8314 24.4856 32.4814 25.1754 32.9271C25.8651 33.3675 26.6663 33.5877 27.5789 33.5877C28.4067 33.5877 29.123 33.4285 29.7278 33.1102C30.338 32.7918 30.8076 32.3408 31.1365 31.7572C31.4655 31.1682 31.63 30.4784 31.63 29.6879L32.2985 29.7913H27.8734V27.4833H34.4872V29.4411C34.4872 30.8366 34.1901 32.0437 33.5958 33.0624C33.0016 34.0811 32.1845 34.8664 31.1445 35.4182C30.1045 35.9647 28.9107 36.238 27.563 36.238C26.0615 36.238 24.7429 35.9011 23.6075 35.2272C22.4773 34.5481 21.5939 33.585 20.9572 32.3382C20.3258 31.086 20.0101 29.6003 20.0101 27.8812C20.0101 26.5653 20.1958 25.3901 20.5672 24.3554C20.9439 23.3208 21.4692 22.4426 22.143 21.721C22.8169 20.9941 23.6075 20.4423 24.5148 20.0656C25.4221 19.6836 26.409 19.4926 27.4755 19.4926C28.3775 19.4926 29.2185 19.6252 29.9984 19.8905C30.7784 20.1505 31.4708 20.5219 32.0757 21.0047C32.6859 21.4876 33.1873 22.0606 33.5799 22.7239C33.9725 23.3871 34.2299 24.1193 34.3519 24.9205H31.3435ZM38.2389 36.0151V19.7154H48.8401V22.1906H41.1917V26.6157H48.291V29.0909H41.1917V33.5399H48.9038V36.0151H38.2389ZM52.0327 22.1906V19.7154H65.0375V22.1906H59.9996V36.0151H57.0707V22.1906H52.0327ZM83.755 24.1962C83.6807 23.5012 83.3676 22.96 82.8158 22.5726C82.2693 22.1853 81.5583 21.9916 80.6829 21.9916C80.0674 21.9916 79.5394 22.0845 79.099 22.2702C78.6587 22.4559 78.3217 22.7079 78.0883 23.0263C77.8548 23.3446 77.7354 23.7081 77.7301 24.1167C77.7301 24.4562 77.8071 24.7507 77.9609 25.0001C78.1201 25.2495 78.335 25.4617 78.6056 25.6368C78.8762 25.8066 79.176 25.9498 79.5049 26.0666C79.8339 26.1833 80.1655 26.2815 80.4998 26.3611L82.0279 26.7431C82.6434 26.8863 83.235 27.08 83.8027 27.3241C84.3758 27.5681 84.8878 27.8759 85.3388 28.2473C85.7951 28.6187 86.1559 29.0671 86.4212 29.5923C86.6865 30.1176 86.8191 30.7331 86.8191 31.4388C86.8191 32.3939 86.5751 33.2348 86.0869 33.9618C85.5988 34.6834 84.8931 35.2484 83.9699 35.657C83.0519 36.0602 81.9404 36.2619 80.6351 36.2619C79.367 36.2619 78.266 36.0655 77.3322 35.6729C76.4036 35.2803 75.6767 34.7072 75.1515 33.9538C74.6315 33.2004 74.3503 32.2824 74.3078 31.2H77.2128C77.2552 31.7678 77.4303 32.24 77.7381 32.6167C78.0458 32.9934 78.4464 33.2746 78.9399 33.4603C79.4386 33.6461 79.9957 33.7389 80.6112 33.7389C81.2532 33.7389 81.8157 33.6434 82.2985 33.4524C82.7866 33.2561 83.1687 32.9855 83.4446 32.6406C83.7205 32.2904 83.8611 31.8818 83.8664 31.4149C83.8611 30.9905 83.7364 30.6403 83.4923 30.3644C83.2483 30.0831 82.906 29.8497 82.4656 29.664C82.0306 29.473 81.5212 29.3032 80.9375 29.1546L79.0831 28.6771C77.7407 28.3322 76.6796 27.8096 75.8996 27.1092C75.1249 26.4035 74.7376 25.467 74.7376 24.2997C74.7376 23.3393 74.9976 22.4984 75.5176 21.7768C76.0428 21.0552 76.7565 20.4954 77.6585 20.0974C78.5605 19.6942 79.5819 19.4926 80.7226 19.4926C81.8793 19.4926 82.8928 19.6942 83.7629 20.0974C84.6384 20.4954 85.3255 21.0498 85.8243 21.7608C86.323 22.4665 86.5804 23.2783 86.5963 24.1962H83.755ZM89.6317 22.1906V19.7154H102.636V22.1906H97.5985V36.0151H94.6697V22.1906H89.6317ZM106.163 36.0151H103.012L108.75 19.7154H112.395L118.141 36.0151H114.99L110.636 23.0581H110.509L106.163 36.0151ZM106.267 29.6242H114.862V31.9959H106.267V29.6242ZM121.185 36.0151V19.7154H127.297C128.549 19.7154 129.6 19.933 130.449 20.368C131.303 20.8031 131.948 21.4133 132.383 22.1986C132.823 22.9785 133.043 23.8885 133.043 24.9285C133.043 25.9737 132.821 26.881 132.375 27.6504C131.935 28.4144 131.285 29.006 130.425 29.4252C129.565 29.8391 128.51 30.046 127.257 30.046H122.904V27.5947H126.859C127.592 27.5947 128.191 27.4939 128.658 27.2922C129.125 27.0853 129.47 26.7855 129.693 26.3929C129.921 25.9949 130.035 25.5068 130.035 24.9285C130.035 24.3501 129.921 23.8567 129.693 23.4481C129.465 23.0343 129.117 22.7212 128.65 22.509C128.183 22.2914 127.581 22.1827 126.844 22.1827H124.138V36.0151H121.185ZM129.605 28.6293L133.64 36.0151H130.345L126.382 28.6293H129.605ZM135.942 22.1906V19.7154H148.946V22.1906H143.908V36.0151H140.98V22.1906H135.942ZM152.35 36.0151V19.7154H162.951V22.1906H155.303V26.6157H162.402V29.0909H155.303V33.5399H163.015V36.0151H152.35ZM172.383 36.0151H166.86V19.7154H172.495C174.113 19.7154 175.503 20.0417 176.665 20.6944C177.833 21.3417 178.729 22.2729 179.355 23.4879C179.981 24.703 180.295 26.1568 180.295 27.8494C180.295 29.5472 179.979 31.0064 179.347 32.2267C178.721 33.4471 177.817 34.3836 176.633 35.0362C175.456 35.6888 174.039 36.0151 172.383 36.0151ZM169.813 33.4603H172.24C173.376 33.4603 174.323 33.2534 175.081 32.8396C175.84 32.4204 176.411 31.7969 176.793 30.9692C177.175 30.1362 177.366 29.0962 177.366 27.8494C177.366 26.6025 177.175 25.5678 176.793 24.7454C176.411 23.9177 175.846 23.2995 175.097 22.891C174.355 22.4771 173.431 22.2702 172.328 22.2702H169.813V33.4603Z" fill="#774B04"/>
<g clip-path="url(#clip0_47_14958)">
<path d="M192.16 33.9865V22.0438C192.16 19.8062 194.654 18.4716 196.515 19.7128L205.473 25.6842C207.136 26.7931 207.136 29.2373 205.473 30.3462L196.515 36.3175C194.654 37.5587 192.16 36.2241 192.16 33.9865Z" fill="#774B04"/>
<rect x="208.269" y="19.6106" width="2.80152" height="16.8091" rx="1.40076" fill="#774B04"/>
</g>
<defs>
<linearGradient id="paint0_linear_47_14958" x1="132.91" y1="-10.6458" x2="132.91" y2="39.7815" gradientUnits="userSpaceOnUse">
<stop stop-color="#FFF4E1"/>
<stop offset="1" stop-color="#FFDCB0"/>
</linearGradient>
<linearGradient id="paint1_linear_47_14958" x1="132.91" y1="-10.6458" x2="132.91" y2="39.7815" gradientUnits="userSpaceOnUse">
<stop stop-color="#FFF4E1"/>
<stop offset="1" stop-color="#CA7401"/>
</linearGradient>
<linearGradient id="paint2_linear_47_14958" x1="132.91" y1="-10.6458" x2="132.91" y2="39.7815" gradientUnits="userSpaceOnUse">
<stop stop-color="#FFF4E1"/>
<stop offset="1" stop-color="#FFDCB0"/>
</linearGradient>
<linearGradient id="paint3_linear_47_14958" x1="132.91" y1="-10.6458" x2="132.91" y2="39.7815" gradientUnits="userSpaceOnUse">
<stop stop-color="#FFF4E1"/>
<stop offset="1" stop-color="#CA7401"/>
</linearGradient>
<clipPath id="clip0_47_14958">
<rect width="22.4121" height="22.4121" fill="white" transform="translate(190.059 16.8091)"/>
</clipPath>
</defs>
</svg>
