<svg width="38" height="38" viewBox="0 0 38 38" fill="none" xmlns="http://www.w3.org/2000/svg">
<g filter="url(#filter0_di_65_15169)">
<path d="M4.6072 18.1785C3.66128 17.5316 3.86259 16.0819 4.94899 15.7172L13.717 12.7737C14.0033 12.6776 14.2504 12.4907 14.4209 12.2415L19.6419 4.6072C20.2889 3.66128 21.7386 3.86259 22.1033 4.94899L25.0467 13.717C25.1429 14.0033 25.3297 14.2504 25.579 14.4209L33.2132 19.6419C34.1592 20.2889 33.9579 21.7386 32.8715 22.1033L24.1035 25.0467C23.8172 25.1429 23.5701 25.3297 23.3996 25.579L18.1785 33.2132C17.5316 34.1592 16.0819 33.9579 15.7172 32.8715L12.7737 24.1035C12.6776 23.8172 12.4907 23.5701 12.2415 23.3996L4.6072 18.1785Z" fill="#FFE597"/>
</g>
<g filter="url(#filter1_i_65_15169)">
<circle cx="7.0006" cy="32.3302" r="2.27692" transform="rotate(-53.5582 7.0006 32.3302)" fill="#FFDA6C"/>
</g>
<defs>
<filter id="filter0_di_65_15169" x="1.46951" y="2.85742" width="34.8815" height="34.8814" filterUnits="userSpaceOnUse" color-interpolation-filters="sRGB">
<feFlood flood-opacity="0" result="BackgroundImageFix"/>
<feColorMatrix in="SourceAlpha" type="matrix" values="0 0 0 0 0 0 0 0 0 0 0 0 0 0 0 0 0 0 127 0" result="hardAlpha"/>
<feOffset dy="1.38791"/>
<feGaussianBlur stdDeviation="1.26646"/>
<feComposite in2="hardAlpha" operator="out"/>
<feColorMatrix type="matrix" values="0 0 0 0 0.968627 0 0 0 0 0.729412 0 0 0 0 0.117647 0 0 0 0.25 0"/>
<feBlend mode="normal" in2="BackgroundImageFix" result="effect1_dropShadow_65_15169"/>
<feBlend mode="normal" in="SourceGraphic" in2="effect1_dropShadow_65_15169" result="shape"/>
<feColorMatrix in="SourceAlpha" type="matrix" values="0 0 0 0 0 0 0 0 0 0 0 0 0 0 0 0 0 0 127 0" result="hardAlpha"/>
<feOffset dx="-1.04093" dy="-1.04093"/>
<feGaussianBlur stdDeviation="2.60232"/>
<feComposite in2="hardAlpha" operator="arithmetic" k2="-1" k3="1"/>
<feColorMatrix type="matrix" values="0 0 0 0 1 0 0 0 0 0.77 0 0 0 0 0.075 0 0 0 0.6 0"/>
<feBlend mode="normal" in2="shape" result="effect2_innerShadow_65_15169"/>
</filter>
<filter id="filter1_i_65_15169" x="4.72363" y="30.0531" width="4.55396" height="4.55413" filterUnits="userSpaceOnUse" color-interpolation-filters="sRGB">
<feFlood flood-opacity="0" result="BackgroundImageFix"/>
<feBlend mode="normal" in="SourceGraphic" in2="BackgroundImageFix" result="shape"/>
<feColorMatrix in="SourceAlpha" type="matrix" values="0 0 0 0 0 0 0 0 0 0 0 0 0 0 0 0 0 0 127 0" result="hardAlpha"/>
<feOffset/>
<feGaussianBlur stdDeviation="0.867442"/>
<feComposite in2="hardAlpha" operator="arithmetic" k2="-1" k3="1"/>
<feColorMatrix type="matrix" values="0 0 0 0 1 0 0 0 0 0.768627 0 0 0 0 0.0745098 0 0 0 0.6 0"/>
<feBlend mode="normal" in2="shape" result="effect1_innerShadow_65_15169"/>
</filter>
</defs>
</svg>
